<svg xmlns="http://www.w3.org/2000/svg" viewBox="0 0 330.38549 487.50516"><defs><style>.cls-1{fill:#656039;}.cls-2{fill:#ad6a30;}.cls-3{fill:#c0bb6b;}.cls-4{fill:#dc9dab;}</style></defs><g id="Capa_2" data-name="Capa 2"><g id="Capa_1-2" data-name="Capa 1"><path class="cls-1" d="M9.2193,426.674a36.6325,36.6325,0,0,1,2.93907-14.59169,38.93022,38.93022,0,0,1,8.19829-12.16786,39.40064,39.40064,0,0,1,12.116-8.35379,36.09048,36.09048,0,0,1,14.799-3.04273,35.83739,35.83739,0,0,1,14.69535,3.04273,40.05793,40.05793,0,0,1,12.16939,8.35379,39.25993,39.25993,0,0,1,8.30043,12.16786,36.10276,36.10276,0,0,1,2.9909,14.59169,36.97931,36.97931,0,0,1-2.9909,14.85078,38.48515,38.48515,0,0,1-20.418,20.26251,37.26181,37.26181,0,0,1-14.74718,2.93906,37.73654,37.73654,0,0,1-14.799-2.88723,38.4422,38.4422,0,0,1-12.116-8.04281,36.98289,36.98289,0,0,1-8.19829-12.06573A38.05072,38.05072,0,0,1,9.2193,426.674Zm10.31266.10366A27.82748,27.82748,0,0,0,21.69662,437.761a29.11233,29.11233,0,0,0,5.9818,9.023,27.9,27.9,0,0,0,8.869,6.13576A27.14559,27.14559,0,0,0,67.07079,446.784a30.0744,30.0744,0,0,0,5.87813-9.023,28.09547,28.09547,0,0,0,2.16619-11.087,28.86457,28.86457,0,0,0-8.14646-20.2122,27.917,27.917,0,0,0-8.869-6.13576,26.66224,26.66224,0,0,0-10.82791-2.2165,26.38248,26.38248,0,0,0-10.93156,2.26833,28.59311,28.59311,0,0,0-8.86752,6.18759,27.3897,27.3897,0,0,0-5.87813,9.12666A29.83434,29.83434,0,0,0,19.532,426.77769Z"/><path class="cls-1" d="M166.79181,466.27366l-57.64569-58.47187,2.88724.72257.20579,55.37732H102.236V387.07434h.51678L159.77951,445.752l-2.372-.51525-.2058-55.89409h9.89954v76.931Z"/><path class="cls-1" d="M188.54938,463.90168v-74.559h20.31585q11.033,0,18.81889,3.404a34.02067,34.02067,0,0,1,12.53067,8.97118,36.36578,36.36578,0,0,1,6.96047,12.32335,42.92992,42.92992,0,0,1,2.218,13.45752,37.40441,37.40441,0,0,1-2.93907,15.16025,33.77361,33.77361,0,0,1-8.09616,11.44682A36.33,36.33,0,0,1,226.55,461.37572a39.30067,39.30067,0,0,1-14.07491,2.526Zm10.0032-9.59009h11.96207a33.71276,33.71276,0,0,0,11.395-1.85673,26.66016,26.66016,0,0,0,9.07483-5.36289,24.22239,24.22239,0,0,0,6.03363-8.60989,29.45806,29.45806,0,0,0,2.16619-11.60226,30.12574,30.12574,0,0,0-2.26985-12.116,24.79328,24.79328,0,0,0-6.1876-8.71355,27.09069,27.09069,0,0,0-8.86751-5.31106,30.18442,30.18442,0,0,0-10.41631-1.8049H198.55258Z"/><path class="cls-1" d="M275.17312,437.50189a16.96954,16.96954,0,0,0,2.42229,9.02452,17.52622,17.52622,0,0,0,6.44522,6.2379,18.15368,18.15368,0,0,0,9.07636,2.26833,19.14557,19.14557,0,0,0,9.38276-2.26833,16.92639,16.92639,0,0,0,6.49705-6.2379,17.2587,17.2587,0,0,0,2.372-9.02452V389.34267h9.7974v48.46867a26.50063,26.50063,0,0,1-3.7653,14.23193,25.53491,25.53491,0,0,1-10.10534,9.38428,30.25614,30.25614,0,0,1-14.17856,3.29883,29.95279,29.95279,0,0,1-14.12979-3.29883,25.25087,25.25087,0,0,1-10.00168-9.38428,26.77434,26.77434,0,0,1-3.71194-14.23193V389.34267h9.89954Z"/><path class="cls-2" d="M176.50227,345.65444c-13.59241-1.40365-10.808-17.24781-10.296-27.70375.55732-11.38011,4.61366-27.99341,3.89577-38.68-.266-3.95941-1.857-.379-3.90142-.66666,0,0,.73072-4.39611.29051-5.93546-.72559-2.53724-2.35349-5.01553-4.90186-5.701-13.244-3.56259-40.83544-2.25194-45.74434-10.8531-8.019-14.05052,18.87718-18.14939,27.3014-21.67585,11.64673-4.87544,12.29923-10.891,12.11566-22.694-.06661-4.28272.24351-16.613-1.11683-20.14575-2.53427-6.58136-15.37463-9.658-17.727-20.948-4.82726-23.16831,34.403-34.25034,32.36658-57.09067l3.20548,3.86319,4.50671-5.15157c-5.47171,23.30491,30.92839,31.41805,31.47495,53.51245.41509,16.7799-15.53968,18.43725-18.10455,25.83551-1.29242,3.72792-1.84239,18.68964-1.85395,23.14106-.03366,12.953,7.46823,22.94136,6.46523,36.55354-1.843,25.01294-18.20985,54.491-20.3886,78.38177C173.51319,336.02175,173.54977,340.01687,176.50227,345.65444Zm-4.50616-217.88521c-5.816,11.90434-24.99723,24.90079-20.04862,39.3529,5.59765,16.34759,38.736,14.39968,41.28045-2.718C195.09829,151.82127,177.76027,138.12275,171.99611,127.76923Zm-.87747,134.282c1.4057-17.32914-10.15405-11.15945-20.43381-9.75195Z"/><ellipse class="cls-2" cx="171.57091" cy="161.25511" rx="10.56251" ry="13.01388"/><path class="cls-3" d="M139.83881,89.1802c-.00561,1.4426.17129,3.13451-.921,4.07691a9.36332,9.36332,0,0,1-1.6584.88884c-1.6694.93219-2.36834,2.99749-2.46075,4.9073s.27532,3.82749.08813,5.73035c-.44859,4.55985-3.96374,8.29315-4.84417,12.78963a11.43527,11.43527,0,0,0,17.84654,11.51845,12.81926,12.81926,0,0,0,5.13839-9.61438,16.103,16.103,0,0,0-3.357-10.51591c-1.919-2.54079-4.63323-4.89939-4.74263-8.08157a33.20805,33.20805,0,0,1,.46345-3.80464,3.72138,3.72138,0,0,0-1.24257-3.44224c-.86588-.58919-2.10513-.591-2.7819-1.39-1.448-1.70968,1.06548-3.24248.82357-4.8424C141.77968,84.68323,139.84529,87.51667,139.83881,89.1802Z"/><path class="cls-3" d="M194.4714,50.4919c-2.29932-2.74914-6.61009-4.17329-9.55546-2.13136a2.68133,2.68133,0,0,0-1.10542,1.34469c-.613,2.00645,2.175,3.13545,4.20483,3.66582a17.4705,17.4705,0,0,1,6.18573,3.02292,4.56747,4.56747,0,0,1,1.813,2.28828,1.89894,1.89894,0,0,1-1.20647,2.3635,3.08126,3.08126,0,0,1-2.18015-.79775,19.35469,19.35469,0,0,0-5.72844-2.61214c-1.73611-.46945-3.99521-.48806-4.87972,1.07785-1.11759,1.97855,1.2528,4.32056,3.51667,4.51709s4.50225-.75425,6.77048-.617c4.47956.27108,7.83884,5.60027,6.15145,9.75871-.72051,1.77563-2.1163,3.17477-3.20908,4.74887a14.84257,14.84257,0,0,0-1.0966,15.09083,13.01342,13.01342,0,0,0,13.29454,6.701c5.22374-.9261,9.53781-5.87288,9.41653-11.17669A17.24532,17.24532,0,0,0,214.2,79.75168a14.57135,14.57135,0,0,0-4.43388-5.22369c-1.83776-1.18942-4.15592-1.70937-5.597-3.35718-1.96954-2.252-1.43277-6.00381.675-8.12705a10.04235,10.04235,0,0,1,8.31854-2.43583,5.6682,5.6682,0,0,0,2.89088-.05985c2.24643-.956,1.36466-4.81-.95309-5.577s-4.8055.573-6.63762,2.18655-3.449,3.5963-5.7111,4.51467c.16386-4.60273,5.45659-6.85152,9.479-9.09484,2.36152-1.317,4.755-4.323,3.00975-6.38833a3.39134,3.39134,0,0,0-3.93633-.5925,8.94807,8.94807,0,0,0-3.12973,2.85149,59.75891,59.75891,0,0,0-7.55852,12.739,15.89141,15.89141,0,0,1,1.79236-9.91033,26.9333,26.9333,0,0,0,2.33448-4.32236,4.30088,4.30088,0,0,0-.8392-4.565c-1.61052-1.40436-4.32959-.57647-5.5654,1.16674s-1.35145,4.02891-1.25118,6.16338a62.05666,62.05666,0,0,0,1.01833,7.7234C196.75665,55.21743,196.20542,52.56514,194.4714,50.4919Z"/><path class="cls-4" d="M229.42151,99.81727a33.79833,33.79833,0,0,1-6.70726,1.85106,14.98206,14.98206,0,0,0-6.36254,2.68789,6.25183,6.25183,0,0,0-2.36716,6.15825c.60137,2.245,3.39042,3.81733,5.4212,2.68691-.8381,2.38665,1.91867,5.1455,4.306,4.3092a6.0638,6.0638,0,0,0,2.44318,4.89075,3.72114,3.72114,0,0,0,5.035-.822,3.21661,3.21661,0,0,0,2.903,1.81595,12.451,12.451,0,0,1,2.08316-.15093c.56542.08653,1.07142.40061,1.62795.53279,1.57182.3733,3.1106-.76678,4.09353-2.04889a11.52274,11.52274,0,0,0,.222-13.33339c-1.04917-1.46719-2.44713-2.67418-3.37993-4.218-1.09731-1.816-.36105-6.46219-1.97777-7.53249C234.56618,95.19087,231.53613,98.85035,229.42151,99.81727Z"/><path class="cls-1" d="M76.9494,73.63621c2.20382-.04875,4.48728.69949,6.56484-.0374a6.2487,6.2487,0,0,0-12.057.79133,7.11245,7.11245,0,0,1,.577-6.23689A21.03708,21.03708,0,0,1,76.255,63.25142c-3.06072.4821-6.15843,1.74109-8.03032,4.21018s-2.09938,6.32576.09279,8.51547a4.55467,4.55467,0,0,1,1.29621,1.53644,3.6361,3.6361,0,0,1-.33933,2.33628A13.56248,13.56248,0,0,0,73.49419,94.532c3.80819,3.043,9.06271,3.75114,13.885,3.03879,3.94348-.58252,7.9294-2.16472,10.41242-5.28322s2.99193-7.99445.39711-11.02056-8.37046-2.76371-10.00311.87289a2.86224,2.86224,0,0,0-.28326,1.605c.17184,1.06569,1.14555,1.77635,1.87,2.57662s1.197,2.1557.39611,2.87942a8.75108,8.75108,0,0,0-2.28374-3.35155,3.07961,3.07961,0,0,0-3.77383-.19823c-2.14765,1.85418.08007,6.48918-2.47727,7.71814-.97558-2.33065,1.39462-5.52067-.38893-7.31026-2.11354-2.12069-5.99384,1.611-8.56592.07845.93585-1.49171,3.40314-.87868,4.74177-2.02282,1.17135-1.00116.92639-2.9943-.09573-4.14745C75.67467,78.10555,68.7589,73.81743,76.9494,73.63621Z"/><path class="cls-1" d="M167.6387,45.12318a16.0948,16.0948,0,0,0-8.81345,14.89106c.12685,2.59363,1.022,5.31649,3.10352,6.869,3.97212,2.9627,10.13464-.17365,11.89124-4.80719s.3976-9.82869-1.31442-14.47889a5.459,5.459,0,0,0-2.09751-3.09952c-1.11481-.62018-2.90481-.0382-2.93493,1.23716"/><path class="cls-1" d="M96.83758,59.0051c-2.99286-.46294-6.77444.23764-7.74206,3.10735l2.94956.57265a7.65762,7.65762,0,0,0-1.924,3.51825l3.573.13844a6.53893,6.53893,0,0,0-2.147,3.68252l3.18294.87318a2.78339,2.78339,0,0,0-.59095,4.65874,3.50532,3.50532,0,0,0,2.8501.35968c3.87549-1.02485,5.30164-6.12279,8.97117-7.73656,1.92586-.84694,4.14252-.58011,6.21-.19078s4.19167.88634,6.25022.452,4.03439-2.13308,3.98035-4.23625a5.42212,5.42212,0,0,0-3.33808.57569c-.31761-1.27518,1.83049-1.68567,2.38133-2.87879a1.90878,1.90878,0,0,0-1.12479-2.34459,5.54651,5.54651,0,0,0-2.84922-.21632,13.13855,13.13855,0,0,0,1.63549-3.06027,3.9565,3.9565,0,0,0-2.79815-.071l.94688-4.31861a3.56,3.56,0,0,0-3.52754,1.00772c.867-.49512.51237-2.009-.4255-2.35144a2.48722,2.48722,0,0,0-2.62788.98227,14.67238,14.67238,0,0,0-1.41559,2.63124,9.77366,9.77366,0,0,1-7.59382,5.141"/><path class="cls-2" d="M138.08447,62.18186c-2.40991,2.11561-3.90978,5.053-5.84921,7.60679a26.85426,26.85426,0,0,1-23.47191,10.29388c-.59373.37463-.00821,1.26972.56719,1.67195a27.41325,27.41325,0,0,0,7.7286,4.19966,19.34165,19.34165,0,0,0,7.88248.44524,34.61446,34.61446,0,0,0,18.10256-8.44647c3.3-2.86818,6.33294-6.95261,5.47135-11.23909a13.0523,13.0523,0,0,1-.48665-2.51777,7.05334,7.05334,0,0,1,1.60165-3.78124,6.72218,6.72218,0,0,0,1.54294-3.79879c-.04257-1.39-1.37473-2.80569-2.69823-2.3794.32625-.10508-1.40788,5.487-2.45376,6.10733C144.03684,61.52111,140.73911,59.85144,138.08447,62.18186Z"/><path class="cls-3" d="M273.71206,116.5063c-.108,1.01634-.53557,2.07132-.15962,3.02173,3.72134-2.66647,9.48631-.4575,11.50312,3.65236s.91241,9.20171-1.61787,13.01695-6.2844,6.62082-9.96208,9.34719a11.9756,11.9756,0,0,1-4.25588,2.33258,4.08318,4.08318,0,0,1-4.35557-1.4315,5.19518,5.19518,0,0,0-1.01369-1.53441,3.16827,3.16827,0,0,0-2.21809-.266c-6.62023.61512-13.11558-5.23-13.19957-11.87824a20.33384,20.33384,0,0,1,1.7094-7.54241c1.63945-4.20825,3.41162-10.16135,7.89973-10.66483,10.31731-1.15741,8.0288,3.57832,11.27573,3.362.88581-.059,2.29215-2.8619,2.92329-3.62993A1.83543,1.83543,0,0,1,273.71206,116.5063Zm-4.88279,8.06465a11.83486,11.83486,0,0,0-6.77583,11.67455,4.97607,4.97607,0,0,0,1.46322,3.36946c1.79865,1.52639,4.66736.54314,6.32461-1.1357a10.15817,10.15817,0,0,0-.25309-13.97136"/><path class="cls-1" d="M182.51607,77.18215c2.26576,1.4805,3.60848,4.03025,4.45335,6.6011a19.82761,19.82761,0,0,1,.02282,13.27817c-1.64247,4.2061-5.36444,7.70784-9.82057,8.43714a6.25205,6.25205,0,0,1-5.31369-1.23066,7.41525,7.41525,0,0,0-1.31182-1.2159c-1.311-.74111-2.88517.17166-4.28932.7161-5.08551,1.97182-11.12312-1.57059-13.21472-6.608s-.96358-10.91353,1.4713-15.79429a13.1834,13.1834,0,0,1,4.72187-5.69192c2.15086-1.27437,5.12888-1.41222,7.01449.22933.8909.77558,1.47579,1.8714,2.42822,2.57C172.86911,81.54762,177.31235,73.78247,182.51607,77.18215ZM166.701,86.1345a5.63306,5.63306,0,0,0-5.8935-5.90408,7.04107,7.04107,0,0,0,5.84423,5.71859m-.00769,6.57951a7.04668,7.04668,0,0,0-5.82514,6.90784,6.52894,6.52894,0,0,0,5.33982-6.7077m-.40479-4.38974a7.13109,7.13109,0,0,0-8.40236,1.11967,8.1344,8.1344,0,0,0,8.58288-.81074m5.53928,5.56741a6.201,6.201,0,0,0,6.48769,6.49934,7.751,7.751,0,0,0-6.43345-6.29515m.00846-7.24286a7.75717,7.75717,0,0,0,6.41245-7.6043,7.1872,7.1872,0,0,0-5.8782,7.384m.44561,4.83233a7.85006,7.85006,0,0,0,9.24949-1.23256,8.9545,8.9545,0,0,0-9.44821.89248"/><path class="cls-1" d="M112.03322,156.90419c.89236-2.11158,1.68228-4.83781.05834-6.45581-2.46445-2.45543-6.80991.83419-10.06455-.3946a3.12914,3.12914,0,0,1-1.97974-3.72839c.52565-1.46844,2.83683-1.99869,3.73033-.7203a7.73547,7.73547,0,0,1-3.55133-7.23971,12.62283,12.62283,0,0,1,5.92756,1.37646,2.9692,2.9692,0,0,1,2.65666-5.15058c3.84759,1.00827,3.24925,8.30753,7.19711,8.79229,1.604-2.21991-.58217-5.15831-.86235-7.88267a5.80967,5.80967,0,0,1,5.32682-6.14554,11.86165,11.86165,0,0,1,.07371,6.767c.89241.50651,1.90085-.60337,2.03595-1.62057s-.10631-2.13664.42345-3.01545a2.42991,2.42991,0,0,1,3.67569-.1711,3.95341,3.95341,0,0,1,.61433,3.99246,11.63781,11.63781,0,0,1-2.31547,3.53619,10.70384,10.70384,0,0,0,5.81352-2.30681c1.38.93374.9557,3.2105-.28192,4.32614s-2.94807,1.49911-4.45338,2.21352-2.97627,2.09246-2.80253,3.74961c1.87224.60166,3.88215-.2173,5.63657-1.10572s3.61075-1.89311,5.56429-1.66743,3.76937,2.38652,2.84141,4.12035c-.9455,1.76661-3.53121,1.50365-5.44547.91158-.45219.6857.14514,1.63247.89244,1.97337s1.6099.33087,2.3811.61355a3.29457,3.29457,0,1,1-2.942,5.84736c-1.31924-.86615-2.24349-2.73908-3.809-2.53977-1.03234.88846.085,2.54238,1.23928,3.26538s2.61188,1.803,2.13841,3.08c-.3586.96722-1.59355,1.2041-2.62135,1.292a5.29276,5.29276,0,0,1-2.61737-.21718c-3.21112-1.43456-1.44385-7.53027-4.66611-8.93964a3.664,3.664,0,0,0-4.09991,1.36773,12.57724,12.57724,0,0,0-1.847,4.23294c-.64113,2.04345-4.1476,13.23472-7.27378,11.66827C105.318,169.07112,111.25758,158.73957,112.03322,156.90419Z"/><path class="cls-1" d="M108.18328,96.50106a16.572,16.572,0,0,0-10.18634,16.76053,5.56725,5.56725,0,0,1-.18431,3.2543,10.76232,10.76232,0,0,1-1.50563,1.69566,1.80707,1.80707,0,0,0-.3914,2.07894c1.2244,1.24014,3.14653-.77577,4.88916-.7571a4.95312,4.95312,0,0,1,2.24351.87242,15.32661,15.32661,0,0,0,16.86326-1.90881,17.82752,17.82752,0,0,0,5.71719-16.28344,2.51956,2.51956,0,0,1,.10934-1.76092c.27228-.42991.78416-.63169,1.18194-.95357,3.84057-3.11685-5.13209-3.491-6.31577-3.68979C116.47357,95.11569,112.15477,94.96334,108.18328,96.50106Z"/><path class="cls-1" d="M188.05572,106.51732a1.5056,1.5056,0,0,1-1.01759,1.40375c-.6072.12275-1.243-.68943-.81444-1.13676-.85958-.14531-1.53891.833-1.53263,1.70476a11.45375,11.45375,0,0,0,.64075,2.52541,2.09824,2.09824,0,0,1-.66406,2.34276,1.57182,1.57182,0,0,0-2.015-1.4934,6.83091,6.83091,0,0,0,1.74354,6.95019,4.4659,4.4659,0,0,1-2.65027-.6915,8.6196,8.6196,0,0,0,5.68711,8.41209c1.95347.65776,4.41214.7794,5.43837,2.567.77232,1.34531.5282,3.39227,1.9033,4.11022a3.14743,3.14743,0,0,0,1.5573.23865,24.06289,24.06289,0,0,0,3.444-.34759c-.66692-2.5057-1.2599-5.42924.31792-7.48686a16.49818,16.49818,0,0,1,2.119-1.954,9.09334,9.09334,0,0,0,1.573-11.08756,2.74206,2.74206,0,0,1-1.95768,2.04022c-.46165-1.09487-.19357-2.34289-.2592-3.5293s-.7552-2.56365-1.94324-2.58429a1.5186,1.5186,0,0,1-1.66374,1.38188,4.6427,4.6427,0,0,0-2.56808-5.24113c.50646.80661-.84965,1.68523-1.70125,1.256C190.551,104.31151,188.76163,99.44514,188.05572,106.51732Z"/><path class="cls-1" d="M205.81231,130.63108a13.56858,13.56858,0,0,0,.80392,11.11489,7.383,7.383,0,0,0,2.07064,2.438c2.83676,1.9485,6.60712.21242,9.88781-.82726a17.32467,17.32467,0,0,1,12.06407.28486,11.81556,11.81556,0,0,1,7.16051,9.32372,10.25677,10.25677,0,0,1-6.12693,10.13651,6.54038,6.54038,0,0,1-4.96373.21859,4.76995,4.76995,0,1,1,4.58719-8.30267,2.79393,2.79393,0,0,0-.5891-3.43249,6.23854,6.23854,0,0,0-3.43729-1.43751,17.49666,17.49666,0,0,0-6.95657.3198,2.3724,2.3724,0,0,0-1.808,2.30738,2.45215,2.45215,0,0,1-.35841,1.32544c-.56506.89755-1.51384,1.48542-2.1589,2.32731-1.47293,1.9224-1.0621,4.63523-.58023,7.00861a4.4516,4.4516,0,0,0,2.90287,4.15538l7.38173,3.68423c1.18342.59065,2.99036.98033,3.51191-.23512a3.192,3.192,0,0,0,5.28836.39578c.34242-.52458.55493-1.18892,1.105-1.48862,1.27549-.6949,3.66162.79972,3.926-.62852a2.6103,2.6103,0,0,1,1.342-3.66445c.20486.97056,1.83367.51865,2.15565-.41959s.0362-2.01819.429-2.92907c.79011-1.83244,4.04378-2.67965,3.3284-4.54254-.26675-.69464-1.05821-1.0853-1.31252-1.7846-.478-1.31447,1.11738-2.3494,1.89322-3.51319a3.47207,3.47207,0,0,0-2.84788-5.11387,6.501,6.501,0,0,0-4.29355-8.16862c.72461-.65467-.11129-1.89951-1.05914-2.13448s-2.001-.0059-2.8816-.428c-1.36595-.65465-1.65332-2.50148-2.76505-3.53027a5.61437,5.61437,0,0,0-2.11378-1.06843c-1.05254-.348-4.39746-.32528-7.30389-1.32177-1.64972-.56562-2.96432-2.24354-4.12095-2.55182-2.82381-.75264-1.30157,2.99924-3.72317,1.45014C211.36912,126.47659,206.96214,127.07866,205.81231,130.63108Z"/><path class="cls-2" d="M224.98966,61.36547c1.63635-1.75931,2.71051-2.95972,6.2157-3.39941-.19765-.042.13569,5.23025,5.80644,2.94882,0,3.17822,2.0073,6.35644,5.75059,3.51727a3.03125,3.03125,0,0,0,5.86422,1.28528c1.07328,6.37992-.6314,13.43328-5.3776,17.82974s-12.68372,5.37764-17.78379,1.39712a14.20937,14.20937,0,0,1-4.908-8.09757A17.57751,17.57751,0,0,1,224.98966,61.36547Zm2.649,3.422a2.21261,2.21261,0,1,0,.61925.26679m7.17265,2.62065a2.65833,2.65833,0,1,0,.85674.18785m6.16512,5.24484a2.12032,2.12032,0,1,0,.08655.01647m-7.98056,3.316a2.475,2.475,0,0,0-1.823,3.27793c.63766,1.33883,2.62641,1.52537,3.85554.69572a2.37611,2.37611,0,0,0,1.07686-2.69964,2.83594,2.83594,0,0,0-3.10939-1.274m-7.46172-3.21564a2.63059,2.63059,0,0,0-2.84686,3.36436,2.54457,2.54457,0,0,0,4.33118.29677c.88139-1.57114.26752-4.0811-1.48432-3.66113"/><path class="cls-1" d="M308.48844,115.51479c-4.20207-.03391-7.76852,3.77132-8.43829,7.91981,2.14462-.23641,3.83278-1.845,5.5731-3.1204s4.10513-2.28774,5.98956-1.23693c2.19023,1.22134,2.17486,4.67713.4721,6.51816s-4.41468,2.35446-6.92214,2.31723c-2.37891-.03533-4.87232-.45184-7.0559.49286a8.36859,8.36859,0,0,0-4.09522,4.49253,13.44328,13.44328,0,0,0,2.02622,13.73336c1.30991,1.54656,3.02611,2.87,3.65379,4.79709,1.01653,3.1209-1.20155,6.28595-3.28525,8.822,1.82753.18987,3.10483-1.65107,4.42268-2.93136,5.97965-5.80925,17.43585-1.57788,23.27827-7.52512,4.40312-4.48211,2.43495-12.78688-2.802-16.25835a43.333,43.333,0,0,1-4.1723-2.63279,4.72465,4.72465,0,0,1-1.909-4.29987c.40812-2.03673,2.87407-3.205,4.87819-2.65883a6.25812,6.25812,0,0,1,4.04038,4.3892c.48385,1.62667.74724,3.70178,2.34386,4.27707a8.08407,8.08407,0,0,0-9.42314-11.16435c2.18269-2.32528,5.42716-3.24232,8.24261-4.7404s5.52628-4.26249,5.01768-7.41088l-13.33942,9.123a25.99286,25.99286,0,0,0,2.65558-7.93116,4.39481,4.39481,0,0,0-.24307-2.88754,1.70836,1.70836,0,0,0-2.48968-.621,2.46445,2.46445,0,0,0-.57613,1.383c-.75139,4.05593-.69972,8.20844-1.35869,12.23018C313.80761,118.01979,311.5964,115.53987,308.48844,115.51479Z"/><path class="cls-3" d="M99.83824,152.72984a1.93336,1.93336,0,0,1,1.18764.75221c.35024.63979-.10743,1.40907-.56135,1.98a34.14421,34.14421,0,0,1-19.13729,12.36877c-7.57387,1.6297-15.94374.00293-21.90529-4.94473a21.83438,21.83438,0,0,1-7.57835-13.48555c-.25148-1.73274-.88655-6.175.73166-7.41364,1.43721-1.1,7.62615.9392,9.3549,1.25061A291.27848,291.27848,0,0,1,99.83824,152.72984Zm-39.59042-6.691a3.11571,3.11571,0,0,0-1.33028,3.81561c1.09943-.13109,1.67014-1.34736,2.03774-2.39177a1.54575,1.54575,0,0,0,.11932-.96567c-.10093-.31469-.571-.6675-.82678-.45817m8.36689.93744a2.13757,2.13757,0,0,0-1.26952,3.15606,2.55121,2.55121,0,0,0,1.93418-3.23353l-.87562.03837m-2.42662,5.269a3.22694,3.22694,0,0,0-.90014,4.0231,2.68923,2.68923,0,0,0,.92457-3.85035m4.87107,4.08728a5.10779,5.10779,0,0,0-.50673,4.749,3.29048,3.29048,0,0,0,.73277-4.714m2.56623-6.90158a5.37137,5.37137,0,0,0-.96747,2.90955,1.181,1.181,0,0,0,.2962.958c.66026.56139,1.507-.52909,1.53151-1.39541a5.25926,5.25926,0,0,0-.4862-2.356m4.79544.86175a4.71134,4.71134,0,0,0,1.09487,3.521c.3628.25524.90147-.06263,1.03263-.48639a2.14233,2.14233,0,0,0-.15541-1.29833c-.267-.78529-.72736-1.719-1.55678-1.72466m4.68768-.4643a3.7482,3.7482,0,0,0,.71274,2.78049c.17164.22624.43879.45274.70832.36328.24089-.08.33657-.36838.36206-.62091a2.74462,2.74462,0,0,0-1.41311-2.63586m.85477,6.284a5.12015,5.12015,0,0,0,1.603,4.03761,2.74728,2.74728,0,0,0-1.32827-4.15994m-7.31519,2.8883a3.70335,3.70335,0,0,0,.52761,2.36028c.33367.68309,1.47028.94564,1.824.27272a1.583,1.583,0,0,0-.12331-1.294,3.12089,3.12089,0,0,0-.809-1.3202,1.07242,1.07242,0,0,0-1.41926-.0188m13.28471-6.32976a4.36409,4.36409,0,0,0,.43756,2.211,1.31326,1.31326,0,0,0,.776.767c.74015.18054,1.274-.87906.94231-1.5649a3.07943,3.07943,0,0,0-1.81781-1.28892"/><path class="cls-3" d="M124.856,0a2.61354,2.61354,0,0,1-.32337,2.06714c-2.91976,5.88443-9.60135,8.76846-14.1069,13.54878-2.22989,2.36588-3.943,5.22209-6.43241,7.31317a81.44678,81.44678,0,0,1,20.17309-15.036c-2.21631,3.71713-5.76106,6.41594-9.21832,9.01909L104.393,24.85964l10.22528-5.35775c1.24337-.65149,2.81546-1.28959,3.96052-.47766.29977.5356-.31713,1.10916-.85047,1.41292q-6.92229,3.94263-14.13993,7.33356c1.261.21761,1.81363,1.87175,1.36633,3.07066a6.5804,6.5804,0,0,1-2.57523,2.76717q-16.27429,11.73525-33.14053,22.619a3.95921,3.95921,0,0,1-2.76507.91066,6.26635,6.26635,0,0,1,1.41235-2.68872c6.37878-8.30308,14.64037-15.1846,19.89654-24.24014,1.45168-2.501,2.75927-5.25958,5.16586-6.86294s6.352-1.3177,7.46446,1.35154c-.65515-1.57194,4.04666-6.34238,5.09705-7.25118,1.98043-1.71345,3.95194-2.90794,5.71366-4.93775C115.2315,7.89149,118.79453,2.11629,124.856,0Z"/><path class="cls-4" d="M147.2101,10.38555a5.974,5.974,0,0,0-1.06366,6.19869,5.97394,5.97394,0,0,0,5.181,3.56537,9.65711,9.65711,0,0,1-2.88149-7.69123c2.559-.41664,4.84236,1.55337,6.58965,3.46884a70.69891,70.69891,0,0,1,7.35049,9.59138c2.48206,3.88711,4.61517,8.05918,7.80306,11.392s7.76514,5.77237,12.3116,4.99783c6.01427-1.0246,9.96442-7.64881,9.42571-13.7259s-4.62893-11.36307-9.56632-14.94684a34.57791,34.57791,0,0,0-27.199-5.74555,7.04086,7.04086,0,0,1-3.02732.24519A2.12914,2.12914,0,0,1,150.36245,5.586c.30111-2.01057,3.86178-1.79844,4.50065-3.72845a4.73948,4.73948,0,0,0-6.87859,2.41582c-.52695,1.73681-.4336,4.26614-2.218,4.5982A3.29573,3.29573,0,0,1,143.239,7.77889a3.23492,3.23492,0,0,0-2.52926-1.06862C137.54461,7.35146,144.40949,11.23611,147.2101,10.38555Z"/><path class="cls-1" d="M119.92023,29.46452a7.3086,7.3086,0,0,0-7.51541,7.10049c.01325.882.494,2.00074,1.36949,1.893a1.696,1.696,0,0,0,.87189-.495c2.2398-2.00035,4.31964-4.84892,7.32243-4.81158l-6.92745,5.11305a2.25305,2.25305,0,0,0-.95029,1.09609,1.65255,1.65255,0,0,0,.45453,1.468c1.50254,1.71964,4.34694,1.17129,6.28253-.04042,2.45191-1.53494,4.4627-4.209,4.20205-7.09s-3.62414-5.33484-6.16882-3.95916"/><path class="cls-1" d="M257.71142,75.20081a13.13836,13.13836,0,0,0,5.74392,3.94936,25.62663,25.62663,0,0,0,20.62357-.92442,4.39507,4.39507,0,0,0,1.635-1.20489,1.693,1.693,0,0,0,.1532-1.91376l-3.49365,1.88761a1.95424,1.95424,0,0,0-2.936-1.27437c-.74337.54317-1.13537,1.653-2.04987,1.75944-1.29232.15039-2.17964-1.90866-3.42334-1.52666-.87612.2691-1.04925,1.567-1.89833,1.91206-.84133.34189-1.69551-.46032-2.16864-1.23548s-.9879-1.71132-1.88958-1.81945c-.80271-.09626-1.486.52508-2.12716,1.01754s-1.58581.88219-2.20981.36815c-.69817-.57513-.354-1.70554-.62562-2.56836a2.42159,2.42159,0,0,0-2.25907-1.49244,7.10353,7.10353,0,0,0-2.78832.65556c.37038-.1425-.91207-3.14018-1.09249-3.35923C255.16206,70.56672,256.65242,73.82026,257.71142,75.20081Z"/><path class="cls-1" d="M204.48537,24.03726a3.72379,3.72379,0,0,0-3.37821,2.81941,6.347,6.347,0,0,0,3.51517,7.26549,8.2343,8.2343,0,0,0,8.2894-1.20215,5.214,5.214,0,0,0,2.14021-3.26089,2.778,2.778,0,0,0-1.91128-3.09642c-1.93047-.40908-4.12392,1.78207-5.67684.56449-.70668-.55407-.83072-1.56016-1.277-2.33942s-1.751-1.23933-2.14564-.43269"/><path class="cls-2" d="M1.69366,126.24606a9.83056,9.83056,0,0,0-1.59968,6.427c.38688,2.22037,2.40255,4.26728,4.64116,4.00586,2.16392-.25269,3.54338-2.33077,4.97389-3.974.50409-.579,1.25517-1.17269,1.96215-.87343a1.84724,1.84724,0,0,1,.79339.85275c1.98,3.44953,2.7154,7.7194,5.62577,10.43036a8.80065,8.80065,0,0,0,14.18946-3.22109c.69321-1.76414.62075-4.123-.96948-5.15446-2.01781-1.30877-4.5504.41987-6.90188.92484-4.23623.90972-8.69486-3.35824-7.971-7.63016a2.54676,2.54676,0,0,1,.4409-1.15809,3.66294,3.66294,0,0,1,2.14782-.9795,11.83954,11.83954,0,0,0,7.85282-6.5472,3.16529,3.16529,0,0,0,.35835-1.49616c-.11375-1.56919-2.00531-2.25469-3.5519-2.54343-3.603-.67265-11.03438-3.22533-14.58308-1.4444C5.67741,115.58379,3.57771,122.9762,1.69366,126.24606Z"/><path class="cls-4" d="M287.05157,145.48589a18.78851,18.78851,0,0,0-3.29032,7.62249,3.858,3.858,0,0,0-2.97743-2.54782c-1.89948-.12413-3.25633,1.87553-3.66483,3.73472-.69521,3.164.52625,7.0114,3.54481,8.18732,3.14663,1.22582,6.69832-.93995,8.60426-3.72766a6.37641,6.37641,0,0,0,1.25277-3.13342,3.06893,3.06893,0,0,0-1.43143-2.89975c-1.35346-.7236-2.99834-.01-4.35443.70872.49425-.26193,1.85381-4.82151,2.44711-5.64611,1.0431-1.44973,3.30561-2.75522,3.46057-4.46431C289.0495,143.1904,287.95294,144.25275,287.05157,145.48589Z"/><path class="cls-1" d="M18.42318,86.59828c2.77033.06569,5.45629-.033,7.89,1.29229s4.216,4.291,3.25894,6.89155a6.85317,6.85317,0,0,1-3.58,3.47745,11.18735,11.18735,0,0,1-8.83621.75787,7.45468,7.45468,0,0,1-4.91771-6.97672c.15944-3.03837,3.23789-5.48039,6.40313-5.43763m2.17857,5.0485c.21285-1.851-.19841-2.47911-1.91717-3.21665-1.99931-.85794-4.18929,1.82971-3.85059,3.97879.17619,1.11795,1.08845,1.65787,2.1874,1.92831s3.55064-1.5591,3.58036-2.69045"/><path class="cls-4" d="M39.08328,94.38964c3.962-4.28081,5.5613-2.63568,10.50829-.49563a284.16593,284.16593,0,0,1,30.55435,15.353c3.35246,1.95748,6.74769,4.05665,9.29235,7.32333s4.11543,7.9664,3.11294,12.2705a11.77734,11.77734,0,0,1-9.18148,8.7066c-4.06855.79738-8.21541-.32374-12.20012-1.5907a174.24724,174.24724,0,0,1-33.81644-14.9174,9.5737,9.5737,0,0,1-3.31059-2.66548c-1.50025-2.14339-1.51262-5.2512-1.14654-8.014C33.5999,105.04786,35.63547,98.11484,39.08328,94.38964Zm4.89725,3.08457a28.04272,28.04272,0,0,0,1.70582,22.53313A46.91789,46.91789,0,0,0,44.638,95.72261l-.65747,1.7516m9.89731,4.40056a39.627,39.627,0,0,0,4.8239,23.924,37.55216,37.55216,0,0,0-4.641-26.41908c-.03943.87785-.14351,1.61726-.18294,2.49511m12.02446,6.59269A51.35843,51.35843,0,0,0,70.082,130.27608,33.60114,33.60114,0,0,0,67.01556,105.41a5.06,5.06,0,0,0-1.11326,3.05747"/><path class="cls-1" d="M37.16313,51.07516a2.24073,2.24073,0,0,0,.81862,2.13393c.58511.54911,1.30762.94339,1.85439,1.5307,3.04045,3.26578-1.30584,9.1892,1.20946,12.8747a5.74241,5.74241,0,0,1,.89761,1.39858c.42211,1.33457-.88757,2.77053-.45152,4.1006.41774,1.27424,2.17116,1.656,2.72025,2.87942.59731,1.33087-.51142,2.98832.12163,4.30256.72234,1.49961,3.083,1.38568,4.05322,2.7382.597.83226.54955,2.08291,1.35465,2.71609,1.00417.78973,2.46.03166,3.73351.133,1.59078.12658,2.69559,1.55878,3.82955,2.6816s2.98945,2.03291,4.23888,1.04018c.99524-.79077.94752-2.32835.53885-3.532a11.047,11.047,0,0,1-1.06461-3.635c.03363-1.64093,1.23118-3.01588,1.66671-4.59832s-.71925-3.84059-2.26244-3.28168a4.20561,4.20561,0,0,0-1.48241-6.25642c-.82385-.35672-1.85693-.50781-2.29411-1.29194-.40913-.73382-.08908-1.721-.52394-2.4399-.79379-1.31222-3.19762-.55661-4.0571-1.82678a4.47961,4.47961,0,0,1-.42285-1.167c-.88948-2.72773-4.4323-3.1998-7.0423-4.39153C42.78573,56.35607,37.742,49.08617,37.16313,51.07516Z"/><path class="cls-1" d="M307.09093,94.79665c2.68037-.88114,6.21863.19338,6.994,2.90622l-12.38881,4.11466a16.52827,16.52827,0,0,1,12.30027,7.09121c-1.94059,1.80046-5.10715,1.29547-7.42048.00859s-4.2647-3.21982-6.72936-4.18573a15.64564,15.64564,0,0,0-5.35392-.87515c-8.788-.2104-17.56924,2.33445-26.29212,1.24636-7.97592-.99492-15.23684-4.94068-22.27993-8.81367-.52184-.287-1.09716-.64347-1.21635-1.227s.66041-1.22422,1.06351-.78585a4.00968,4.00968,0,0,0-2.17733-2.19018c3.26754-3.55293,8.79638-3.50457,13.6075-3.11306,9.1091.74126,18.26443,1.78174,27.1004,4.20306a98.79066,98.79066,0,0,1,12.73941,4.7087C302.65438,100.28415,301.89076,96.50615,307.09093,94.79665Zm-56.4678-3.28117a1.6681,1.6681,0,1,0,.79674,2.7772,1.7577,1.7577,0,0,0-.79674-2.7772"/><path class="cls-1" d="M142.277,32.04939c-.86437-3.04671-1.56855-6.13951-2.13957-9.2543a10.16309,10.16309,0,0,1,3.27245,9.31428,35.214,35.214,0,0,1,4.38473-7.24875,14.52847,14.52847,0,0,1-3.18688,7.89562,10.60659,10.60659,0,0,1,7.16464-3.61419q-3.08419,2.34708-6.2765,4.54739a3.938,3.938,0,0,1,5.186,1.22412,6.16273,6.16273,0,0,1,.40848,5.66252,15.054,15.054,0,0,1-3.37717,4.80271,57.54531,57.54531,0,0,1-7.65371,6.7244c-1.64316,1.20349-3.69165,2.37047-5.61123,1.68962-2.27122-.80556-2.9555-3.64648-3.145-6.04886a57.53689,57.53689,0,0,1,.04622-9.59519c.27843-3.14332,1.11108-6.7,3.89332-8.189C137.72594,28.6308,140.808,29.83959,142.277,32.04939Z"/><path class="cls-1" d="M231.67162,28.72253c1.04347-1.28788,2.78851-2.65466,4.16081-1.725-.2595-3.98656,3.31589-7.50737,7.25192-8.19122s7.9637.91485,11.20645,3.24822a15.23962,15.23962,0,0,1,5.43149,6.37091,8.42111,8.42111,0,0,1-.70972,8.08311,2.14046,2.14046,0,0,0-.62571,1.31934c.048.69775.81451,1.07709,1.25353,1.62154.8281,1.02695.42008,2.53867-.05987,3.7675a70.78362,70.78362,0,0,1-6.004,11.91381c-.8021,1.27581-1.79037,2.629-3.26434,2.94275a5.94128,5.94128,0,0,1-3.26186-.56341L230.62,51.31361a19.60118,19.60118,0,0,1-5.78014-2.94924C218.48985,43.07571,227.972,33.28877,231.67162,28.72253Z"/><path class="cls-4" d="M289.19413,72.35406A18.44892,18.44892,0,0,0,276.87107,68.11c-2.4107.08035-4.87281.63249-7.19922-.00452-4.74556-1.29942-6.919-7.476-5.0825-12.04066s6.58007-7.42353,11.4025-8.39975A23.07148,23.07148,0,0,1,303.461,73.15364c-.24423,1.9441-.83347,4.00895-2.393,5.19512-1.98419,1.50916-4.94448,1.03863-6.9662-.41987a17.68268,17.68268,0,0,1-4.90769-5.57483m-18.028-10.12493a5.89438,5.89438,0,0,0,1.55578.72624,3.5489,3.5489,0,1,0-1.80652-1.14275"/><path class="cls-2" d="M291.15785,88.86965c.41207-3.87258,5.907-6.21178,8.73288-3.532,1.56068,1.48,1.70378,4.52452-.20811,5.50975s-4.30007-2.28528-2.4586-3.39658c-.32187-1.01014-1.94566-.61986-2.52224.26982s-.7577,2.07736-1.61375,2.70279-2.0313-.6111-1.93018-1.55373"/><path class="cls-3" d="M19.80481,378.03424a7.253,7.253,0,0,1-.78541.4465,6.29742,6.29742,0,0,1-1.24056.45486,5.82,5.82,0,0,1-1.5962.17364,6.49356,6.49356,0,0,1-2.53073-.50447,5.602,5.602,0,0,1-1.902-1.3232,5.96144,5.96144,0,0,1-1.19931-1.91867,6.30608,6.30608,0,0,1-.4217-2.30734,7.07827,7.07827,0,0,1,.43006-2.514,5.80141,5.80141,0,0,1,1.22412-1.9765,5.57479,5.57479,0,0,1,1.8855-1.29839,6.037,6.037,0,0,1,2.38162-.46323,6.3396,6.3396,0,0,1,2.0427.306,7.37347,7.37347,0,0,1,1.51342.68648l-.7609,1.80286a7.82355,7.82355,0,0,0-1.15778-.6285,3.77235,3.77235,0,0,0-1.5711-.31439,3.71594,3.71594,0,0,0-1.52179.32261,3.85233,3.85233,0,0,0-1.27344.90973,4.53513,4.53513,0,0,0-.86848,1.36444,4.36314,4.36314,0,0,0-.32247,1.6872,5.03492,5.03492,0,0,0,.2893,1.73667,3.92009,3.92009,0,0,0,.82723,1.36459,3.80738,3.80738,0,0,0,1.28989.89314,4.42968,4.42968,0,0,0,4.45777-.62028Z"/><path class="cls-3" d="M23.19537,366.93582h7.9888v1.85248H25.13048v3.2087h5.3923v1.85248h-5.3923v3.275h6.2853V378.977H23.19537Z"/><path class="cls-3" d="M45.49114,379.40705l-9.2458-8.96472.56245.23147.04961,8.30319H34.90556V366.52235h.09922l9.097,8.96472-.4465-.13239-.03317-8.41886h1.91867v12.47123Z"/><path class="cls-3" d="M48.83209,366.93582h8.05514v1.85248H53.7776V378.977H51.85893V368.7883H48.83209Z"/><path class="cls-3" d="M63.55268,366.93582a6.12353,6.12353,0,0,1,1.81945.25642,3.90914,3.90914,0,0,1,1.40584.75253,3.41942,3.41942,0,0,1,.90136,1.21561,3.98315,3.98315,0,0,1,.32276,1.64581,4.89135,4.89135,0,0,1-.21518,1.42242,3.5223,3.5223,0,0,1-.70291,1.28181,3.57546,3.57546,0,0,1-1.28181.92631,4.81153,4.81153,0,0,1-1.96828.35564H62.09724V378.977H60.16212V366.93582Zm.26478,6.00407a2.4732,2.4732,0,0,0,1.075-.2068,1.80252,1.80252,0,0,0,.66975-.52106,2.10225,2.10225,0,0,0,.34757-.66989,2.32157,2.32157,0,0,0,.10729-.66975,2.44039,2.44039,0,0,0-.09922-.65345,2.06211,2.06211,0,0,0-.33891-.67811,1.87573,1.87573,0,0,0-.65331-.5375,2.24942,2.24942,0,0,0-1.04211-.215H62.09724v4.15159Zm2.084,1.1412,3.07645,4.8959H66.74508l-3.14279-4.84629Z"/><path class="cls-3" d="M70.99576,372.97292a5.88849,5.88849,0,0,1,.47967-2.36517,6.43816,6.43816,0,0,1,1.32334-1.96828,6.19,6.19,0,0,1,1.95992-1.348,6.05585,6.05585,0,0,1,4.76351,0,6.295,6.295,0,0,1,1.96828,1.348,6.49816,6.49816,0,0,1,1.33978,1.96828,5.80786,5.80786,0,0,1,.48775,2.36517,5.90473,5.90473,0,0,1-.48775,2.39,6.26345,6.26345,0,0,1-1.33978,1.96006,6.19785,6.19785,0,0,1-1.96828,1.315,6.27487,6.27487,0,0,1-4.77188,0,6.18737,6.18737,0,0,1-1.95155-1.30676,6.108,6.108,0,0,1-1.32334-1.9517A6.02934,6.02934,0,0,1,70.99576,372.97292Zm1.98472,0a4.31159,4.31159,0,0,0,.32276,1.67047,4.24455,4.24455,0,0,0,2.24114,2.28254,4.09787,4.09787,0,0,0,1.65389.33083,3.96,3.96,0,0,0,1.61265-.33083,4.06748,4.06748,0,0,0,1.315-.918,4.3802,4.3802,0,0,0,.88492-1.36459,4.31656,4.31656,0,0,0,.32247-1.67047,4.26287,4.26287,0,0,0-.33083-1.68706,4.61521,4.61521,0,0,0-.893-1.37281,3.99229,3.99229,0,0,0-1.32334-.92631,4.1135,4.1135,0,0,0-4.60631.92631,4.26307,4.26307,0,0,0-.88492,1.381A4.47494,4.47494,0,0,0,72.98048,372.97292Z"/><path class="cls-3" d="M95.21626,378.977V366.93582H98.64a7.68093,7.68093,0,0,1,3.05165.54587,5.58784,5.58784,0,0,1,2.0427,1.43886,5.66393,5.66393,0,0,1,1.133,1.99309,7.14229,7.14229,0,0,1,.35564,2.20811,5.90456,5.90456,0,0,1-.47967,2.43137,5.55021,5.55021,0,0,1-1.315,1.84426,5.80716,5.80716,0,0,1-1.91839,1.17436,6.48457,6.48457,0,0,1-2.291.40525Zm1.93511-1.85247H98.8716a5.36476,5.36476,0,0,0,1.7534-.273,4.02656,4.02656,0,0,0,1.381-.79392,3.50166,3.50166,0,0,0,.90973-1.29839,5.09859,5.09859,0,0,0-.04962-3.69659,3.69833,3.69833,0,0,0-.97606-1.30675,4.07158,4.07158,0,0,0-1.31469-.74431,4.38952,4.38952,0,0,0-1.40612-.23984h-2.0179Z"/><path class="cls-3" d="M108.6138,366.93582h7.98879v1.85248h-6.05368v3.2087h5.392v1.85248h-5.392v3.275h6.2853V378.977H108.6138Z"/><path class="cls-3" d="M139.41669,379.40705l-9.2458-8.96472.56216.23147.04961,8.30319H128.8311V366.52235h.09923l9.097,8.96472-.4465-.13239-.03317-8.41886h1.91868v12.47123Z"/><path class="cls-3" d="M145.35442,374.64339a2.41549,2.41549,0,0,0,.37237,1.30676,2.72166,2.72166,0,0,0,2.3568,1.29017,2.89207,2.89207,0,0,0,1.42257-.34742,2.63383,2.63383,0,0,0,.99222-.94275,2.45852,2.45852,0,0,0,.364-1.30676v-7.70757h1.90194v7.75733a4.24546,4.24546,0,0,1-.6285,2.30734,4.32434,4.32434,0,0,1-1.68706,1.55467,5.29,5.29,0,0,1-4.7139,0,4.22355,4.22355,0,0,1-2.29911-3.862v-7.75733h1.91867Z"/><path class="cls-3" d="M155.84078,366.93582h8.05513v1.85248h-3.10962V378.977h-1.91867V368.7883h-3.02684Z"/><path class="cls-3" d="M170.56137,366.93582a6.12353,6.12353,0,0,1,1.81945.25642,3.909,3.909,0,0,1,1.40583.75253,3.41919,3.41919,0,0,1,.90136,1.21561,3.983,3.983,0,0,1,.32276,1.64581,4.89167,4.89167,0,0,1-.21517,1.42242,3.52217,3.52217,0,0,1-.70292,1.28181,3.57533,3.57533,0,0,1-1.2818.92631,4.81155,4.81155,0,0,1-1.96829.35564h-1.73667V378.977h-1.93511V366.93582Zm.26478,6.00407a2.4732,2.4732,0,0,0,1.075-.2068,1.80252,1.80252,0,0,0,.66975-.52106,2.102,2.102,0,0,0,.34756-.66989,2.32126,2.32126,0,0,0,.1073-.66975,2.44039,2.44039,0,0,0-.09922-.65345,2.06211,2.06211,0,0,0-.33891-.67811,1.87573,1.87573,0,0,0-.65331-.5375,2.24944,2.24944,0,0,0-1.04212-.215h-1.78628v4.15159Zm2.08395,1.1412,3.07645,4.8959h-2.23278L170.611,374.1307Z"/><path class="cls-3" d="M179.07944,366.93582h1.93512V378.977h-1.93512Z"/><path class="cls-3" d="M194.081,378.03424a7.253,7.253,0,0,1-.78541.4465,6.29742,6.29742,0,0,1-1.24056.45486,5.82,5.82,0,0,1-1.5962.17364,6.4936,6.4936,0,0,1-2.53073-.50447,5.60206,5.60206,0,0,1-1.90195-1.3232,5.96161,5.96161,0,0,1-1.19931-1.91867,6.30607,6.30607,0,0,1-.42169-2.30734,7.07827,7.07827,0,0,1,.43-2.514,5.80156,5.80156,0,0,1,1.22412-1.9765,5.57473,5.57473,0,0,1,1.88551-1.29839,6.03687,6.03687,0,0,1,2.38161-.46323,6.3396,6.3396,0,0,1,2.0427.306,7.37347,7.37347,0,0,1,1.51342.68648l-.76089,1.80286a7.82457,7.82457,0,0,0-1.15778-.6285,3.77243,3.77243,0,0,0-1.57111-.31439,3.71594,3.71594,0,0,0-1.52179.32261,3.85243,3.85243,0,0,0-1.27344.90973,4.53551,4.53551,0,0,0-.86848,1.36444,4.36332,4.36332,0,0,0-.32247,1.6872,5.03492,5.03492,0,0,0,.2893,1.73667,3.92009,3.92009,0,0,0,.82723,1.36459,3.80738,3.80738,0,0,0,1.28989.89314,4.42968,4.42968,0,0,0,4.45777-.62028Z"/><path class="cls-3" d="M197.47153,366.93582h1.93511V378.977h-1.93511Z"/><path class="cls-3" d="M202.79749,372.97292a5.88375,5.88375,0,0,1,.47967-2.36517,6.43747,6.43747,0,0,1,1.323-1.96828,6.19665,6.19665,0,0,1,1.95992-1.348,6.05655,6.05655,0,0,1,4.7638,0,6.29366,6.29366,0,0,1,1.968,1.348,6.493,6.493,0,0,1,1.33978,1.96828,5.80807,5.80807,0,0,1,.488,2.36517,5.90493,5.90493,0,0,1-.488,2.39,6.24106,6.24106,0,0,1-3.30778,3.275,6.27484,6.27484,0,0,1-4.77187,0,6.18857,6.18857,0,0,1-1.95185-1.30676,6.10736,6.10736,0,0,1-1.323-1.9517A6.02453,6.02453,0,0,1,202.79749,372.97292Zm1.98473,0a4.31656,4.31656,0,0,0,.32247,1.67047,4.24455,4.24455,0,0,0,2.24114,2.28254A4.09827,4.09827,0,0,0,209,377.25676a3.95992,3.95992,0,0,0,1.61264-.33083,4.07074,4.07074,0,0,0,1.315-.918,4.37428,4.37428,0,0,0,.88463-1.36459,4.31159,4.31159,0,0,0,.32276-1.67047,4.2678,4.2678,0,0,0-.33084-1.68706,4.616,4.616,0,0,0-.89328-1.37281,3.99132,3.99132,0,0,0-1.323-.92631,4.11438,4.11438,0,0,0-4.60661.92631,4.2634,4.2634,0,0,0-.88492,1.381A4.48068,4.48068,0,0,0,204.78222,372.97292Zm6.94668-8.88194-2.24922,2.21634h-1.14134l1.33978-2.21634Z"/><path class="cls-3" d="M229.09617,379.40705l-9.2458-8.96472.56216.23147.04961,8.30319h-1.95155V366.52235h.09922l9.097,8.96472-.4465-.13239-.03317-8.41886h1.91867v12.47123Z"/><path class="cls-3" d="M244.98,375.07345l-4.4494-8.13763h2.36517l3.39085,6.48374-.57889.033,3.34094-6.51677h2.36546l-4.51545,8.13763V378.977H244.98Z"/><path class="cls-3" d="M269.1013,369.38377a9.58284,9.58284,0,0,0-1.37266-.57067,4.44772,4.44772,0,0,0-1.38939-.23983,2.279,2.279,0,0,0-1.4142.397,1.29641,1.29641,0,0,0-.52121,1.09159,1.21724,1.21724,0,0,0,.35564.86833,3.13806,3.13806,0,0,0,.92646.64509q.57024.27277,1.199.52105a9.76751,9.76751,0,0,1,1.08336.47131,4.27564,4.27564,0,0,1,.9677.66989,2.80918,2.80918,0,0,1,.67811.98414,3.72665,3.72665,0,0,1,.24806,1.44723,3.29776,3.29776,0,0,1-.47131,1.72845,3.33693,3.33693,0,0,1-1.36459,1.24878,4.66038,4.66038,0,0,1-2.16672.46308,6.59233,6.59233,0,0,1-1.48054-.16542,7.31531,7.31531,0,0,1-1.36459-.45486,8.13941,8.13941,0,0,1-1.19066-.65331l.86011-1.505a5.50429,5.50429,0,0,0,.90973.54572,6.11049,6.11049,0,0,0,1.05856.397,3.90469,3.90469,0,0,0,1.02538.14883,3.10888,3.10888,0,0,0,1.01732-.17364,1.96465,1.96465,0,0,0,.84338-.55408,1.46071,1.46071,0,0,0,.3392-1.00895,1.36711,1.36711,0,0,0-.28959-.8767,2.62648,2.62648,0,0,0-.769-.63672,7.60153,7.60153,0,0,0-1.04211-.48789q-.56245-.21481-1.14134-.47967a5.539,5.539,0,0,1-1.08337-.65345,3.081,3.081,0,0,1-.81858-.951,2.81122,2.81122,0,0,1-.31439-1.38939,3.13413,3.13413,0,0,1,.46323-1.72009,3.30677,3.30677,0,0,1,1.2818-1.15792,4.30851,4.30851,0,0,1,1.89387-.46308,6.80677,6.80677,0,0,1,2.1748.306,7.77786,7.77786,0,0,1,1.59621.73594Z"/><path class="cls-3" d="M271.979,378.977l5.32568-12.53742h.11595l5.32567,12.53742H280.53l-3.73783-9.52716,1.37266-.92617L273.86453,378.977Zm3.341-4.48243h4.11857l.66138,1.654h-5.35884Z"/><path class="cls-3" d="M285.62433,366.93582h1.93511v10.1887h5.92129V378.977h-7.8564Z"/><path class="cls-3" d="M298.608,374.64339a2.41558,2.41558,0,0,0,.37237,1.30676,2.7217,2.7217,0,0,0,2.35681,1.29017,2.892,2.892,0,0,0,1.42256-.34742,2.63376,2.63376,0,0,0,.99222-.94275,2.45853,2.45853,0,0,0,.364-1.30676v-7.70757h1.90194v7.75733a4.24554,4.24554,0,0,1-.6285,2.30734,4.32448,4.32448,0,0,1-1.68706,1.55467,5.29,5.29,0,0,1-4.7139,0,4.22353,4.22353,0,0,1-2.29912-3.862v-7.75733H298.608Z"/><path class="cls-3" d="M309.95444,378.977V366.93582h3.42372a7.6809,7.6809,0,0,1,3.05165.54587,5.58775,5.58775,0,0,1,2.0427,1.43886,5.664,5.664,0,0,1,1.133,1.99309,7.14229,7.14229,0,0,1,.35564,2.20811,5.90472,5.90472,0,0,1-.47967,2.43137,5.55038,5.55038,0,0,1-1.315,1.84426,5.80722,5.80722,0,0,1-1.91838,1.17436,6.48458,6.48458,0,0,1-2.29105.40525Zm1.93511-1.85247h1.72023a5.36476,5.36476,0,0,0,1.7534-.273,4.02656,4.02656,0,0,0,1.381-.79392,3.50153,3.50153,0,0,0,.90972-1.29839,5.09865,5.09865,0,0,0-.04961-3.69659,3.69845,3.69845,0,0,0-.97606-1.30675,4.07158,4.07158,0,0,0-1.31469-.74431,4.38953,4.38953,0,0,0-1.40613-.23984h-2.01789Z"/><path class="cls-3" d="M21.60652,487.50516l-9.2458-8.96472.56231.23161.04961,8.30305h-1.9517V474.62046h.09922l9.097,8.96472-.4465-.13225-.03317-8.419h1.91867v12.47123Z"/><path class="cls-3" d="M27.54425,482.74165a2.4162,2.4162,0,0,0,.37223,1.30661,2.72129,2.72129,0,0,0,2.357,1.29017,2.89273,2.89273,0,0,0,1.42242-.34727,2.63362,2.63362,0,0,0,.99236-.9429,2.45918,2.45918,0,0,0,.36386-1.30661v-7.70772h1.90209v7.75733a4.246,4.246,0,0,1-.6285,2.30734,4.32467,4.32467,0,0,1-1.68706,1.55481,5.29,5.29,0,0,1-4.7139,0,4.22329,4.22329,0,0,1-2.29912-3.86215v-7.75733h1.91867Z"/><path class="cls-3" d="M38.03076,475.03393h8.055v1.85248H42.97627V487.0751H41.0576V476.88641H38.03076Z"/><path class="cls-3" d="M52.75121,475.03393a6.12982,6.12982,0,0,1,1.81945.25642,3.91257,3.91257,0,0,1,1.40583.75253,3.42157,3.42157,0,0,1,.90136,1.21575,3.98472,3.98472,0,0,1,.32262,1.64567,4.89723,4.89723,0,0,1-.215,1.42257,3.52556,3.52556,0,0,1-.70292,1.2818,3.57565,3.57565,0,0,1-1.28195.92617,4.81083,4.81083,0,0,1-1.96814.35564H51.29562v4.18462H49.3605V475.03393Zm.26464,6.00407a2.476,2.476,0,0,0,1.07514-.20666,1.80782,1.80782,0,0,0,.66975-.52106,2.10452,2.10452,0,0,0,.34742-.66989,2.32292,2.32292,0,0,0,.10744-.66989,2.44545,2.44545,0,0,0-.09922-.65331,2.06547,2.06547,0,0,0-.33906-.67811,1.87629,1.87629,0,0,0-.65331-.53764,2.25055,2.25055,0,0,0-1.042-.215H51.29562V481.038Zm2.08409,1.14134,3.07645,4.89576H55.94347L52.80082,482.229Z"/><path class="cls-3" d="M61.26943,475.03393h1.93511V487.0751H61.26943Z"/><path class="cls-3" d="M66.47929,487.0751q.11551-.16506.45486-.66989.33877-.50426.82695-1.24878.48781-.74416,1.05856-1.63745.57066-.893,1.18273-1.82767.61155-.9341,1.1908-1.81931.5789-.88478,1.06678-1.621.48781-.73573.81887-1.24042.33054-.50448.4465-.65345l.23161.52928H68.69563a1.82843,1.82843,0,0,1-.66989-.13225,1.45079,1.45079,0,0,1-.56231-.38045.8381.8381,0,0,1-.22325-.57889V474.422h1.78628v.23162q0,.31432.11581.34727a1.62475,1.62475,0,0,0,.39689.033h7.013l-6.9138,10.42031-.11566-.23162H76.6514v1.85248Z"/><path class="cls-3" d="M80.00879,475.03393H81.9439V487.0751H80.00879Z"/><path class="cls-3" d="M85.33461,481.07117a5.88678,5.88678,0,0,1,.47966-2.36531,6.44145,6.44145,0,0,1,1.3232-1.96829,6.19581,6.19581,0,0,1,1.95992-1.348,6.05781,6.05781,0,0,1,4.76366,0,6.29671,6.29671,0,0,1,1.96813,1.348,6.49927,6.49927,0,0,1,1.33979,1.96829,5.80879,5.80879,0,0,1,.48789,2.36531,5.90548,5.90548,0,0,1-.48789,2.39,6.2604,6.2604,0,0,1-1.33979,1.95992,6.19459,6.19459,0,0,1-1.96813,1.315,6.27315,6.27315,0,0,1-4.77188,0,6.18763,6.18763,0,0,1-1.9517-1.30662,6.10777,6.10777,0,0,1-1.3232-1.9517A6.02738,6.02738,0,0,1,85.33461,481.07117Zm1.98472,0a4.31539,4.31539,0,0,0,.32261,1.67048,4.24455,4.24455,0,0,0,2.24115,2.28253,4.10059,4.10059,0,0,0,1.654.33084,3.96236,3.96236,0,0,0,1.61264-.33084,4.07125,4.07125,0,0,0,1.315-.91794,4.37757,4.37757,0,0,0,.88478-1.36459,4.3152,4.3152,0,0,0,.32261-1.67048,4.26553,4.26553,0,0,0-.33083-1.6872,4.61778,4.61778,0,0,0-.89314-1.37281,3.99127,3.99127,0,0,0-1.3232-.92616,4.11436,4.11436,0,0,0-4.60646.92616,4.26369,4.26369,0,0,0-.88492,1.38117A4.47728,4.47728,0,0,0,87.31933,481.07117Z"/><path class="cls-3" d="M109.331,475.03393h7.9888v1.85248h-6.05368v3.20884h5.39215v1.85248h-5.39215v3.27489h6.28529v1.85248H109.331Z"/><path class="cls-3" d="M120.18093,475.03393h8.055v1.85248h-3.10948V487.0751h-1.91867V476.88641h-3.02684Z"/><path class="cls-3" d="M129.29448,487.0751l5.32581-12.53728h.11581l5.32582,12.53728h-2.21634l-3.738-9.527,1.37281-.92631L131.18,487.0751Zm3.34094-4.48229H136.754l.66153,1.654h-5.359Z"/><path class="cls-3" d="M150.47891,481.07117a5.887,5.887,0,0,1,.47966-2.36531,6.44145,6.44145,0,0,1,1.3232-1.96829,6.19581,6.19581,0,0,1,1.95992-1.348,6.05781,6.05781,0,0,1,4.76366,0,6.29686,6.29686,0,0,1,1.96814,1.348,6.49942,6.49942,0,0,1,1.33978,1.96829,5.80863,5.80863,0,0,1,.48789,2.36531,5.90532,5.90532,0,0,1-.48789,2.39,6.26054,6.26054,0,0,1-1.33978,1.95992,6.19474,6.19474,0,0,1-1.96814,1.315,6.27315,6.27315,0,0,1-4.77188,0,6.18763,6.18763,0,0,1-1.9517-1.30662,6.10777,6.10777,0,0,1-1.3232-1.9517A6.02755,6.02755,0,0,1,150.47891,481.07117Zm1.98472,0a4.31521,4.31521,0,0,0,.32262,1.67048,4.24448,4.24448,0,0,0,2.24114,2.28253,4.10059,4.10059,0,0,0,1.654.33084,3.96236,3.96236,0,0,0,1.61264-.33084,4.07125,4.07125,0,0,0,1.315-.91794,4.37757,4.37757,0,0,0,.88478-1.36459,4.3152,4.3152,0,0,0,.32261-1.67048,4.26553,4.26553,0,0,0-.33083-1.6872,4.61778,4.61778,0,0,0-.89314-1.37281,3.99127,3.99127,0,0,0-1.3232-.92616,4.11436,4.11436,0,0,0-4.60646.92616,4.26385,4.26385,0,0,0-.88492,1.38117A4.47728,4.47728,0,0,0,152.46363,481.07117Z"/><path class="cls-3" d="M172.51018,477.48188a9.61089,9.61089,0,0,0-1.37281-.57067,4.447,4.447,0,0,0-1.38939-.23983,2.2793,2.2793,0,0,0-1.4142.397,1.29667,1.29667,0,0,0-.52106,1.09158,1.21723,1.21723,0,0,0,.35564.86848,3.132,3.132,0,0,0,.92631.64494q.57046.273,1.199.52106a9.75761,9.75761,0,0,1,1.08336.47145,4.26811,4.26811,0,0,1,.96771.66989,2.80493,2.80493,0,0,1,.67811.984,3.725,3.725,0,0,1,.24805,1.44737,3.29645,3.29645,0,0,1-.4713,1.72845,3.33393,3.33393,0,0,1-1.36459,1.24864,4.65826,4.65826,0,0,1-2.16673.46322,6.59968,6.59968,0,0,1-1.48039-.16541,7.32631,7.32631,0,0,1-1.36459-.45487,8.169,8.169,0,0,1-1.19081-.6533l.86012-1.5052a5.51655,5.51655,0,0,0,.90972.54586,6.114,6.114,0,0,0,1.05856.39689,3.90028,3.90028,0,0,0,1.02539.149,3.10835,3.10835,0,0,0,1.01731-.17378,1.963,1.963,0,0,0,.84353-.55408,1.4604,1.4604,0,0,0,.33906-1.009,1.36662,1.36662,0,0,0-.28945-.87656,2.63162,2.63162,0,0,0-.76911-.63686,7.61985,7.61985,0,0,0-1.04212-.48789q-.56244-.21481-1.14119-.47967a5.53032,5.53032,0,0,1-1.08337-.6533,3.082,3.082,0,0,1-.81872-.95112,2.81067,2.81067,0,0,1-.31425-1.38925,3.13427,3.13427,0,0,1,.46308-1.72023,3.30546,3.30546,0,0,1,1.28181-1.15778,4.30949,4.30949,0,0,1,1.89387-.46308,6.80769,6.80769,0,0,1,2.17494.30588,7.78569,7.78569,0,0,1,1.59621.73609Z"/><path class="cls-3" d="M175.3879,487.0751l5.32582-12.53728h.11581l5.32581,12.53728H183.939l-3.738-9.527,1.3728-.92631-4.30042,10.45333Zm3.34095-4.48229h4.11857l.66153,1.654H178.15Z"/><path class="cls-3" d="M195.35168,477.48188a9.61185,9.61185,0,0,0-1.37281-.57067,4.44706,4.44706,0,0,0-1.3894-.23983,2.2793,2.2793,0,0,0-1.4142.397,1.29666,1.29666,0,0,0-.52105,1.09158,1.21719,1.21719,0,0,0,.35564.86848,3.13186,3.13186,0,0,0,.92631.64494q.57045.273,1.199.52106a9.75775,9.75775,0,0,1,1.08337.47145,4.26827,4.26827,0,0,1,.9677.66989,2.80493,2.80493,0,0,1,.67811.984,3.72481,3.72481,0,0,1,.248,1.44737,3.29645,3.29645,0,0,1-.4713,1.72845,3.33387,3.33387,0,0,1-1.36459,1.24864,4.65823,4.65823,0,0,1-2.16673.46322,6.59975,6.59975,0,0,1-1.48039-.16541,7.32631,7.32631,0,0,1-1.36459-.45487,8.16837,8.16837,0,0,1-1.1908-.6533l.86011-1.5052a5.51666,5.51666,0,0,0,.90973.54586,6.11361,6.11361,0,0,0,1.05855.39689,3.90034,3.90034,0,0,0,1.02539.149,3.10835,3.10835,0,0,0,1.01731-.17378,1.96293,1.96293,0,0,0,.84353-.55408,1.4604,1.4604,0,0,0,.33906-1.009,1.36662,1.36662,0,0,0-.28945-.87656,2.63149,2.63149,0,0,0-.76911-.63686,7.61929,7.61929,0,0,0-1.04212-.48789q-.56244-.21481-1.14119-.47967a5.53025,5.53025,0,0,1-1.08336-.6533,3.082,3.082,0,0,1-.81873-.95112,2.81067,2.81067,0,0,1-.31425-1.38925,3.13427,3.13427,0,0,1,.46308-1.72023,3.30546,3.30546,0,0,1,1.28181-1.15778,4.30952,4.30952,0,0,1,1.89387-.46308,6.80776,6.80776,0,0,1,2.175.30588,7.78584,7.78584,0,0,1,1.5962.73609Z"/><path class="cls-3" d="M201.22307,482.74165a2.41619,2.41619,0,0,0,.37222,1.30661,2.72129,2.72129,0,0,0,2.35695,1.29017,2.89273,2.89273,0,0,0,1.42242-.34727,2.63357,2.63357,0,0,0,.99237-.9429,2.45918,2.45918,0,0,0,.36386-1.30661v-7.70772H208.633v7.75733a4.246,4.246,0,0,1-.6285,2.30734,4.3246,4.3246,0,0,1-1.68706,1.55481,5.29,5.29,0,0,1-4.7139,0,4.22333,4.22333,0,0,1-2.29912-3.86215v-7.75733h1.91868Z"/><path class="cls-3" d="M223.15512,487.50516l-9.2458-8.96472.56231.23161.04961,8.30305h-1.9517V474.62046h.09922l9.097,8.96472-.4465-.13225-.03317-8.419h1.91867v12.47123Z"/><path class="cls-3" d="M234.7795,487.0751q.11553-.16506.45487-.66989.33876-.50426.82694-1.24878.48782-.74416,1.05856-1.63745.57067-.893,1.18273-1.82767.61155-.9341,1.1908-1.81931.57889-.88478,1.06678-1.621.48782-.73573.81887-1.24042.33056-.50448.4465-.65345l.23161.52928h-5.06132a1.82843,1.82843,0,0,1-.66989-.13225,1.45075,1.45075,0,0,1-.5623-.38045.83806.83806,0,0,1-.22325-.57889V474.422h1.78628v.23162q0,.31432.1158.34727a1.62481,1.62481,0,0,0,.39689.033h7.013l-6.9138,10.42031-.11566-.23162h7.12868v1.85248Z"/><path class="cls-3" d="M248.309,475.03393h7.9888v1.85248h-6.05369v3.20884h5.39216v1.85248h-5.39216v3.27489h6.2853v1.85248H248.309Z"/><path class="cls-3" d="M270.60492,487.50516l-9.2458-8.96472.5623.23161.04962,8.30305h-1.9517V474.62046h.09922l9.097,8.96472-.44649-.13225-.03317-8.419h1.91867v12.47123Z"/><path class="cls-3" d="M273.94587,475.03393h8.055v1.85248h-3.10948V487.0751h-1.91867V476.88641h-3.02684Z"/><path class="cls-3" d="M288.66631,475.03393a6.12973,6.12973,0,0,1,1.81945.25642,3.91262,3.91262,0,0,1,1.40584.75253,3.42169,3.42169,0,0,1,.90136,1.21575,3.98472,3.98472,0,0,1,.32261,1.64567,4.89755,4.89755,0,0,1-.215,1.42257,3.52556,3.52556,0,0,1-.70292,1.2818,3.57574,3.57574,0,0,1-1.28195.92617,4.81083,4.81083,0,0,1-1.96814.35564h-1.73682v4.18462h-1.93511V475.03393Zm.26464,6.00407a2.47606,2.47606,0,0,0,1.07515-.20666,1.8077,1.8077,0,0,0,.66974-.52106,2.10432,2.10432,0,0,0,.34742-.66989,2.32261,2.32261,0,0,0,.10745-.66989,2.44509,2.44509,0,0,0-.09923-.65331,2.06524,2.06524,0,0,0-.339-.67811,1.87629,1.87629,0,0,0-.65331-.53764,2.25055,2.25055,0,0,0-1.042-.215h-1.78643V481.038Zm2.08409,1.14134,3.07646,4.89576h-2.23293l-3.14265-4.84615Z"/><path class="cls-3" d="M296.10968,481.07117a5.88679,5.88679,0,0,1,.47967-2.36531,6.44142,6.44142,0,0,1,1.32319-1.96829,6.19593,6.19593,0,0,1,1.95992-1.348,6.05781,6.05781,0,0,1,4.76366,0,6.29686,6.29686,0,0,1,1.96814,1.348,6.49924,6.49924,0,0,1,1.33978,1.96829,5.80863,5.80863,0,0,1,.48789,2.36531,5.90532,5.90532,0,0,1-.48789,2.39,6.26037,6.26037,0,0,1-1.33978,1.95992,6.19474,6.19474,0,0,1-1.96814,1.315,6.27315,6.27315,0,0,1-4.77188,0,6.18774,6.18774,0,0,1-1.9517-1.30662,6.10774,6.10774,0,0,1-1.32319-1.9517A6.02739,6.02739,0,0,1,296.10968,481.07117Zm1.98472,0a4.31521,4.31521,0,0,0,.32262,1.67048,4.24448,4.24448,0,0,0,2.24114,2.28253,4.10059,4.10059,0,0,0,1.654.33084,3.96241,3.96241,0,0,0,1.61265-.33084,4.07121,4.07121,0,0,0,1.315-.91794,4.37757,4.37757,0,0,0,.88478-1.36459,4.31521,4.31521,0,0,0,.32262-1.67048,4.26553,4.26553,0,0,0-.33084-1.6872,4.61739,4.61739,0,0,0-.89314-1.37281A3.99127,3.99127,0,0,0,303.9,477.085a4.11438,4.11438,0,0,0-4.60646.92616,4.264,4.264,0,0,0-.88492,1.38117A4.47728,4.47728,0,0,0,298.0944,481.07117Z"/><path class="cls-3" d="M309.85435,487.0751l5.32582-12.53728h.1158l5.32582,12.53728h-2.21634l-3.738-9.527,1.37281-.92631-4.30043,10.45333Zm3.34095-4.48229h4.11857l.66152,1.654h-5.359Z"/></g></g></svg>