<?xml version="1.0" encoding="utf-8"?>
<!-- Generator: Adobe Illustrator 24.2.3, SVG Export Plug-In . SVG Version: 6.00 Build 0)  -->
<svg version="1.1" id="Capa_1" xmlns="http://www.w3.org/2000/svg" xmlns:xlink="http://www.w3.org/1999/xlink" x="0px" y="0px"
	 viewBox="0 0 492.53732 395.5224" style="enable-background:new 0 0 492.53732 395.5224;" xml:space="preserve">
<style type="text/css">
	.st0{fill:#B0B98B;}
	.st1{fill:#5E7254;}
</style>
<g>
	<path class="st0" d="M137.4268,14.24821c2.95792,0.0002,5.92609-0.15768,8.8718,0.03255
		c6.44789,0.4164,12.91164,0.86892,19.06094,3.12333c4.15707,1.52402,7.94101,3.66703,11.35712,6.54207
		c4.60228,3.87333,7.94493,8.69241,11.03024,13.75875c2.13234,3.50146,3.63252,7.28597,5.18353,11.05285
		c0.15193,0.369,0.2809,0.74778,0.44138,1.11285c0.21075,0.47942,0.58823,0.74837,1.11473,0.76667
		c0.47913,0.01665,0.95927,0.00531,1.43896,0.00529c2.23877-0.00011,4.47955,0.06049,6.71593-0.01309
		c5.38585-0.17721,10.66913,0.60878,15.92421,1.63306c4.8717,0.94957,9.64236,2.29366,14.20961,4.24712
		c6.12315,2.61896,11.86868,5.84739,16.97137,10.22453c4.79637,4.11433,8.64336,8.92076,11.77614,14.37344
		c3.99863,6.95957,6.30972,14.43379,7.36829,22.37245c0.6283,4.71207,0.58994,9.42719,0.25656,14.11133
		c-0.37463,5.26419-1.69113,10.38254-3.5769,15.34607c-2.05704,5.41429-4.79858,10.44374-8.12009,15.17204
		c-0.22974,0.32706-0.43402,0.67468-0.68756,0.98184c-0.56274,0.68185-0.64285,1.34546-0.27512,2.19768
		c1.30194,3.01709,2.17816,6.16428,2.79022,9.39758c0.95782,5.06,1.14267,10.1122,0.48492,15.23711
		c-0.82526,6.43047-2.8107,12.47064-5.86932,18.13495c-3.09698,5.73526-7.14658,10.77722-11.94327,15.20206
		c-8.4539,7.79868-18.30528,13.02481-29.40205,15.96278c-4.02127,1.06462-8.09695,1.90091-12.22159,2.34561
		c-3.40471,0.36708-6.82626,0.73137-10.2711,0.65392c-3.19666-0.0719-6.39948,0.02943-9.59142-0.11998
		c-2.70288-0.12651-5.39563-0.48767-8.08986-0.7735c-1.666-0.17682-3.32381-0.4313-4.99008-0.60495
		c-1.17271-0.12224-2.11601-0.63995-2.95335-1.43802c-0.73468-0.70027-1.08008-1.52051-1.14305-2.54294
		c-0.2179-3.53735,1.33432-6.19458,4.30757-7.22084c1.4859-0.51288,3.00757-0.33459,4.5106-0.12849
		c3.1619,0.43364,6.31793,0.85498,9.52274,0.86719c1.58728,0.00603,3.17195,0.33852,4.76076,0.36919
		c3.91353,0.07549,7.79137-0.43816,11.68063-0.7972c3.67575-0.33936,7.2659-1.0836,10.81001-2.04037
		c8.11531-2.19075,15.57376-5.73689,22.19084-10.98022c5.07437-4.02089,9.22652-8.84288,12.33501-14.50352
		c2.40161-4.37337,3.99501-9.05376,4.4278-14.07401c0.11623-1.34811,0.45729-2.70985,0.34979-4.03738
		c-0.22475-2.77585-0.67145-5.53419-1.05089-8.29643c-0.04181-0.30472-0.17201-0.65907-0.38461-0.85953
		c-0.17825-0.16801-0.64296-0.29333-0.79825-0.18225c-1.03738,0.7419-2.03334,1.54286-3.02884,2.34193
		c-6.29741,5.05487-13.33397,8.77768-20.90024,11.51898c-3.80115,1.37718-7.74745,1.92586-11.78818,1.638
		c-1.02982-0.07335-2.05725-0.25494-3.07162-0.45758c-6.15681-1.22986-10.38449-7.00076-10.74777-13.10408
		c-0.39044-6.5593,1.51558-12.46452,4.88953-17.97491c3.36958-5.50323,7.86877-9.86856,13.58673-12.86015
		c3.6337-1.90111,7.50662-3.02299,11.69174-3.14731c8.08882-0.2402,14.76729,2.82268,20.52109,8.27403
		c0.29015,0.2749,0.5607,0.5721,0.86441,0.8307c0.85681,0.7296,1.29274,0.66605,1.88313-0.34712
		c3.07959-5.28476,5.32758-10.88688,6.5589-16.89868c0.90451-4.4162,1.2518-8.88407,0.85483-13.34222
		c-0.43961-4.93685-1.53632-9.76414-3.48033-14.37759c-2.74757-6.52032-6.7036-12.16627-12.05191-16.78561
		c-6.08017-5.25146-13.09799-8.80592-20.76341-11.13762c-3.52559-1.07242-7.11972-1.81058-10.76871-2.26524
		c-3.96599-0.49414-7.95187-0.69337-11.95024-0.54737c-0.2393,0.00874-0.4837,0.01015-0.71585,0.06052
		c-2.02078,0.43851-2.18512,0.56823-2.09956,2.489c0.16209,3.63795-0.37015,7.17583-1.43668,10.63472
		c-3.07347,9.96774-9.36581,16.76116-19.58398,19.55179c-4.61058,1.25914-9.26765,1.01927-13.62108-0.86619
		c-5.85098-2.53404-9.80913-8.3764-8.13023-15.60074c0.64442-2.77305,1.7863-5.33054,3.33649-7.65058
		c1.59088-2.38092,3.31342-4.73943,5.33221-6.75291c2.76743-2.76009,5.93434-5.08663,9.45473-6.88218
		c2.78217-1.41904,5.61458-2.70451,8.5981-3.64222c0.4572-0.1437,0.90839-0.30879,1.35535-0.48204
		c0.53993-0.2093,0.69986-0.59936,0.51126-1.14553c-0.18245-0.52839-0.32852-1.07063-0.53401-1.58958
		c-2.08119-5.25611-4.92154-10.02205-8.93193-14.06423c-2.14951-2.16655-4.42583-4.12937-7.06502-5.69834
		c-3.49858-2.07989-7.28595-3.29812-11.26477-3.85534c-7.29054-1.02101-14.63564-1.28152-21.98695-1.03506
		c-7.11886,0.23867-14.14776,1.2115-21.05704,2.99126c-10.2089,2.62971-19.51227,7.15898-27.73295,13.72349
		c-11.58231,9.24889-19.88132,20.87416-24.57156,35.01139c-1.10996,3.3456-1.98906,6.7395-2.67363,10.18896
		c-0.17063,0.8598-0.26897,1.74033-0.30664,2.61538c-0.00876,0.20335,0.34562,0.45121,0.57467,0.62286
		c0.10271,0.07696,0.31449,0.04597,0.46633,0.01416c2.9285-0.61365,5.90579-0.52678,8.83567-0.27944
		c6.02174,0.50831,11.83314,1.80516,16.88134,5.44746c2.86734,2.06878,5.03784,4.64618,6.27514,7.97327
		c0.87767,2.36003,0.88005,4.79514,0.80772,7.28644c-0.1074,3.69907-1.49652,6.88292-3.67537,9.69678
		c-2.50804,3.239-5.51441,6.00671-9.14789,7.99689c-2.45837,1.34654-4.99203,2.54842-7.71887,3.24409
		c-4.47921,1.14279-8.96487,1.47231-13.44971-0.0489c-3.67257-1.2457-6.27997-3.7355-8.18259-7.0032
		c-2.28843-3.93031-3.43019-8.23538-3.93121-12.73242c-0.09685-0.86929-0.28737-1.73238-0.49736-2.58282
		c-0.08803-0.35648-0.43144-0.44131-0.76408-0.26362c-0.27979,0.14942-0.5531,0.32075-0.80168,0.5173
		c-2.3889,1.88904-4.53197,4.03199-6.3651,6.45897c-4.11813,5.45218-6.71917,11.56221-7.96276,18.28908
		c-0.49972,2.70312-0.41981,5.40433-0.50138,8.11597c-0.21928,7.28967,1.61497,14.08107,4.92921,20.50854
		c1.65339,3.2065,3.64871,6.19016,6.13564,8.82849c1.31342,1.39342,2.48252,2.94127,3.90195,4.21268
		c3.38988,3.03641,6.88583,5.95874,10.64955,8.53108c8.24905,5.63779,16.66314,11.02399,25.23436,16.15509
		c6.11232,3.65912,12.51435,6.76546,19.25489,9.10872c4.07892,1.41803,8.26219,2.46584,12.54953,3.06209
		c0.71025,0.09877,1.40971,0.34663,2.11894,0.36812c2.05499,0.06232,3.38609,1.27884,4.55754,2.74989
		c0.60928,0.76509,0.94593,1.6633,0.94366,2.66443c-0.00126,0.55965-0.02464,1.1214,0.0138,1.6786
		c0.18376,2.66467-2.06244,5.26845-5.48556,4.83951c-1.97797-0.24789-3.94829-0.56607-5.91432-0.89825
		c-6.08811-1.02864-11.99197-2.75627-17.70557-5.05556c-6.08549-2.44896-11.94723-5.39267-17.55906-8.79996
		c-3.89319-2.36377-7.79025-4.73167-11.56874-7.27153c-6.0343-4.05617-12.02671-8.18002-17.93129-12.42216
		c-4.28627-3.07944-8.27437-6.5544-11.75386-10.53903c-6.02472-6.89937-10.40339-14.71724-12.81724-23.59671
		c-0.77645-2.85625-1.40278-5.7412-1.76096-8.67484c-0.26063-2.13467-0.60224-4.29718-0.51019-6.43013
		c0.2795-6.47658,1.11685-12.86034,3.54596-18.9641c3.0097-7.56264,7.51645-14.0786,13.46734-19.57941
		c2.87509-2.65762,6.01744-5.00626,9.49008-6.86815c0.35209-0.18876,0.70298-0.37975,1.05452-0.56956
		c1.04037-0.56172,1.58572-1.30254,1.73314-2.60625c0.59168-5.23281,1.35476-10.44492,2.79526-15.53217
		c2.76855-9.77747,6.97888-18.854,12.94196-27.11351c2.85885-3.95983,5.95029-7.70499,9.39882-11.16212
		c3.84933-3.85892,8.07725-7.24752,12.56221-10.33613c8.46503-5.82954,17.76241-9.74763,27.72842-12.12258
		c3.88152-0.92499,7.80653-1.6385,11.78706-2.01255c2.93411-0.27571,5.85947-0.69841,8.79925-0.84465
		C131.50523,14.13347,134.4689,14.248,137.4268,14.24821z M208.24356,159.9386c0.06534,1.07582,0.03189,1.72708,0.15858,2.34555
		c0.22166,1.08211,0.82506,1.86029,1.95183,2.20432c0.85902,0.2623,1.70119,0.42537,2.58601,0.2034
		c1.39098-0.34898,2.79608-0.65071,4.1696-1.05862c6.02989-1.79077,11.5247-4.66867,16.61671-8.32852
		c2.40123-1.72585,4.64969-3.64134,6.65048-5.82848c0.77632-0.84862,0.81242-1.25911,0.13148-2.08578
		c-2.00618-2.43552-4.35512-4.42947-7.3007-5.67732c-1.72136-0.72923-3.53455-1.16415-5.35413-1.10091
		c-5.2195,0.18143-9.51897,2.57848-13.07733,6.21384c-2.82053,2.88156-4.76143,6.39053-5.95645,10.26193
		C208.49423,158.14221,208.37631,159.26048,208.24356,159.9386z M63.15497,102.02991
		c-2.49577-0.10197-4.90614,0.48168-7.32718,0.9454c-1.27747,0.24468-1.56766,0.58212-1.51215,2.00488
		c0.07432,1.90446,0.17239,3.82641,0.50371,5.69775c0.41512,2.34462,0.92432,4.69604,1.67008,6.95293
		c0.99702,3.01735,2.79737,3.96069,5.91394,3.46952c0.23532-0.03709,0.46572-0.10648,0.69766-0.16383
		c3.67297-0.90839,7.08463-2.32415,10.10028-4.70209c1.43338-1.13027,2.46245-2.48429,3.23467-4.06574
		c0.93522-1.91525,0.61168-3.77044-0.71535-5.35921c-0.70039-0.83855-1.6031-1.56477-2.53854-2.13996
		C70.11906,102.78619,66.75766,101.92119,63.15497,102.02991z M168.02719,83.78915c2.45988,0.00082,5.3317-0.83282,7.0528-1.97535
		c5.50763-3.65614,8.16559-8.96029,8.81284-15.39862c0.10938-1.088-0.40587-1.4926-1.43878-1.14098
		c-2.72028,0.926-5.3235,2.11256-7.7643,3.63987c-3.77235,2.3605-6.8752,5.39973-9.24399,9.17117
		c-0.37897,0.60336-0.7271,1.245-0.9669,1.91296c-0.5182,1.44322,0.07054,2.77374,1.48589,3.29156
		C166.77547,83.58638,167.65244,83.70197,168.02719,83.78915z"/>
	<path class="st0" d="M183.95451,169.7439c0.10468,7.48407-2.30852,14.12787-6.68748,20.10283
		c-1.84103,2.51201-3.84541,4.89444-6.06371,7.09398c-2.15648,2.13823-4.32582,4.26907-6.37849,6.50508
		c-2.54097,2.7679-4.89178,5.68303-6.51517,9.12952c-2.03517,4.32072-2.72871,8.80701-1.95618,13.52104
		c0.06436,0.39279,0.09929,0.79231,0.11969,1.19011c0.45013,8.77623,2.33113,17.22313,5.77913,25.31686
		c2.54086,5.96428,4.56172,12.11272,6.1479,18.38979c1.03491,4.09555,1.81209,8.24377,2.14703,12.48825
		c0.19511,2.4722,0.3838,4.93494,0.3036,7.40329c-0.08017,2.46698-0.25648,4.93921-0.55513,7.38913
		c-0.79744,6.5415-2.60614,12.82629-5.14352,18.89438c-1.50891,3.60852-3.1832,7.13669-5.03889,10.59476
		c-3.32741,6.20059-7.16521,12.09601-10.59937,18.22797c-2.34114,4.1803-4.62393,8.40036-5.97717,13.03735
		c-0.76141,2.60907-1.46864,5.2338-1.36591,7.98898c0.0296,0.79358,0.16664,1.58249,0.22755,2.37561
		c0.09152,1.19193,0.26498,2.38977,0.21835,3.57782c-0.16759,4.26968-4.30159,6.22241-7.73473,5.01511
		c-2.02359-0.71164-3.34015-2.1235-3.76717-4.28592c-0.71367-3.61407-1.03459-7.203-0.55833-10.92258
		c0.70081-5.47308,2.47522-10.53836,4.83798-15.46432c2.87415-5.99207,6.38919-11.61743,9.78391-17.31204
		c2.70158-4.53195,5.29517-9.12033,7.52052-13.90848c2.74086-5.89737,4.7374-12.02872,5.73882-18.4653
		c0.5914-3.80109,0.80464-7.64716,0.48854-11.46323c-0.36848-4.44821-1.13547-8.8497-2.29613-13.18692
		c-1.71867-6.42242-4.05-12.62112-6.50902-18.77928c-2.29337-5.74335-3.80933-11.67789-4.61018-17.80865
		c-0.39255-3.0051-0.87224-5.99504-0.95663-9.03487c-0.04411-1.58896-0.32579-3.1722-0.35309-4.76053
		c-0.13852-8.05051,2.42494-15.20824,7.23163-21.6161c2.40259-3.2029,5.14076-6.10204,7.92528-8.96669
		c2.16936-2.23175,4.29472-4.507,6.41-6.79036c1.63937-1.76962,2.99687-3.75612,4.02214-5.93259
		c3.75522-7.97188,2.94714-15.49405-2.36952-22.51987c-2.6707-3.5293-5.96135-6.43394-9.37755-9.20737
		c-3.90654-3.17152-7.85576-6.29326-11.29108-9.99873c-2.42336-2.61395-4.37045-5.48773-5.22522-9.01546
		c-0.4415-1.82208-0.30428-3.65392-0.21481-5.48492c0.02232-0.45724,0.22797-0.93775,0.45702-1.34736
		c1.27049-2.27206,3.22789-3.12727,5.80765-2.96399c2.35315,0.14893,3.86278,1.36568,4.83849,3.35915
		c0.3447,0.70424,0.62268,1.52031,0.63844,2.2913c0.04436,2.17132,1.12863,3.77068,2.53932,5.25358
		c2.20805,2.32106,4.63371,4.39212,7.12881,6.39624c4.17119,3.35033,8.31039,6.73819,11.9194,10.72108
		c4.84444,5.3463,8.06874,11.47737,9.09683,18.66588C183.9407,166.85426,183.88896,168.30746,183.95451,169.7439z"/>
	<path class="st0" d="M138.80022,125.21402c-0.15282,4.11507-1.54948,7.79471-3.91649,11.12851
		c-2.05086,2.88855-4.58066,5.33713-7.27696,7.59435c-3.54872,2.97087-7.27399,5.73309-10.78412,8.74718
		c-3.5331,3.03386-6.61134,6.4756-8.58315,10.79799c-1.17892,2.58429-1.78006,5.29382-2.03317,8.08302
		c-0.21416,2.35982,0.45815,4.5903,1.38232,6.73857c1.18427,2.75279,2.9255,5.12384,5.046,7.22572
		c3.91653,3.8821,7.85137,7.74591,11.74748,11.64841c2.94936,2.95416,5.47342,6.24065,7.47369,9.91566
		c1.57912,2.90125,2.74878,5.98468,3.28868,9.21976c0.50778,3.04263,1.03481,6.10094,0.42542,9.26508
		c-0.35999,1.86909-0.52991,3.77745-1.05089,5.62949c-1.53639,5.46167-4.7041,9.91296-8.55706,13.94461
		c-4.39712,4.60104-9.51982,8.28801-14.96114,11.51036c-5.22134,3.0921-10.59127,5.93213-15.86328,8.94009
		c-3.05129,1.74091-6.04169,3.58887-9.05046,5.40366c-0.47623,0.2872-0.93836,0.61819-1.34061,0.99905
		c-0.19479,0.18445-0.30846,0.52994-0.31413,0.80551c-0.00264,0.12836,0.32655,0.35349,0.52698,0.38184
		c1.57782,0.22318,3.15775,0.44,4.74289,0.60098c4.21211,0.42773,8.45313,0.31516,12.66493,0.58374
		c3.18739,0.20328,6.38438,0.14261,9.55473,0.43454c5.07693,0.46753,10.18041,0.87885,15.09676,2.37671
		c3.54438,1.07983,6.91325,2.53842,9.56617,5.23621c2.47246,2.51419,3.52559,5.62744,3.66083,9.10922
		c0.07945,2.04556-1.5,4.94272-4.37498,5.6254c-2.79781,0.6644-5.39096-0.44336-6.70349-2.93484
		c-0.33163-0.62958-0.64244-1.31085-0.76117-2.0029c-0.2117-1.23416-0.97234-1.98584-1.95646-2.57541
		c-0.54546-0.32678-1.12387-0.66769-1.73225-0.80826c-2.5639-0.59229-5.12622-1.23624-7.7247-1.62085
		c-2.35944-0.34921-4.78331-0.25775-7.14587-0.59265c-3.58087-0.5076-7.18561-0.18887-10.75497-0.48355
		c-5.39799-0.44568-10.85244-0.26257-16.19302-1.3877c-2.74407-0.57816-5.42463-1.26068-7.84217-2.8028
		c-3.86582-2.46603-5.10188-7.16495-3.87821-11.16208c0.61536-2.01016,1.66677-3.7695,3.16625-5.29318
		c2.37048-2.40881,4.96084-4.5123,7.90498-6.17191c4.79935-2.70541,9.59034-5.42603,14.41014-8.09459
		c5.24573-2.90433,10.42133-5.91208,15.21886-9.5322c3.01097-2.27199,5.75362-4.80556,8.05413-7.81143
		c2.40085-3.13702,3.81283-6.67593,3.97918-10.59586c0.1292-3.04465-0.46972-6.02576-1.73965-8.84624
		c-1.42719-3.16969-3.34733-6.00366-5.77521-8.47285c-2.80119-2.84886-5.57397-5.7394-8.54657-8.40253
		c-3.65652-3.27585-6.82182-6.93477-9.42897-11.06866c-1.98161-3.14207-3.20366-6.58951-3.7358-10.28493
		c-1.1463-7.9604,0.86856-15.20024,5.02724-21.91965c2.71461-4.38614,6.2533-8.06187,10.25488-11.30049
		c3.35036-2.71159,6.73468-5.38335,10.02579-8.16524c1.94716-1.64587,3.84959-3.36253,5.28223-5.52548
		c0.94878-1.43243,1.58145-2.94837,1.64021-4.68114c0.05637-1.66228,0.59426-3.13182,1.8066-4.30379
		c1.96487-1.89945,4.38071-2.03894,6.70325-1.1649c2.28812,0.86112,3.28482,2.90333,3.3732,5.34111
		C138.80774,124.73415,138.80022,124.97423,138.80022,125.21402z"/>
	<path class="st1" d="M392.12567,237.97226c-0.1066-5.66649-0.50247-11.30991-1.33966-16.91876
		c-0.35648-2.38814,0.16547-4.51877,2.21579-5.94589c2.20056-1.53171,4.60648-1.70448,7.03394-0.46817
		c1.5386,0.78358,2.39307,2.13925,2.66022,3.77869c0.42307,2.59567,0.75574,5.20915,1.02979,7.82529
		c0.34836,3.32646,0.69437,6.65823,0.86456,9.99673c0.1463,2.87012,0.0925,5.75377,0.04102,8.62988
		c-0.08282,4.62653-0.46191,9.23297-1.22226,13.80045c-0.25391,1.52505-0.24667,2.97534,0.31699,4.46533
		c2.27002,6.00079,3.68179,12.20999,4.44443,18.58167c0.47427,3.96255,0.91647,7.91949,0.91556,11.91736
		c-0.00046,2.10532-0.883,3.68991-2.63635,4.80569c-1.94733,1.23935-5.42786,1.16751-7.3002-0.16379
		c-1.53607-1.09229-2.27405-2.5961-2.34918-4.49088c-0.10107-2.54822-0.27826-5.09393-0.45679-7.63831
		c-0.05551-0.79135-0.20261-1.57849-0.34518-2.36072c-0.06735-0.36935-0.22293-0.72266-0.33856-1.08325
		c-0.33978,0.29376-0.7261,0.54868-1.01019,0.88892c-0.71579,0.85724-1.37973,1.75748-2.07474,2.63235
		c-3.15121,3.96695-7.14261,6.81503-11.77841,8.78751c-4.46893,1.90137-9.15451,2.88708-13.99417,2.67456
		c-6.90298-0.30319-13.38153-2.11554-19.07217-6.21707c-5.25311-3.78629-8.70282-8.87427-10.44962-15.06247
		c-2.25168-7.97668-1.81332-15.81009,1.88062-23.31099c3.19406-6.48581,8.19687-11.11971,14.84113-13.97702
		c3.18069-1.36786,6.47702-2.23036,9.95377-2.37631c1.03091-0.04321,2.06631-0.38956,3.08176-0.32306
		c5.10904,0.33478,10.14127,1.06239,14.93707,3.02214c2.90387,1.18665,5.62775,2.64917,8.11166,4.56384
		c0.44022,0.33937,0.90799,0.65115,1.39651,0.91333c0.10556,0.05664,0.49051-0.1282,0.51477-0.24858
		c0.09366-0.46416,0.11987-0.94713,0.12314-1.42343C392.13287,241.48903,392.12567,239.73061,392.12567,237.97226z
		 M348.08997,266.70837c0.12003,0.89365,0.22537,2.40976,0.5408,3.88077c0.74911,3.49347,2.1387,6.72351,4.71793,9.2616
		c5.18149,5.09897,11.37589,6.81961,18.44919,5.11792c5.29117-1.27289,9.3125-4.39139,12.36966-8.83392
		c2.5769-3.7446,3.89203-8.00146,5.16931-12.2988c0.39261-1.32092,0.13943-2.31885-0.53253-3.3569
		c-1.6539-2.55481-3.58038-4.84891-5.9147-6.84215c-4.52914-3.86736-9.87128-5.38881-15.65652-5.68556
		c-1.17554-0.06033-2.37283,0.21114-3.5542,0.37267c-4.34735,0.59435-8.07413,2.42307-11.02512,5.70142
		C349.57507,257.44556,348.28012,261.55383,348.08997,266.70837z"/>
	<path class="st1" d="M318.38776,267.36417c-0.06525-3.22495-0.40991-6.39127-1.1933-9.50412
		c-0.60989-2.42339-1.65259-4.64572-3.07208-6.71602c-1.95514-2.85149-4.70404-4.52988-7.93887-5.42696
		c-4.74646-1.31628-9.14737-0.25688-13.2645,2.25604c-0.92679,0.56564-0.93692,0.71545-0.39709,1.71405
		c3.24551,6.00391,4.95578,12.42352,5.26218,19.23352c0.04282,0.95142,0.34406,1.89987,0.31921,2.84424
		c-0.15359,5.83597-0.52377,11.64252-2.8399,17.12466c-1.46948,3.47809-3.65335,6.39734-6.91592,8.34131
		c-4.27142,2.54517-8.76831,2.76703-13.3172,0.76917c-2.56339-1.12585-4.47714-3.06223-5.9314-5.41376
		c-2.01633-3.26056-2.96451-6.86423-3.15839-10.67657c-0.44647-8.78171,1.21463-17.16599,4.91644-25.12195
		c1.03973-2.23462,2.41058-4.31589,3.64349-6.45946c0.23813-0.41399,0.552-0.7836,0.81219-1.18579
		c0.64664-0.99947,0.55099-1.25423-0.64999-1.68863c-2.70712-0.97931-5.46216-0.95856-8.21448-0.27333
		c-1.23526,0.30754-2.41324,0.84001-3.64267,1.17786c-0.91245,0.25073-1.86316,0.47659-2.80145,0.49666
		c-2.6069,0.05573-4.52339-1.78407-4.72653-4.36707c-0.20297-2.58096,0.82123-4.51195,3.05508-5.77725
		c1.96429-1.11263,4.13196-1.72661,6.30365-2.23323c4.10544-0.95773,8.20752-0.9514,12.31754,0.18918
		c2.19247,0.60849,4.15497,1.64813,6.09109,2.75188c0.81781,0.4662,1.39841,0.46678,2.16183-0.03294
		c2.47879-1.62289,5.10699-2.94188,7.92236-3.91138c5.86017-2.01802,11.74719-2.01321,17.66718-0.37065
		c7.48776,2.07753,12.70999,6.79625,15.90173,13.81741c1.83676,4.04054,2.75531,8.31886,3.14099,12.72374
		c0.13202,1.5079,0.33325,3.01254,0.39404,4.52304c0.04791,1.1907-0.05801,2.38889-0.12216,3.58228
		c-0.02554,0.47577-0.17203,0.94687-0.17953,1.42142c-0.09772,6.19086-1.29388,12.20526-2.92953,18.14462
		c-0.48721,1.76923-1.04355,3.52417-1.6666,5.25009c-0.79242,2.19513-2.32321,3.54291-4.69626,3.94455
		c-3.08136,0.52161-6.45813-1.94193-6.67419-5.04703c-0.06488-0.9325,0.04584-1.92563,0.30627-2.82425
		c1.37958-4.75995,2.55627-9.56836,3.27222-14.46933C317.96899,273.25592,318.1156,270.30087,318.38776,267.36417z
		 M285.64911,272.62997c-0.20758-2.62198-0.31146-5.25775-0.65744-7.86133c-0.25067-1.88651-0.81808-3.73145-1.25998-5.59116
		c-0.03058-0.12869-0.18478-0.30679-0.29486-0.31696c-0.12433-0.01144-0.32932,0.10947-0.38629,0.22739
		c-0.52048,1.07697-1.07065,2.14435-1.51019,3.25488c-2.25693,5.7023-3.49261,11.61737-3.41641,17.76001
		c0.02667,2.14853,0.24878,4.31635,1.35703,6.25455c0.86609,1.51453,2.10031,1.6727,3.29034,0.40631
		c0.32147-0.3421,0.59811-0.76401,0.77283-1.19861c0.38644-0.96127,0.79028-1.93231,1.0181-2.93762
		C285.30615,279.34448,285.58273,276.00858,285.64911,272.62997z"/>
	<path class="st1" d="M220.763,298.28726c-3.90196,0.24402-7.98451-0.42297-11.91847-1.89108
		c-9.39552-3.50632-15.63318-10.0676-18.41599-19.70035c-1.10504-3.8251-1.52934-7.77054-0.98978-11.83398
		c0.43517-3.27716,1.02605-6.45053,2.3642-9.47784c2.54021-5.74669,6.58665-10.15302,11.97067-13.31496
		c4.67422-2.74501,9.72765-4.2843,15.14684-4.8896c7.45395-0.83257,14.45914,0.44925,21.11908,3.77251
		c7.03799,3.51195,11.66373,9.12337,13.79002,16.65526c2.30534,8.16605,1.59595,16.15735-2.22777,23.76599
		c-3.52954,7.02338-9.08205,11.84845-16.44542,14.58951C231.2769,297.40683,226.49527,298.50836,220.763,298.28726z
		 M223.2413,248.34256c-3.65315-0.37129-7.27954,0.50259-10.78555,1.95558c-4.25143,1.7619-7.76152,4.4427-9.94295,8.58305
		c-2.89394,5.49265-3.05493,11.17114-0.73882,16.88385c1.45248,3.58258,3.96754,6.36771,7.23984,8.38873
		c3.47748,2.14764,7.33484,3.05197,11.41249,3.09714c2.32477,0.02579,4.63498-0.13773,6.89816-0.63455
		c3.95993-0.86929,7.62514-2.4212,10.5706-5.29617c5.53705-5.40439,7.42853-11.97324,5.7924-19.48444
		c-1.22568-5.62695-4.69937-9.45093-9.98402-11.72C230.40337,248.69873,226.99219,248.11156,223.2413,248.34256z"/>
	<path class="st1" d="M462.36258,251.9776c-0.21127-2.88739-0.40515-5.82864-0.64767-8.76585
		c-0.22528-2.7281,0.9722-4.95482,3.33453-6.07889c2.50162-1.19034,5.56995-0.79802,7.37094,0.96442
		c1.1445,1.11987,1.61508,2.567,1.76144,4.09981c0.4097,4.29115,0.7789,8.60023,0.47348,12.90442
		c-0.43469,6.12564-1.0787,12.23029-2.76593,18.17853c-1.53461,5.41-3.4874,10.6181-6.8045,15.22336
		c-3.79184,5.26437-8.66412,9.03204-15.19064,9.98993c-8.98502,1.31866-16.60971-1.1127-21.99637-8.89093
		c-2.82111-4.07361-4.47125-8.63931-5.54553-13.4238c-0.83899-3.73651-1.28104-7.52887-1.63437-11.35172
		c-0.37674-4.07599-0.32977-8.14096-0.23074-12.20058c0.08719-3.576,0.52994-7.15202,0.97479-10.70811
		c0.39551-3.16141,2.76044-5.09984,5.97324-5.03476c3.30289,0.06688,5.72757,1.62704,6.32645,5.01596
		c0.08154,0.46156,0.09677,0.95679,0.02805,1.41945c-0.48062,3.2365-0.85547,6.47586-0.86478,9.75873
		c-0.0054,1.90724-0.40283,3.82399-0.29993,5.71886c0.30667,5.64716,0.54724,11.31464,2.24661,16.78262
		c0.6908,2.22293,1.60172,4.32541,2.8681,6.29462c3.75168,5.8338,11.04202,5.69742,15.34656,1.61655
		c2.42856-2.30243,4.06726-5.12158,5.24579-8.20847c1.77322-4.64462,2.95496-9.44092,3.37192-14.40576
		C461.95071,257.93869,462.14108,254.99663,462.36258,251.9776z"/>
	<path class="st0" d="M124.44482,176.83884c-0.19736-4.77956,1.22161-8.9483,3.97742-12.64958
		c3.00363-4.03407,6.97629-6.32202,12.11758-6.00237c4.40848,0.27411,7.89691,2.40752,10.50642,5.91335
		c2.59731,3.48941,3.98145,7.44302,4.06082,11.81174c0.03767,2.07359,0.02019,4.13515-0.46544,6.19044
		c-0.80908,3.42422-2.28773,6.51968-4.67473,9.05518c-2.51668,2.67322-5.50659,4.62256-9.44003,4.43561
		c-1.59006-0.07558-3.19458,0.13362-4.758-0.36719c-2.82932-0.90631-5.15504-2.55164-6.93866-4.89197
		C125.77527,186.32553,124.17027,181.81584,124.44482,176.83884z M146.08928,176.88145
		c0.22681-2.31529-0.48901-4.55536-1.67348-6.70715c-0.6897-1.25299-1.70935-2.10034-2.92262-2.7413
		c-0.95003-0.50186-1.95532-0.58044-3.00662-0.20245c-2.04144,0.73398-3.18742,2.30728-4.0473,4.16969
		c-1.29491,2.80463-1.21361,5.77481-0.79735,8.70403c0.32111,2.25955,1.4649,4.20242,3.26709,5.70052
		c1.73445,1.44179,3.69272,1.54358,5.47867,0.17471c1.01932-0.7813,1.87048-1.72853,2.44931-2.90593
		C145.77345,181.16867,146.19641,179.16467,146.08928,176.88145z"/>
	<path class="st1" d="M370.4187,336.24341c-0.01859-2.98392,1.22659-4.69199,4.33545-5.83975
		c0.51318-0.18942,0.73434-0.28549,0.65765-0.94946c-0.11414-0.98804,0.50439-1.8309,1.09198-2.56854
		c0.43808-0.55002,1.15582-0.47092,1.77771-0.25082c0.13181,0.04663,0.29169,0.43906,0.22815,0.5408
		c-0.3349,0.53638-0.72763,1.03809-1.11801,1.53799c-0.76004,0.97321-0.65701,1.25787,0.46838,1.61838
		c0.74747,0.23941,1.50247,0.52637,2.17053,0.9303c2.59097,1.56647,3.22244,4.97775,2.04733,7.64069
		c-1.05359,2.38742-4.18951,3.87329-6.81549,3.32196C372.74139,341.69571,370.1004,339.19159,370.4187,336.24341z
		 M379.64395,336.20297c-0.01645-2.04929-1.32291-3.46225-3.16193-3.41974c-1.7438,0.04034-3.25479,1.60233-3.32605,3.43826
		c-0.06754,1.73959,1.51901,3.31863,3.32748,3.31186C378.49881,339.52576,379.66083,338.3013,379.64395,336.20297z"/>
	<path class="st1" d="M378.25018,317.20743c0-1.51453-0.02921-3.02991,0.01257-4.54327
		c0.02029-0.73508,0.32007-0.9361,1.05453-1.03098c1.12433-0.14523,2.00674,0.17435,2.69482,1.12283
		c1.02847,1.41766,2.11624,2.79236,3.18262,4.18237c0.19394,0.25281,0.38864,0.50974,0.61624,0.73047
		c0.15488,0.15027,0.36768,0.24084,0.55457,0.35815c0.11087-0.19122,0.30899-0.37854,0.31781-0.5744
		c0.043-0.95493,0.03519-1.91223,0.04584-2.86868c0.0062-0.55798-0.01349-1.11792,0.02576-1.67358
		c0.07614-1.07748,0.72372-1.52353,1.78809-1.19162c0.25317,0.07898,0.50842,0.36377,0.62299,0.61713
		c0.12415,0.27451,0.11218,0.62277,0.11292,0.93893c0.00681,2.79062,0.01138,5.5813-0.00433,8.37183
		c-0.00299,0.53851,0.09436,1.2179-0.56909,1.43347c-0.84262,0.27377-1.73987,0.35638-2.46844-0.31998
		c-0.3457-0.32098-0.60361-0.7373-0.89694-1.11383c-1.17499-1.50806-2.34442-3.02042-3.53085-4.51941
		c-0.07736-0.09769-0.29846-0.1582-0.41833-0.1221c-0.10104,0.03043-0.21353,0.22543-0.21603,0.34964
		c-0.03036,1.51419-0.0184,3.02957-0.07382,4.5426c-0.01352,0.36899-0.15091,0.97437-0.37195,1.04779
		c-0.5701,0.18942-1.22827,0.22968-1.83344,0.16418c-0.58295-0.06302-0.65036-0.63382-0.65485-1.11813
		c-0.01477-1.59433-0.00555-3.18887-0.00555-4.78336C378.24026,317.20746,378.24521,317.20746,378.25018,317.20743z"/>
	<path class="st1" d="M231.4122,336.21436c0,1.51447,0.0295,3.02972-0.01137,4.54309
		c-0.02348,0.87079-0.33278,1.09769-1.16063,1.18793c-1.14583,0.12491-1.98567-0.30334-2.66591-1.22226
		c-1.13705-1.53604-2.31566-3.04202-3.50458-4.53854c-0.21609-0.272-0.38275-0.82568-0.87106-0.56921
		c-0.18571,0.0975-0.24803,0.54996-0.25638,0.84378c-0.0316,1.1153-0.00807,2.23196-0.02615,3.34778
		c-0.00766,0.47565-0.03305,0.95618-0.11195,1.4241c-0.08591,0.50967-0.56248,0.72781-1.33499,0.68793
		c-0.52505-0.02716-0.94168-0.20599-1.0242-0.78333c-0.05611-0.3924-0.076-0.79279-0.07767-1.18973
		c-0.00813-1.91327-0.00691-3.8266-0.00418-5.7399c0.00125-0.87674-0.01627-1.75507,0.02893-2.62985
		c0.05002-0.96759,0.35553-1.18466,1.35139-1.25089c0.96745-0.06436,1.66087,0.27573,2.23817,1.06821
		c1.21906,1.67346,2.49692,3.30453,3.77391,4.93478c0.11549,0.14743,0.39955,0.16281,0.60533,0.23953
		c0.04451-0.15128,0.1254-0.30197,0.12788-0.45392c0.0248-1.51413,0.028-3.02866,0.05736-4.54266
		c0.00943-0.48404,0.07391-1.05441,0.65802-1.11575c0.60518-0.06357,1.26286-0.02255,1.83226,0.16794
		c0.22122,0.07404,0.36081,0.6796,0.37065,1.04755c0.04056,1.51352,0.01698,3.02878,0.01698,4.5434
		C231.42007,336.21432,231.41615,336.21432,231.4122,336.21436z"/>
	<path class="st1" d="M418.06131,317.35501c0-1.51562-0.02939-3.03201,0.01129-4.54657
		c0.02341-0.87265,0.32965-1.10846,1.16229-1.18457c1.03052-0.09424,1.85263,0.18683,2.48694,1.06833
		c1.02377,1.4227,2.10602,2.80347,3.17044,4.19672c0.2406,0.31488,0.50534,0.61191,0.76962,0.90762
		c0.04175,0.04666,0.16974,0.08194,0.20746,0.05414c0.10883-0.0802,0.26999-0.19318,0.27298-0.29718
		c0.03177-1.11594,0.03354-2.2327,0.05078-3.34912c0.00867-0.55798,0.0054-1.11823,0.05673-1.67288
		c0.05078-0.54868,0.3985-0.85342,0.9469-0.87286c0.39487-0.01392,0.81531-0.04608,1.17947,0.07034
		c0.25168,0.08051,0.47571,0.37231,0.62015,0.62277c0.1098,0.1904,0.10028,0.4642,0.10062,0.70093
		c0.00415,2.95178,0.02097,5.90384-0.01251,8.85529c-0.01169,1.03091-0.3204,1.24988-1.27368,1.33194
		c-1.05902,0.09109-1.82852-0.29544-2.45251-1.15018c-1.12805-1.54507-2.30557-3.05414-3.46838-4.57367
		c-0.24017-0.31393-0.50217-0.61172-0.76465-0.90753c-0.04349-0.04904-0.17065-0.09122-0.20932-0.06448
		c-0.1109,0.07666-0.27731,0.18863-0.27945,0.2897c-0.02823,1.35547-0.02179,2.71164-0.04694,4.06723
		c-0.01028,0.55533-0.02243,1.12021-0.13049,1.66144c-0.11594,0.58075-0.63708,0.63879-1.12573,0.64734
		c-0.4906,0.00864-0.99838-0.04321-1.16235-0.60379c-0.10968-0.37491-0.12338-0.78644-0.12753-1.1821
		c-0.01431-1.35614-0.00549-2.71252-0.00549-4.06882C418.04575,317.35504,418.05353,317.35504,418.06131,317.35501z"/>
	<path class="st1" d="M395.98575,336.13181c0,1.51559,0.0304,3.03198-0.01083,4.54642
		c-0.02686,0.98657-0.34262,1.20676-1.32855,1.27402c-0.96094,0.06555-1.66846-0.24634-2.25003-1.04596
		c-1.21832-1.67496-2.49786-3.30566-3.77432-4.93732c-0.11838-0.15134-0.39444-0.17929-0.59732-0.26453
		c-0.04974,0.14658-0.14053,0.29248-0.14282,0.43979c-0.02231,1.43549-0.0527,2.87149-0.03522,4.30676
		c0.01813,1.48785-0.73651,1.69958-2.31079,1.35068c-0.18628-0.04132-0.3941-0.28525-0.46399-0.48096
		c-0.10443-0.29205-0.12802-0.62466-0.12909-0.94025c-0.00964-2.79205-0.01346-5.58414-0.00171-8.37616
		c0.00229-0.54303-0.11414-1.23999,0.49643-1.48441c0.82526-0.33044,1.74832-0.39307,2.5004,0.20474
		c0.4899,0.3895,0.87677,0.91949,1.26984,1.41806c1.08572,1.37732,2.14346,2.77676,3.22931,4.15396
		c0.22333,0.28326,0.33157,0.89459,0.81638,0.64539c0.198-0.10175,0.17728-0.70889,0.18454-1.08746
		c0.02762-1.43536-0.00525-2.87238,0.04636-4.30658c0.034-0.94327,0.4295-1.23813,1.38461-1.18982
		c0.70453,0.03558,1.06931,0.30756,1.08569,0.98859c0.0383,1.59418,0.01224,3.18988,0.01224,4.78494
		C395.97314,336.13174,395.97943,336.13177,395.98575,336.13181z"/>
	<path class="st1" d="M332.186,317.35968c0.02173,3.73962-2.82083,6.19016-6.16391,6.24881
		c-3.50122,0.06149-6.27844-2.71677-6.1539-6.20331c0.12848-3.59433,2.53796-5.99957,6.1478-5.99112
		C329.31628,311.42178,331.9538,313.3049,332.186,317.35968z M326.0517,314.05856c-1.78674-0.01273-3.30673,1.5408-3.30524,3.37817
		c0.00162,1.9823,1.3186,3.35999,3.23257,3.38159c1.93607,0.02182,3.27167-1.31888,3.2774-3.28992
		C329.26208,315.59451,327.85532,314.07138,326.0517,314.05856z"/>
	<path class="st1" d="M265.49475,336.27103c-0.14676,3.89917-3.1456,6.078-6.35934,6.05362
		c-3.29999-0.02505-6.27147-2.96136-6.04747-6.13031c0.27565-3.8996,2.9057-6.19308,6.37672-6.02689
		C263.6525,330.36795,265.3735,333.10959,265.49475,336.27103z M262.55896,336.09467
		c-0.03546-1.77133-1.6666-3.36218-3.40094-3.31702c-1.7265,0.04495-3.12305,1.64371-3.11725,3.56866
		c0.00577,1.91995,1.3891,3.21875,3.39203,3.18481C261.32721,339.49905,262.59912,338.10092,262.55896,336.09467z"/>
	<path class="st1" d="M451.02167,317.47366c-0.39343-3.32355,2.4631-6.23419,6.14978-6.06729
		c3.25702,0.14746,5.86182,1.90543,5.98621,6.11664c0.10025,3.39667-2.80591,6.18671-6.27585,6.08743
		C453.61047,323.51688,450.72092,321.01248,451.02167,317.47366z M460.23828,317.49957
		c-0.00735-1.99341-1.33911-3.4249-3.20135-3.44104c-1.78839-0.01553-3.28809,1.52026-3.30515,3.38477
		c-0.0174,1.90466,1.39166,3.36441,3.25781,3.37506C458.91742,320.82938,460.24557,319.47256,460.23828,317.49957z"/>
	<path class="st1" d="M276.65756,317.44125c0.28357,3.9881-2.95892,6.1778-6.05649,6.16785
		c-3.37701-0.01086-6.15186-2.76569-6.0834-6.05112c0.08948-4.2951,2.97433-6.15582,6.18997-6.14984
		C274.55389,311.41528,277.03668,314.40286,276.65756,317.44125z M273.9473,317.41379
		c-0.0358-1.86575-1.54584-3.38535-3.3345-3.35568c-1.85083,0.03073-3.17969,1.48468-3.1723,3.47092
		c0.00732,1.97256,1.34119,3.31067,3.27869,3.28918C272.57892,320.79752,273.98376,319.31595,273.9473,317.41379z"/>
	<path class="st1" d="M301.3653,335.99078c0-1.51855-0.02948-3.0379,0.01242-4.55524
		c0.02094-0.75833,0.31317-0.99564,1.01102-1.07629c0.92679-0.10706,1.69986,0.05206,2.30344,0.89423
		c1.02304,1.42743,2.13071,2.79425,3.20615,4.18396c0.2442,0.31558,0.47491,0.64999,0.76492,0.91833
		c0.1456,0.13474,0.40845,0.16721,0.62308,0.1839c0.04782,0.00372,0.1622-0.25214,0.1669-0.39114
		c0.02408-0.71875,0.02264-1.43839,0.02975-2.15768c0.0079-0.79926-0.01846-1.60068,0.0314-2.39728
		c0.06787-1.08377,1.00934-1.59314,2.05396-1.11896c0.19052,0.08649,0.39188,0.30688,0.44525,0.50409
		c0.10263,0.37924,0.13834,0.78601,0.14001,1.18161c0.0112,2.63815,0.01678,5.27643-0.00183,7.91446
		c-0.00436,0.61536,0.1517,1.34888-0.54166,1.71744c-0.7532,0.40039-2.07977,0.13824-2.67157-0.46613
		c-0.22195-0.22672-0.39987-0.49725-0.59274-0.75168c-0.43445-0.57324-0.80573-1.2092-1.31058-1.71115
		c-1.09866-1.0925-1.63312-2.66956-3.03235-3.49402c-0.03928,1.51309-0.07809,3.02618-0.11816,4.53931
		c-0.00842,0.31952-0.00241,0.64093-0.03604,0.95795c-0.0856,0.80646-0.41928,1.07468-1.27826,1.05756
		c-0.82724-0.01645-1.1774-0.29129-1.19949-1.13782c-0.0416-1.5975-0.01196-3.19681-0.01196-4.79538
		C301.36105,335.99081,301.36319,335.99078,301.3653,335.99078z"/>
	<path class="st1" d="M207.56349,317.44501c0,1.35446,0.02153,2.70947-0.00978,4.0632
		c-0.01401,0.60599,0.14534,1.38815-0.66957,1.60428c-0.84972,0.22534-1.75845,0.32825-2.41608-0.49191
		c-1.04607-1.30457-2.05925-2.63559-3.11177-3.93484c-0.49022-0.60507-1.04012-1.16187-1.56297-1.74054
		c-0.80624,0.70032-0.26042,1.61609-0.35889,2.42407c-0.10536,0.86441-0.00647,1.75159-0.05571,2.62552
		c-0.05402,0.95856-0.4061,1.24396-1.364,1.22141c-0.85378-0.02017-1.2236-0.27924-1.23274-1.09894
		c-0.03459-3.10629-0.03593-6.21338-0.00508-9.31973c0.00873-0.87869,0.31471-1.08344,1.17612-1.16989
		c1.04042-0.1044,1.79811,0.20898,2.43576,1.11047c1.28659,1.81906,2.68463,3.55948,4.04872,5.32306
		c0.0791,0.10223,0.26552,0.12146,0.40198,0.17932c0.05043-0.14059,0.14275-0.28058,0.14485-0.42188
		c0.02484-1.67267,0.00786-3.34644,0.06216-5.01801c0.03029-0.93198,0.43329-1.21542,1.40884-1.1496
		c0.71062,0.04794,1.02715,0.29532,1.05887,1.01541c0.05609,1.27249,0.04109,2.54816,0.05423,3.82248
		c0.0033,0.31866,0.00052,0.63742,0.00052,0.95612C207.56714,317.44501,207.56531,317.44501,207.56349,317.44501z"/>
	<path class="st1" d="M462.68405,336.04593c0-1.51184-0.03085-3.02454,0.01178-4.53516
		c0.02484-0.87909,0.28546-1.14658,1.17532-1.15201c1.43002-0.00876,2.87787-0.0466,4.28726,0.14993
		c2.89008,0.40305,4.51562,2.27567,4.59952,5.19592c0.02686,0.93878,0.02902,1.95563-0.29163,2.81152
		c-0.75635,2.01846-2.28964,3.23911-4.48553,3.39902c-1.34567,0.09802-2.70508,0.05655-4.05621,0.01331
		c-0.97885-0.03128-1.2175-0.29053-1.24564-1.34659c-0.04025-1.51102-0.01022-3.02386-0.01022-4.53592
		C462.67383,336.04596,462.67892,336.04596,462.68405,336.04593z M465.58896,335.99448
		c0.01083,0.00003,0.02173,0.00006,0.03256,0.00009c0,0.87109-0.0596,1.74857,0.03223,2.60986
		c0.03226,0.30283,0.39423,0.75436,0.67664,0.81686c1.82767,0.40451,3.34076-0.73962,3.50229-2.57617
		c0.02771-0.31473,0.0238-0.63403,0.01074-0.95026c-0.07883-1.90823-1.04581-2.90051-2.94147-3.02844
		c-0.93509-0.06308-1.25482,0.21909-1.30682,1.22668C465.56244,334.72531,465.58896,335.3606,465.58896,335.99448z"/>
	<path class="st1" d="M324.99139,334.97003c0,1.03848,0.03934,2.0788-0.00812,3.11514
		c-0.10193,2.22809-1.19785,3.55399-3.35596,4.05093c-0.6145,0.14148-1.26349,0.19995-1.89493,0.18964
		c-3.1001-0.05051-4.74442-1.63354-4.83542-4.71735c-0.05887-1.99512-0.01062-3.99374,0.00845-5.9906
		c0.00458-0.47757,0.04407-1.06537,0.62051-1.14636c0.60538-0.08505,1.25394-0.02066,1.85416,0.11185
		c0.17883,0.03949,0.35791,0.52512,0.36694,0.81171c0.04776,1.51636,0.03662,3.03442,0.05594,4.55179
		c0.00815,0.63818-0.01907,1.28516,0.07635,1.91193c0.1499,0.9841,0.79932,1.54169,1.77231,1.64874
		c1.65002,0.18161,2.36639-0.41357,2.41071-2.12051c0.04761-1.83618-0.00839-3.67502,0.03244-5.51154
		c0.03009-1.35162,0.40805-1.63907,1.79105-1.5217c0.74747,0.06342,1.03232,0.28119,1.06085,1.02313
		c0.04596,1.19614,0.01239,2.39526,0.01239,3.59317C324.96985,334.97,324.98062,334.97003,324.99139,334.97003z"/>
	<path class="st1" d="M273.53333,336.03616c0-1.51318-0.00833-3.02646,0.00403-4.53958
		c0.00516-0.62964,0.27374-1.09872,0.96646-1.12628c1.83078-0.07281,3.65912-0.0889,5.44879,0.41541
		c1.87402,0.52817,2.97208,1.78604,3.37537,3.64825c0.16608,0.76694,0.35345,1.58508,0.2547,2.34396
		c-0.4751,3.6524-2.5213,5.1463-5.70255,5.17764c-0.87619,0.00864-1.7533,0.02243-2.62866-0.00604
		c-1.59094-0.05161-1.70499-0.16446-1.74289-1.85074c-0.03043-1.35355-0.00613-2.70834-0.00613-4.06259
		C273.51276,336.03619,273.52301,336.03616,273.53333,336.03616z M276.1846,336.00241c0,0.63739-0.02094,1.27557,0.00421,1.91196
		c0.05734,1.45221,0.47012,1.74603,1.96207,1.52875c0.74966-0.10919,1.38153-0.41159,1.85397-0.98123
		c1.65466-1.99524,0.5293-5.15002-2.00674-5.55246c-1.43469-0.22766-1.82153,0.08234-1.81366,1.41983
		C276.18771,334.88693,276.18503,335.4447,276.1846,336.00241z"/>
	<path class="st1" d="M459.80853,335.0896c0,1.03781,0.04688,2.07822-0.00992,3.11292
		c-0.11499,2.09509-1.19644,3.38647-3.23132,3.89642c-0.53564,0.13428-1.09787,0.22522-1.64832,0.22742
		c-3.46664,0.01389-5.11441-1.55051-5.20172-4.83371c-0.05304-1.99402-0.02338-3.99161,0.02405-5.9863
		c0.02191-0.92117,0.3844-1.16678,1.41855-1.16711c1.03577-0.00034,1.38632,0.24417,1.42212,1.16464
		c0.05264,1.35526,0.02844,2.71347,0.03995,4.0704c0.0054,0.63849-0.03235,1.28244,0.03687,1.91434
		c0.15891,1.45117,0.96268,2.10126,2.42252,2.03064c1.19485-0.05774,1.73444-0.53632,1.78656-1.78198
		c0.06335-1.51434,0.02087-3.03299,0.03195-4.54974c0.00467-0.63824,0.00623-1.27805,0.05191-1.91406
		c0.03922-0.54678,0.36853-0.86353,0.92191-0.90228c0.31693-0.02222,0.63766-0.02155,0.9548-0.00156
		c0.55148,0.03473,0.91623,0.34378,0.93085,0.88971c0.03424,1.27594,0.01089,2.55338,0.01089,3.8302
		C459.78296,335.08957,459.79575,335.08957,459.80853,335.0896z"/>
	<path class="st1" d="M243.42754,335.96786c0-1.51419-0.01102-3.02844,0.00516-4.54245
		c0.00693-0.65118,0.3548-1.06802,1.02496-1.0593c1.35242,0.01767,2.71524-0.00674,4.05284,0.15726
		c1.14383,0.14023,2.18742,0.68561,2.51816,1.91061c0.36353,1.34647,0.40784,2.69653-0.78041,3.75174
		c-0.17844,0.15845-0.36166,0.31305-0.55382,0.45428c-0.39983,0.29376-0.39484,0.66138-0.18048,1.0452
		c0.62088,1.11176,1.27118,2.20746,1.87564,3.32794c0.22337,0.41403-0.01331,0.80618-0.45241,0.87543
		c-1.65373,0.26083-2.15323,0.04642-2.97751-1.29114c-0.12514-0.20309-0.19243-0.44958-0.3437-0.62726
		c-0.37918-0.44537-0.45355-1.17435-1.18469-1.2963c-0.0414,0.55191-0.08357,1.10379-0.12387,1.65579
		c-0.01743,0.23837-0.0183,0.47864-0.04881,0.71518c-0.07156,0.55505-0.41267,0.8356-0.9556,0.86688
		c-0.31676,0.01825-0.63707,0.01746-0.95328-0.0069c-0.55704-0.04294-0.8777-0.37473-0.90482-0.91684
		c-0.04375-0.87497-0.04317-1.75232-0.05133-2.62878c-0.00742-0.797-0.00159-1.59421-0.00159-2.39133
		C243.40384,335.9679,243.41566,335.96786,243.42754,335.96786z M247.12238,332.84525
		c-0.56351,0.01404-0.80241,0.38626-0.78156,1.21756c0.01717,0.6846,0.26622,1.00903,0.75505,0.98349
		c0.78154-0.0408,1.41084-0.70236,1.3093-1.3764C248.33084,333.17627,247.79002,332.82858,247.12238,332.84525z"/>
	<path class="st1" d="M441.09006,317.38297c0-1.51459-0.03021-3.02997,0.01135-4.5434
		c0.02502-0.90955,0.27536-1.19409,1.14166-1.18649c1.42813,0.01254,2.89621-0.04871,4.27393,0.25488
		c2.49371,0.54956,3.29044,3.55573,1.55991,5.46674c-0.10587,0.11691-0.25235,0.19608-0.36581,0.30728
		c-0.79617,0.7803-0.80496,0.78732-0.23837,1.75989c0.56146,0.96371,1.16141,1.90527,1.71432,2.87375
		c0.31702,0.55515,0.10431,0.87762-0.56723,0.91046c-0.39749,0.01944-0.79703-0.00464-1.1951,0.00742
		c-0.72147,0.02185-1.2038-0.32776-1.5256-0.94614c-0.07352-0.1412-0.14026-0.29446-0.24606-0.40897
		c-0.56903-0.61575-0.45535-1.7338-1.48019-2.01135c-0.0755,0.77951-0.1412,1.56012-0.22952,2.3382
		c-0.08057,0.70932-0.3501,0.94962-1.07782,1.00912c-1.3768,0.11267-1.74759-0.17554-1.7836-1.52649
		c-0.03818-1.43399-0.00861-2.86984-0.00861-4.30487C441.07889,317.383,441.08447,317.383,441.09006,317.38297z
		 M444.01572,315.11826c-0.04279,0.81244,0.20035,1.21841,0.72958,1.21823c0.72308-0.00018,1.29886-0.41537,1.38214-0.99661
		c0.086-0.60037-0.40442-1.12949-1.13129-1.22049C444.39432,314.04404,444.05405,314.39072,444.01572,315.11826z"/>
	<path class="st1" d="M336.96274,336.03003c0-1.43369-0.03137-2.86826,0.00992-4.30075
		c0.03305-1.14764,0.2572-1.3653,1.45459-1.38696c1.11258-0.02017,2.23126,0.01221,3.33945,0.10999
		c1.24759,0.11008,2.48407,0.55103,2.82672,1.83597c0.38538,1.44531,0.56305,2.99469-0.92438,4.13666
		c-0.83569,0.6416-0.7937,0.70596-0.30887,1.51587c0.57239,0.95612,1.15833,1.90485,1.70264,2.87677
		c0.45041,0.80426,0.23108,1.02606-0.73715,1.15076c-1.39816,0.18011-2.26175-0.41843-2.8519-1.61557
		c-0.31628-0.64163-0.68967-1.25601-1.05692-1.87094c-0.06967-0.11667-0.23196-0.17804-0.35147-0.26495
		c-0.0582,0.1279-0.16159,0.25391-0.16708,0.38406c-0.0304,0.71582-0.01016,1.43442-0.05814,2.14868
		c-0.06348,0.94537-0.36545,1.18253-1.39847,1.18985c-1.04346,0.00742-1.4205-0.2366-1.44675-1.13168
		c-0.04678-1.59131-0.01315-3.18503-0.01315-4.77774C336.97543,336.03003,336.96909,336.03003,336.96274,336.03003z
		 M339.90359,333.823c-0.04184,0.7984,0.17749,1.17722,0.71704,1.23865c0.78058,0.0889,1.4852-0.42947,1.49792-1.10205
		c0.01126-0.59134-0.52579-1.0838-1.23694-1.13434C340.24899,332.78033,339.94177,333.09375,339.90359,333.823z"/>
	<path class="st1" d="M220.50819,316.07257c0,1.03818,0.05479,2.07983-0.01048,3.11386
		c-0.18163,2.87701-1.72969,4.35211-4.59784,4.43573c-0.47783,0.01395-0.96292,0.01965-1.43483-0.04388
		c-2.36325-0.31827-3.30647-1.22287-3.85466-3.57059c-0.57178-2.44882-0.27423-4.92548-0.26765-7.39148
		c0.0018-0.6756,0.36418-0.92523,1.10339-0.97894c1.3575-0.09863,1.70584,0.19095,1.74577,1.57382
		c0.0369,1.27682,0.00688,2.55551,0.01764,3.83322c0.0047,0.55826-0.00922,1.12268,0.06653,1.67316
		c0.22151,1.60916,1.03598,2.22638,2.61328,2.07999c0.814-0.0755,1.37091-0.4812,1.56323-1.25165
		c0.19131-0.76642,0.33727-1.5592,0.3726-2.34625c0.06445-1.43491,0.03252-2.87411,0.04071-4.31152
		c0.00748-1.31503,0.98975-1.44196,2.04752-1.10385c0.2632,0.08414,0.52533,0.60303,0.54565,0.93689
		c0.06787,1.11353,0.02574,2.2338,0.02574,3.35147C220.49258,316.07254,220.50041,316.07257,220.50819,316.07257z"/>
	<path class="st1" d="M473.9913,323.24289c-0.90582,0.13623-1.67957-0.2059-2.00232-1.3468
		c-0.23047-0.81458-0.85251-1.08261-1.65652-1.04498c-0.47699,0.02231-0.95596,0.01169-1.43381,0.00418
		c-0.69714-0.01089-1.14957,0.23105-1.48499,0.9245c-0.71021,1.46814-1.06766,1.60828-2.56207,1.41144
		c-0.53772-0.07077-0.81039-0.47528-0.62274-1.02838c0.2554-0.75302,0.56857-1.4863,0.85181-2.23004
		c0.9064-2.38031,1.83002-4.75439,2.70392-7.14664c0.2821-0.77219,0.72092-1.15488,1.56406-1.17886
		c1.65048-0.04684,1.91879,0.03442,2.5314,1.564c1.15408,2.88141,2.2529,5.78531,3.34741,8.69012
		C475.64749,322.97623,475.435,323.22186,473.9913,323.24289z M469.38364,318.39624
		c1.01599,0.01691,1.28146-0.26331,1.08182-0.97299c-0.12775-0.45419-0.31165-0.8952-0.50708-1.32544
		c-0.03561-0.07834-0.35779-0.11972-0.36377-0.10489c-0.25986,0.65259-0.53589,1.30417-0.70544,1.98206
		C468.85999,318.09149,469.29468,318.32401,469.38364,318.39624z"/>
	<path class="st1" d="M352.73697,323.23956c-0.80173,0.08182-1.5816-0.11609-1.87335-1.19482
		c-0.24606-0.90979-0.89456-1.25671-1.80466-1.19345c-0.23761,0.01654-0.47882,0.01608-0.71619-0.0033
		c-1.13696-0.0928-1.9516,0.1796-2.36996,1.43402c-0.32092,0.96219-1.92923,1.2952-2.8327,0.74533
		c-0.10828-0.06595-0.20618-0.25183-0.2016-0.37823c0.00845-0.23157,0.07285-0.46933,0.1557-0.68869
		c1.15289-3.05069,2.32965-6.09253,3.46051-9.15131c0.32858-0.88873,0.91162-1.20532,1.8154-1.20416
		c0.92703,0.00116,1.74756,0.08295,2.13934,1.10709c1.16525,3.0459,2.36224,6.07974,3.51315,9.13098
		C354.41843,322.8924,354.11917,323.22171,352.73697,323.23956z M349.33365,317.72437c-0.10312-0.9567-0.75-2.02786-0.8941-1.80161
		c-0.3197,0.50208-0.53082,1.08304-0.71664,1.65445c-0.05405,0.16623,0.08774,0.5564,0.20834,0.58884
		c0.3475,0.09344,0.74069,0.11197,1.09369,0.04419C349.16879,318.18256,349.25537,317.85657,349.33365,317.72437z"/>
	<path class="st1" d="M307.2482,311.64099c1.02493-0.1409,1.71552,0.13702,2.09665,1.16495
		c1.05487,2.84497,2.18338,5.66254,3.27167,8.49521c0.14221,0.37012,0.26578,0.76047,0.30609,1.15091
		c0.01941,0.18738-0.12329,0.49677-0.28223,0.58026c-1.01511,0.53314-2.24249,0.16248-2.86856-0.7843
		c-0.29788-0.45035-0.60983-1.15668-1.00555-1.22501c-0.99954-0.17264-2.06247-0.13614-3.07315,0.00659
		c-0.31647,0.04465-0.62808,0.66165-0.79898,1.07565c-0.26987,0.65372-0.63446,1.08405-1.38068,1.12042
		c-2.00528,0.09787-2.04208-0.14624-1.43494-1.77563c1.05963-2.84357,2.16776-5.66904,3.2359-8.50946
		C305.66571,312.00629,306.21896,311.4397,307.2482,311.64099z M308.11523,317.67731
		c-0.1839-0.54611-0.34369-1.07132-0.54623-1.57947c-0.04053-0.10168-0.25284-0.20319-0.3696-0.18701
		c-0.11859,0.01642-0.26871,0.15887-0.31488,0.2804c-0.16663,0.43866-0.36078,0.88455-0.41129,1.34244
		c-0.02609,0.23651,0.16791,0.62308,0.37167,0.72638c0.23895,0.12115,0.61966,0.07172,0.89432-0.02728
		C307.90558,318.17282,307.98749,317.87866,308.11523,317.67731z"/>
	<path class="st1" d="M438.43286,341.95529c-0.87619,0.10815-1.67957-0.13544-1.97162-1.33875
		c-0.19647-0.80945-0.84692-1.08652-1.65106-1.05286c-0.47632,0.01996-0.95538,0.02588-1.43094-0.00113
		c-0.82755-0.04697-1.28391,0.34583-1.63925,1.08316c-0.63135,1.30994-0.97562,1.44354-2.38672,1.258
		c-0.53812-0.07077-0.814-0.46649-0.63748-1.02118c0.24048-0.75574,0.52859-1.49689,0.81168-2.2384
		c0.90665-2.37534,1.85202-4.73654,2.71664-7.12698c0.37222-1.02908,1.07388-1.22485,2.04028-1.20697
		c0.88147,0.01639,1.53885,0.24597,1.87558,1.12912c1.16049,3.04361,2.35712,6.07367,3.49329,9.12625
		C440.08154,341.71613,439.86951,341.9429,438.43286,341.95529z M434.13065,334.59732
		c-0.06171,0.0488-0.15775,0.08548-0.17984,0.14822c-0.2099,0.59537-0.45361,1.18607-0.57358,1.80035
		c-0.02786,0.14252,0.35828,0.49844,0.5892,0.53531c0.88297,0.14087,1.23517-0.26901,0.9563-1.04117
		c-0.13498-0.37381-0.30099-0.73813-0.47867-1.09393C434.37674,334.81125,434.2374,334.71234,434.13065,334.59732z"/>
	<path class="st1" d="M232.72975,317.39371c0-1.43176-0.03195-2.86444,0.00975-4.29498
		c0.03519-1.20572,0.24908-1.44138,1.37953-1.4631c1.10983-0.02133,2.23088-0.00388,3.33067,0.13037
		c1.45255,0.17731,2.52928,0.94269,2.9481,2.41315c0.3929,1.37952-0.13734,2.46375-1.13452,3.41626
		c-0.86876,0.82983-0.84084,0.85931-0.22949,1.94644c0.54439,0.96799,1.10333,1.92825,1.62578,2.90796
		c0.17706,0.332,0.03001,0.64035-0.34071,0.71674c-1.65428,0.34091-2.30078,0.03156-3.19139-1.30408
		c-0.459-0.68832-0.58997-1.651-1.53215-1.96686c-0.08032,0.7677-0.1514,1.53653-0.24355,2.3028
		c-0.09271,0.7706-0.43329,1.02744-1.30888,1.02139c-0.86455-0.00598-1.24814-0.26505-1.27124-1.05521
		c-0.04645-1.58902-0.01382-3.18042-0.01382-4.77078C232.74846,317.39377,232.73912,317.39374,232.72975,317.39371z
		 M237.55492,315.21988c0.00656-0.63751-0.52254-1.10419-1.25917-1.11053c-0.57439-0.00491-0.87225,0.38223-0.87617,1.13873
		c-0.00394,0.75577,0.29636,1.12799,0.89157,1.10498C237.05255,316.32446,237.54819,315.87289,237.55492,315.21988z"/>
	<path class="st1" d="M375.47369,316.0481c0,1.11636,0.05112,2.23553-0.0105,3.34845
		c-0.13483,2.43521-0.90173,3.5527-3.76782,4.15927c-1.16565,0.24667-2.37537,0.10986-3.53671-0.2948
		c-1.52054-0.52985-2.42627-1.61111-2.49039-3.16626c-0.10175-2.46704-0.03903-4.94232,0.00549-7.41318
		c0.01419-0.78638,0.42944-1.05853,1.28293-1.04184c0.81729,0.01599,1.15323,0.29355,1.18384,1.1488
		c0.04849,1.35406,0.01712,2.71075,0.04324,4.06589c0.01379,0.71594,0.01508,1.44141,0.13275,2.14404
		c0.21494,1.28314,0.8623,1.79929,2.11246,1.81253c1.2565,0.01324,1.96075-0.47223,2.23047-1.70572
		c0.151-0.69064,0.13446-1.42273,0.15039-2.13715c0.03198-1.43457,0.00204-2.87112,0.06198-4.30417
		c0.03241-0.77457,0.42728-1.03363,1.30157-1.0271c0.86441,0.00647,1.23245,0.26538,1.26886,1.06378
		c0.05081,1.11371,0.01282,2.23141,0.01282,3.34741C375.46127,316.04807,375.46747,316.0481,375.47369,316.0481z"/>
	<path class="st1" d="M284.68134,317.36493c0-1.51761-0.03018-3.03604,0.01151-4.55246
		c0.02441-0.88776,0.28171-1.14838,1.17084-1.16766c1.67609-0.03635,3.35434-0.02606,5.03046,0.01538
		c0.6604,0.01633,0.93463,0.40182,0.95969,1.1149c0.03079,0.87384-0.23151,1.25049-1.00937,1.31195
		c-0.79501,0.06287-1.59689,0.03613-2.39291,0.09055c-0.57413,0.03925-0.84311,0.40842-0.79895,0.95834
		c0.03879,0.48303,0.32925,0.71158,0.76959,0.7403c0.63684,0.0415,1.27707,0.02808,1.91479,0.05981
		c1.24973,0.06216,1.5437,0.32373,1.51886,1.31503c-0.02182,0.87137-0.31094,1.12592-1.40775,1.18503
		c-0.6377,0.03439-1.27936,0.00488-1.91571,0.05173c-0.68228,0.0502-0.92914,0.37808-0.92538,1.12192
		c0.00366,0.72141,0.25797,1.03326,0.96774,1.08026c0.79623,0.05273,1.59824,0.02563,2.39319,0.08975
		c0.62079,0.05005,0.88553,0.44736,0.89127,1.18396c0.00589,0.75589-0.24472,1.19849-0.8508,1.21481
		c-1.75519,0.04724-3.51273,0.05334-5.26828,0.01956c-0.72696-0.01398-1.00485-0.30798-1.03772-1.0416
		c-0.05368-1.19608-0.03717-2.39532-0.0481-3.59326c-0.00363-0.39938-0.00049-0.79886-0.00049-1.1983
		C284.66296,317.36493,284.67218,317.36493,284.68134,317.36493z"/>
	<path class="st1" d="M252.022,323.23141c-1.19655,0-2.39359,0.02069-3.58946-0.00742
		c-0.77034-0.01807-1.02675-0.44162-0.64134-1.06931c1.00066-1.62967,2.0388-3.23621,3.05544-4.85608
		c0.46596-0.74249,0.93738-1.48291,1.36703-2.2464c0.29092-0.51694,0.04283-0.92462-0.58073-0.96863
		c-0.87381-0.06168-1.75377-0.04773-2.62498-0.13028c-0.61253-0.05801-0.89789-0.50049-0.88722-1.1955
		c0.01048-0.68356,0.3062-1.09125,0.97375-1.0983c2.47142-0.02618,4.94357-0.01736,7.41498,0.01352
		c0.59229,0.00742,0.78641,0.45105,0.44839,1.01114c-0.98878,1.63824-2.00804,3.25812-3.0163,4.88461
		c-0.336,0.54205-0.69177,1.07257-1.00923,1.62515c-0.82225,1.43103-0.74007,1.58551,0.82909,1.63306
		c0.71727,0.0217,1.43831-0.00394,2.15131,0.06131c0.76193,0.06964,1.06906,0.51346,1.01471,1.32281
		c-0.04486,0.66693-0.31381,0.96942-1.07741,0.99405c-1.27478,0.04108-2.55188,0.01117-3.82799,0.01117
		C252.022,323.22137,252.022,323.22638,252.022,323.23141z"/>
	<path class="st1" d="M400.72684,323.19159c-0.97183-0.20432-2.50848,0.52328-3.90656-0.32819
		c0.34167-1.52188,1.4263-2.63794,2.16748-3.94034c0.78857-1.38583,1.65878-2.72504,2.46649-4.10037
		c0.20837-0.35483-0.03146-0.65817-0.37292-0.69171c-0.87213-0.08557-1.75421-0.06595-2.62775-0.14133
		c-0.88113-0.07608-1.23181-0.5809-1.09784-1.47766c0.06424-0.43008,0.26624-0.7648,0.72806-0.8125
		c0.5542-0.05722,1.11362-0.08374,1.67099-0.08676c1.75732-0.00952,3.51508-0.02234,5.27203,0.00571
		c1.40411,0.02243,1.53784,0.28839,0.80453,1.5679c-0.4364,0.76141-0.93066,1.48962-1.397,2.23404
		c-0.84735,1.35263-1.71063,2.69574-2.53418,4.06277c-0.61304,1.01755-0.4845,1.27322,0.61493,1.32727
		c0.87698,0.04306,1.75912,0.00851,2.6329,0.0813c0.75342,0.06274,1.05441,0.53241,0.99359,1.34348
		c-0.0412,0.54996-0.30942,0.93231-0.86578,0.94571C403.91959,323.21365,402.56201,323.19159,400.72684,323.19159z"/>
	<path class="st1" d="M201.21394,336.15082c0.02831,2.72244,2.09026,4.18689,4.56024,3.3746
		c0.52795-0.17371,1.02377-0.44638,1.55344-0.61304c0.35857-0.11282,0.60077,0.09958,0.65529,0.47086
		c0.24792,1.68781-0.05453,2.18939-1.61513,2.64584c-2.21451,0.6478-4.24829,0.34656-6.06143-1.15427
		c-2.02086-1.6727-2.46455-3.8508-1.92484-6.27234c0.54427-2.44199,2.21132-3.72128,4.59335-4.33002
		c1.22881-0.314,2.35501-0.14099,3.52611,0.07831c1.59998,0.29959,1.69081,1.22897,1.41505,2.70975
		c-0.02371,0.12732-0.39757,0.31238-0.55482,0.27008c-0.61247-0.16473-1.19078-0.45865-1.8045-0.61594
		c-1.32942-0.34079-2.52176-0.02515-3.50781,0.93372C201.30399,334.37268,201.16241,335.31381,201.21394,336.15082z"/>
	<path class="st1" d="M352.52216,336.26682c-0.21967-3.50052,2.9805-6.65491,7.25064-6.05945
		c0.47342,0.06601,0.95361,0.11441,1.41458,0.23328c1.02719,0.26483,1.30655,0.63959,1.33545,1.68008
		c0.03336,1.19897-0.26471,1.45197-1.34116,0.9812c-1.21817-0.53271-2.41483-0.7778-3.67343-0.19043
		c-1.61765,0.755-2.45682,2.75638-1.85645,4.42526c0.72089,2.0036,2.35126,2.87537,4.3143,2.27496
		c0.60703-0.18564,1.18185-0.47464,1.78461-0.67709c0.38309-0.1286,0.58484,0.09671,0.62469,0.46811
		c0.18927,1.76453-0.15778,2.27176-1.87421,2.73798c-2.77826,0.75458-6.33167-0.48343-7.38449-3.34711
		C352.82028,337.98746,352.71509,337.11099,352.52216,336.26682z"/>
	<path class="st1" d="M411.93909,311.65073c0.79688,0,1.5965-0.04083,2.38983,0.01215
		c0.71475,0.04776,0.98795,0.50134,0.93661,1.37109c-0.04254,0.72128-0.27856,0.99783-1.02386,1.05365
		c-0.79398,0.05945-1.59378,0.03796-2.38885,0.08685c-0.44022,0.02701-0.72153,0.28262-0.7757,0.74606
		c-0.06119,0.52328,0.23938,0.92407,0.79718,0.9646c0.87299,0.06342,1.75189,0.05313,2.62323,0.1308
		c0.58612,0.05225,0.74429,0.51187,0.77026,1.02966c0.03864,0.7692-0.19418,1.20279-0.72464,1.31018
		c-0.23282,0.04718-0.49167,0.0094-0.70691,0.09253c-0.94781,0.36624-2.78397-0.87317-2.74414,1.19678
		c0.03439,1.78745,1.68512,0.83127,2.62158,1.08044c0.22684,0.06033,0.47723,0.02576,0.71201,0.06412
		c0.60593,0.099,0.86011,0.4722,0.85117,1.21838c-0.00891,0.74304-0.26163,1.1546-0.89609,1.17123
		c-1.67178,0.04376-3.3457,0.03528-5.0181,0.00714c-0.56174-0.00946-0.82062-0.41727-0.8786-0.95084
		c-0.01721-0.15833-0.03275-0.31793-0.03284-0.47693c-0.00238-2.87021-0.02585-5.74072,0.0079-8.61057
		c0.01535-1.30881,0.22537-1.47272,1.56662-1.5278c0.63678-0.02615,1.27548-0.00446,1.9133-0.00446
		C411.93906,311.62744,411.93906,311.63907,411.93909,311.65073z"/>
	<path class="st1" d="M210.66179,336.04639c0-1.4389-0.03352-2.87878,0.01054-4.31635
		c0.03561-1.16104,0.24905-1.3645,1.46931-1.38885c1.51726-0.03027,3.03706-0.0116,4.55368,0.04358
		c0.64188,0.02335,0.89688,0.42456,0.90866,1.16681c0.01189,0.74954-0.23894,1.16254-0.84789,1.21823
		c-0.79404,0.0726-1.59537,0.06284-2.3931,0.0986c-0.52774,0.02365-0.93158,0.20557-0.95906,0.82303
		c-0.02414,0.54276,0.25609,0.87131,0.86012,0.91003c0.71722,0.04602,1.43915,0.01984,2.15622,0.06744
		c0.87433,0.05811,1.15437,0.35562,1.18059,1.1619c0.03004,0.92349-0.26712,1.24347-1.28136,1.30841
		c-0.63747,0.04083-1.27971,0.0079-1.91705,0.04987c-0.7589,0.04993-1.00917,0.31879-1.03943,1.02432
		c-0.03586,0.83527,0.25502,1.22321,1.04289,1.28885c0.71581,0.05963,1.43977,0.02625,2.15424,0.09534
		c0.76881,0.07425,1.07596,0.50757,1.02509,1.31891c-0.04196,0.66925-0.31305,0.98236-1.07489,0.99957
		c-1.59727,0.03607-3.19623,0.01987-4.79411-0.00314c-0.66884-0.00961-0.99741-0.41458-1.0296-1.07144
		c-0.00783-0.15958-0.02876-0.31891-0.02901-0.47836c-0.00232-1.43893-0.00134-2.87781-0.00134-4.31674
		C210.65813,336.04639,210.65996,336.04639,210.66179,336.04639z"/>
	<path class="st1" d="M286.01068,336.00558c0.00092-1.51865-0.02704-3.03802,0.01288-4.5556
		c0.01953-0.74295,0.3136-1.06247,1.00723-1.07642c1.67667-0.03381,3.3555-0.02728,5.0318,0.02145
		c0.61694,0.01791,0.87292,0.45325,0.86884,1.19806c-0.00406,0.74359-0.25934,1.13309-0.88898,1.18759
		c-0.87418,0.07562-1.7561,0.05942-2.63098,0.12909c-0.46005,0.03662-0.67737,0.36542-0.6796,0.82394
		c-0.0022,0.45563,0.20145,0.79642,0.66507,0.83426c0.87463,0.07132,1.75656,0.05493,2.63083,0.12933
		c0.63565,0.05411,0.89368,0.43634,0.90347,1.17627c0.00989,0.74918-0.24152,1.15689-0.85236,1.21558
		c-0.71408,0.06857-1.43655,0.04471-2.15399,0.08508c-0.96155,0.05414-1.22446,0.29419-1.23862,1.07837
		c-0.0162,0.89337,0.29688,1.20621,1.32373,1.27267c0.63766,0.04126,1.28171,0.00821,1.91565,0.07626
		c0.74979,0.08051,1.10861,0.55283,0.95825,1.34937c-0.06186,0.32758-0.39059,0.85315-0.61545,0.8624
		c-1.83084,0.07535-3.6665,0.07935-5.49918,0.03741c-0.58066-0.01331-0.74896-0.54269-0.75388-1.04932
		C286.00003,339.20294,286.00977,337.60425,286.01068,336.00558z"/>
	<path class="st1" d="M422.6933,342.30896c-0.74945-0.11169-1.75623-0.30603-2.56317-1.05399
		c-0.60034-0.55646-0.64157-1.01184-0.11255-1.63824c0.63452-0.75128,0.81528-0.8035,1.73172-0.23389
		c0.56552,0.3515,1.1351,0.65149,1.78491,0.42462c0.3461-0.12085,0.78738-0.39554,0.87936-0.69489
		c0.08783-0.28595-0.12967-0.7908-0.37753-1.02603c-0.39377-0.37372-0.92981-0.59485-1.39578-0.89578
		c-0.66745-0.43103-1.43213-0.77435-1.96771-1.33447c-1.38907-1.45273-1.49942-2.94061-0.13556-4.44083
		c1.60721-1.76797,4.42786-1.74307,6.2179-0.09802c0.10187,0.0936,0.16299,0.28336,0.16232,0.42801
		c-0.00314,0.68307-1.2554,1.43335-1.95761,1.18506c-0.44153-0.1561-0.88379-0.44394-1.3208-0.43488
		c-0.32623,0.00677-0.72491,0.33322-0.94659,0.62668c-0.29245,0.38721-0.0105,0.79227,0.31836,1.01004
		c0.85956,0.56918,1.75729,1.08084,2.64178,1.61218c0.94153,0.56555,1.54004,1.33713,1.64261,2.47745
		C427.53098,340.84534,425.80975,342.49628,422.6933,342.30896z"/>
	<path class="st1" d="M338.28546,311.23685c0.63058,0.24777,1.45789,0.51901,2.23193,0.89877
		c0.41507,0.20367,0.81366,0.58258,0.59042,1.1514c-0.33185,0.84558-1.16248,1.27686-1.83917,0.87497
		c-0.67398-0.4003-1.26703-0.64444-1.97159-0.12347c-0.45007,0.33279-0.58423,0.88574-0.18719,1.2092
		c0.48792,0.39752,1.03348,0.72787,1.57117,1.05972c0.60864,0.37564,1.29214,0.6506,1.84488,1.09229
		c1.61725,1.29239,1.69141,3.60043,0.21771,5.05859c-1.52307,1.50699-4.54874,1.56055-6.14291,0.1087
		c-0.78192-0.7121-0.56134-1.89688,0.45538-2.30423c0.18143-0.07272,0.46652-0.01367,0.65295,0.08276
		c0.27847,0.14404,0.48508,0.45682,0.77066,0.55057c0.43704,0.14355,0.93527,0.27386,1.36945,0.19635
		c0.32422-0.05792,0.74075-0.40546,0.83591-0.71124c0.09348-0.30042-0.05161-0.87076-0.29248-1.04416
		c-0.83521-0.60129-1.76315-1.07239-2.64545-1.61002c-1.09174-0.66531-1.76465-1.58347-1.75949-2.92383
		c0.00552-1.44287,0.70975-2.44479,1.98257-2.99966C336.61572,311.52219,337.35483,311.45554,338.28546,311.23685z"/>
	<path class="st1" d="M363.01788,319.79507c-0.01706,2.01984-0.54398,2.84436-2.21484,3.48596
		c-1.77063,0.67993-3.44128,0.41602-4.94308-0.73499c-0.62186-0.47662-0.62381-0.99991-0.11145-1.6532
		c0.55374-0.70612,0.91595-0.83252,1.55472-0.39944c0.60666,0.41141,1.20389,0.88873,1.95697,0.58997
		c0.39975-0.1586,0.81561-0.5195,0.99268-0.89752c0.09348-0.19958-0.22989-0.74637-0.50381-0.93723
		c-0.78003-0.5434-1.63568-0.97717-2.45346-1.46759c-1.3754-0.82489-1.99503-2.03146-1.707-3.62399
		c0.08133-0.44952,0.267-0.92847,0.54416-1.2858c1.10547-1.42548,3.90411-2.32123,6.00549-0.63513
		c0.36813,0.29538,0.7348,0.66467,0.45267,1.21878c-0.38065,0.74759-1.08426,1.0947-1.72018,0.84082
		c-0.36755-0.14679-0.70059-0.45392-1.07156-0.49722c-0.35233-0.04117-0.76825,0.10422-1.09396,0.28177
		c-0.41556,0.22656-0.46652,0.68335-0.1911,1.02405c0.28867,0.35703,0.6778,0.65588,1.07336,0.89783
		c0.54129,0.33112,1.14056,0.56583,1.69653,0.875C362.50464,317.55594,363.20731,318.53546,363.01788,319.79507z"/>
	<path class="st1" d="M404.69696,330.32901c0.96411-0.19525,1.56305,0.45218,2.10855,1.3378
		c0.43573,0.70731,0.4509,1.72009,1.41089,2.07071c0.39413-0.6846,0.79257-1.36676,1.18152-2.05429
		c0.73267-1.29529,2.02991-1.76486,3.40118-1.15967c0.1366,0.06027,0.22583,0.5928,0.11841,0.78217
		c-0.70633,1.24518-1.3891,2.51862-2.24164,3.66202c-0.96075,1.28857-1.3721,2.66168-1.24091,4.23749
		c0.0329,0.3952,0.01456,0.79666-0.00568,1.19388c-0.06876,1.34888-0.41122,1.63727-1.78531,1.5267
		c-0.72165-0.05807-1.02734-0.3071-1.07477-1.00793c-0.05365-0.79318-0.10107-1.59671-0.0351-2.38599
		c0.11951-1.42993-0.33868-2.63904-1.14441-3.78781c-0.63882-0.91077-1.21844-1.86804-1.76108-2.84
		C402.96255,330.71112,403.19702,330.3345,404.69696,330.32901z"/>
	<path class="st1" d="M226.58211,311.66791c1.03494,0,2.07095-0.02792,3.10442,0.01129
		c0.55519,0.02103,0.82944,0.40863,0.85323,0.9537c0.02432,0.5592,0.07068,1.15186-0.61215,1.38278
		c-0.5135,0.17361-1.32491,0.13751-1.50778,0.46866c-0.31598,0.57214-0.3098,1.35535-0.32681,2.0527
		c-0.04076,1.67261-0.02026,3.34683-0.01736,5.02039c0.00247,1.43091-0.29454,1.77881-1.90248,1.64124
		c-0.67517-0.0578-0.94037-0.32849-0.97217-1.1051c-0.04883-1.19354-0.03255-2.38983-0.04042-3.58496
		c-0.00685-1.03598,0.01749-2.07291-0.02084-3.10764c-0.03545-0.95731-0.17749-1.09399-1.06937-1.24484
		c-0.23457-0.03964-0.48015-0.01553-0.71397-0.0578c-0.91618-0.16571-1.38393-1.1535-0.88774-1.97287
		c0.13863-0.22894,0.50002-0.44055,0.76859-0.4527c1.11296-0.05026,2.22954-0.02109,3.34479-0.02109
		C226.58205,311.6571,226.58208,311.66248,226.58211,311.66791z"/>
	<path class="st1" d="M297.59915,311.66946c1.03448,0,2.07007-0.02853,3.10297,0.01151
		c0.55649,0.02155,0.82437,0.41467,0.84714,0.95844c0.02338,0.55978,0.06528,1.1496-0.61835,1.3783
		c-0.51373,0.17194-1.32401,0.13922-1.50583,0.47025c-0.31473,0.573-0.30673,1.35587-0.32355,2.05338
		c-0.04031,1.67197-0.02017,3.34543-0.01727,5.01831c0.00244,1.42795-0.28983,1.77585-1.90247,1.64072
		c-0.66815-0.05588-0.94165-0.33661-0.9726-1.10449c-0.0481-1.19312-0.03256-2.38885-0.03973-3.5835
		c-0.00577-0.9559,0.01688-1.91254-0.01279-2.86761c-0.03784-1.21783-0.04776-1.2532-1.30807-1.51007
		c-0.59726-0.12173-1.06946-0.24969-1.14459-0.95911c-0.11102-1.04788,0.21524-1.48999,1.26703-1.53967
		c0.87421-0.04135,1.75189-0.00848,2.62805-0.00848C297.59912,311.64145,297.59915,311.65546,297.59915,311.66946z"/>
	<path class="st1" d="M441.56262,335.9176c0-1.42944-0.03125-2.8598,0.01065-4.28799
		c0.02951-1.00726,0.33102-1.26016,1.29471-1.29056c1.22742-0.03873,1.5434,0.22733,1.57892,1.49313
		c0.0401,1.4285,0.0148,2.85883,0.01794,4.28836c0.00125,0.55591-0.01248,1.11237,0.00681,1.66769
		c0.05438,1.56207,0.11813,1.62943,1.59091,1.74515c0.39539,0.03107,0.79639,0.0083,1.18863,0.05841
		c0.76102,0.09732,1.05988,0.50922,1.00293,1.31979c-0.04791,0.68155-0.30463,0.98526-1.05759,1.00473
		c-1.50732,0.03897-3.01727,0.04214-4.52429-0.00226c-0.8212-0.02417-1.0715-0.30826-1.09479-1.23209
		c-0.03995-1.58722-0.01102-3.17618-0.01102-4.76437C441.56516,335.9176,441.5639,335.9176,441.56262,335.9176z"/>
	<path class="st1" d="M435.06653,311.6171c0.87589,0,1.75272-0.02557,2.62744,0.00632
		c1.1521,0.04205,1.41644,0.26804,1.45432,1.12692c0.04083,0.92657-0.17493,1.17444-1.2074,1.36771
		c-0.15543,0.02911-0.31702,0.03021-0.47604,0.03448c-0.69196,0.01855-1.00095,0.41034-1.00748,1.06332
		c-0.01672,1.67188-0.01971,3.3439-0.02957,5.01587c-0.0033,0.55731,0.01468,1.11633-0.02194,1.6716
		c-0.07138,1.08112-0.4295,1.37479-1.52087,1.30344c-0.72729-0.04755-1.05405-0.2868-1.07889-0.99554
		c-0.05576-1.59067-0.04471-3.18369-0.05865-4.77573c-0.00415-0.47772-0.00241-0.95554-0.00064-1.43329
		c0.00497-1.31891-0.01904-1.97226-1.68152-1.9003c-0.62234,0.02698-1.06647-0.23199-1.14029-0.93698
		c-0.10938-1.0448,0.21606-1.4826,1.27563-1.5293c0.95355-0.04202,1.91046-0.00888,2.86591-0.00888
		C435.06653,311.62354,435.06653,311.6203,435.06653,311.6171z"/>
	<path class="st1" d="M237.48825,330.36566c1.03468,0,2.07095-0.03476,3.10339,0.01306
		c0.61897,0.02866,0.88136,0.44101,0.89128,1.17764c0.01022,0.75513-0.20639,1.08176-0.83427,1.23129
		c-0.15347,0.03656-0.31822,0.02298-0.47427,0.05176c-1.3593,0.25064-1.38098,0.25146-1.40932,1.65988
		c-0.02888,1.43274-0.00761,2.86646-0.01028,4.29974c-0.00102,0.55737,0.01456,1.11591-0.01578,1.67181
		c-0.06786,1.2421-0.44594,1.56805-1.62126,1.44147c-0.69168-0.07449-0.95038-0.31262-0.99706-1.08389
		c-0.0528-0.87305-0.0369-1.75046-0.04451-2.62598c-0.01248-1.43301-0.01306-2.86618-0.03233-4.2991
		c-0.0089-0.66312-0.34775-1.02621-1.03082-1.04132c-0.23846-0.00528-0.48032-0.01096-0.71391-0.05356
		c-0.93585-0.1705-1.39925-1.12317-0.90431-1.95102c0.13728-0.22968,0.48906-0.45224,0.75227-0.46439
		c1.11165-0.05121,2.22699-0.02173,3.341-0.02173C237.48813,330.36945,237.48819,330.36755,237.48825,330.36566z"/>
	<path class="st1" d="M331.03674,330.3576c1.03482,0,2.07095-0.03149,3.104,0.01108
		c0.68301,0.02814,0.96304,0.38028,1.00333,1.07187c0.05057,0.86768-0.18253,1.21826-0.95114,1.35635
		c-0.3898,0.07007-0.8154,0.01331-1.17664,0.14551c-0.24945,0.09125-0.55161,0.3848-0.59357,0.62869
		c-0.10693,0.62125-0.09857,1.26514-0.10535,1.9003c-0.01862,1.75146-0.01111,3.50327-0.03711,5.25458
		c-0.00711,0.48132-0.08722,1.03989-0.67624,1.099c-0.5213,0.05237-1.11273,0.01337-1.57458-0.19937
		c-0.23782-0.10956-0.35541-0.68317-0.36462-1.05118c-0.0419-1.6712-0.02087-3.34387-0.03329-5.01596
		c-0.00473-0.63586-0.01443-1.27356-0.06714-1.90665c-0.03683-0.44293-0.31873-0.71002-0.7728-0.76166
		c-0.23712-0.02701-0.47961-0.0202-0.71317-0.0636c-1.0029-0.18634-1.22437-0.46097-1.16132-1.4054
		c0.04733-0.70874,0.30069-1.02444,1.01562-1.05493c1.03293-0.04413,2.06915-0.01129,3.10394-0.01129
		C331.03671,330.35583,331.03671,330.35672,331.03674,330.3576z"/>
	<path class="st1" d="M245.81113,317.44583c0,1.50876,0.01086,3.01761-0.00635,4.52621
		c-0.00545,0.47644-0.05202,1.05542-0.63286,1.12875c-0.60393,0.07623-1.29095,0.08804-1.82706-0.14059
		c-0.27164-0.11588-0.39964-0.82211-0.4062-1.26422c-0.03885-2.62021-0.02473-5.24118-0.02386-7.86194
		c0.00015-0.39667,0.00082-0.79581,0.04259-1.18945c0.07402-0.69742,0.35658-0.94556,1.07718-1.00363
		c1.3772-0.11102,1.74425,0.1723,1.78049,1.51666c0.03854,1.42841,0.00867,2.85873,0.00867,4.28821
		C245.81953,317.44583,245.81532,317.44583,245.81113,317.44583z"/>
	<path class="st1" d="M262.12314,317.45621c0,1.50876,0.01035,3.01761-0.00601,4.52618
		c-0.00519,0.479-0.06107,1.05304-0.64194,1.12207c-0.60388,0.07172-1.29031,0.08029-1.82382-0.15192
		c-0.27167-0.11819-0.39471-0.82422-0.40042-1.26691c-0.03598-2.77908-0.02097-5.55887-0.01978-8.33844
		c0.00009-0.23782,0.0083-0.47739,0.03741-0.71317c0.08429-0.68289,0.37039-0.93823,1.08911-0.99408
		c1.37009-0.10651,1.73453,0.17874,1.77054,1.52805c0.03806,1.42844,0.00854,2.85873,0.00854,4.28821
		C262.13223,317.45621,262.12766,317.45621,262.12314,317.45621z"/>
	<path class="st1" d="M350.03143,336.29083c0,1.50635,0.03479,3.01376-0.01318,4.51859
		c-0.02835,0.8902-0.43707,1.15555-1.44284,1.11246c-0.83691-0.03586-1.13828-0.27005-1.14752-1.17633
		c-0.03143-3.09177-0.03101-6.18433,0.00604-9.27597c0.01065-0.88785,0.43729-1.15488,1.44275-1.11185
		c0.83899,0.03595,1.12317,0.26642,1.14835,1.17624c0.04391,1.5845,0.01224,3.17108,0.01224,4.75684
		C350.03531,336.29083,350.03336,336.29083,350.03143,336.29083z"/>
	<path class="st1" d="M367.79846,336.12869c0,1.50665,0.03464,3.01428-0.01178,4.5195
		c-0.03265,1.05841-0.44257,1.35269-1.53488,1.2688c-0.71335-0.05484-1.02081-0.29611-1.05811-1.01071
		c-0.0578-1.10748-0.05167-2.21887-0.0528-3.32861c-0.00198-1.98242-0.01904-3.96558,0.02933-5.94699
		c0.02582-1.05774,0.44324-1.35291,1.53494-1.26877c0.71542,0.05515,1.03629,0.29456,1.05573,1.01056
		c0.04306,1.58438,0.01343,3.17065,0.01343,4.75616C367.78238,336.12866,367.79044,336.12869,367.79846,336.12869z"/>
</g>
</svg>
