<?xml version="1.0" encoding="utf-8"?>
<!-- Generator: Adobe Illustrator 24.2.3, SVG Export Plug-In . SVG Version: 6.00 Build 0)  -->
<svg version="1.1" id="Capa_1" xmlns="http://www.w3.org/2000/svg" xmlns:xlink="http://www.w3.org/1999/xlink" x="0px" y="0px"
	 viewBox="0 0 301.49252 102.98508" style="enable-background:new 0 0 301.49252 102.98508;" xml:space="preserve">
<style type="text/css">
	.st0{fill:#627055;}
</style>
<g id="aFHkK8_1_">
	<g>
		<path class="st0" d="M223.62898,36.8364c-0.1927,3.30165-0.36438,7.3733-0.69322,11.43221
			c-0.18324,2.26181-0.64526,4.50018-0.94023,6.75453c-0.05867,0.44831-0.03818,0.96606,0.13022,1.37605
			c2.28758,5.56972,3.71675,11.37514,4.63376,17.30099c0.49977,3.22958,0.74078,6.50059,1.05225,9.75733
			c0.14815,1.54942,0.22267,3.10809,0.27016,4.66443c0.10095,3.31015-2.12059,5.6947-5.44765,5.89661
			c-3.03204,0.18401-5.20563-1.09155-6.07744-3.61774c-0.20575-0.5962-0.34154-1.23644-0.3856-1.8651
			c-0.1982-2.82785-0.3257-5.66076-0.53384-8.48777c-0.08772-1.19113-0.30655-2.37299-0.48109-3.5568
			c-0.01941-0.13172-0.13936-0.24861-0.21268-0.37238c-0.12447,0.08406-0.28467,0.14248-0.36676,0.25694
			c-0.25586,0.35672-0.47586,0.73886-0.72081,1.10374c-5.07146,7.55441-11.96875,12.47408-20.95966,14.15858
			c-9.76787,1.83006-18.85498-0.02462-26.97556-5.80792c-5.29857-3.77354-8.674-9.00851-10.35242-15.27576
			c-2.02977-7.5792-1.74144-15.07241,1.63408-22.22363c4.23006-8.96164,11.30855-14.63794,20.99965-16.6157
			c11.03281-2.25157,21.24353,0.07513,30.47722,6.55355c0.71854,0.50412,1.38135,1.08786,2.0677,1.63755
			c0.38919,0.31168,0.57382,0.18702,0.5815-0.27608c0.04501-2.71677,0.14481-5.43442,0.10889-8.15022
			c-0.03059-2.31506-0.16702-4.63217-0.35068-6.9409c-0.24364-3.06239-0.59328-6.11621-0.86586-9.17651
			c-0.08481-0.95221-0.1541-1.92034-0.07942-2.86931c0.17764-2.25756,2.28052-4.29221,4.72514-4.55239
			c0.90031-0.09582,1.85959-0.09484,2.7339,0.10991c2.44432,0.57244,3.83699,2.33202,4.15883,5.09846
			c0.48869,4.201,1.04449,8.39734,1.39391,12.61041C223.43703,29.18114,223.45937,32.62447,223.62898,36.8364z M186.3203,80.77017
			c0.98825-0.15974,2.87325-0.30831,4.67189-0.78368c5.96898-1.57755,10.23016-5.37784,13.34343-10.59111
			c2.30006-3.85151,3.49072-8.12008,4.63443-12.40215c0.08847-0.33127-0.0106-0.79785-0.19148-1.10056
			c-0.65494-1.0961-1.32147-2.19493-2.09129-3.21117c-6.54187-8.63578-15.18102-12.20247-25.85764-10.27229
			c-6.23964,1.12803-10.71368,4.77168-13.2218,10.66012c-1.5264,3.58358-1.86163,7.33231-1.22763,11.15787
			c0.66759,4.02829,2.20284,7.66917,5.09073,10.63416C175.29164,78.7841,180.01065,80.61922,186.3203,80.77017z"/>
		<path class="st0" d="M83.04555,74.37737c0.2179-11.15063,2.92774-20.81811,8.7047-29.56194
			c0.44032-0.66645,0.93282-1.29823,1.39247-1.95216c0.48359-0.68801,0.473-0.80865-0.27104-1.15105
			c-2.34006-1.07688-4.79248-1.47626-7.35632-1.15163c-2.03446,0.25759-3.97085,0.85925-5.86272,1.63137
			c-1.15718,0.47226-2.34321,0.78966-3.61582,0.56814c-3.36518-0.5858-4.76612-4.27375-3.24788-7.19965
			c0.71333-1.37469,1.82355-2.31573,3.22165-2.92014c4.55657-1.96982,9.31382-2.86245,14.26291-2.36519
			c3.67249,0.36899,7.05785,1.6509,10.13173,3.71853c1.10674,0.74445,0.85334,0.65007,1.85646-0.03135
			c3.88161-2.63678,8.07144-4.58593,12.72755-5.28762c7.98233-1.20296,15.45886,0.10191,22.01382,5.07763
			c4.00465,3.03986,6.52902,7.17839,8.21898,11.85747c1.15797,3.20618,1.81752,6.51828,2.20859,9.90301
			c0.46547,4.02877,0.48148,8.06178,0.1557,12.08614c-0.59814,7.38954-2.13432,14.59546-4.5943,21.59463
			c-0.7216,2.0531-2.04228,3.46474-4.27904,3.93158c-3.18492,0.66476-7.85895-2.08505-6.63297-6.85606
			c0.84354-3.28265,1.73924-6.55374,2.49361-9.85696c1.006-4.40504,1.58891-8.86987,1.70085-13.39935
			c0.10527-4.25979-0.17485-8.45959-1.50584-12.53629c-1.25276-3.83707-3.31963-7.10983-6.85759-9.22269
			c-4.80773-2.87116-9.83719-2.97402-14.95026-0.8911c-1.13985,0.46434-2.21586,1.09976-3.285,1.71901
			c-0.965,0.55893-0.95193,0.60176-0.40723,1.55032c1.78,3.09967,3.08567,6.39223,4.04327,9.83072
			c1.49333,5.36216,1.90693,10.8315,1.72591,16.37357c-0.1404,4.29826-0.73026,8.50963-2.22883,12.55586
			c-1.19723,3.2326-2.92332,6.12939-5.64801,8.33352c-6.42343,5.19622-16.33592,4.41457-21.14119-3.90878
			c-1.43728-2.48955-2.28944-5.18005-2.61592-8.02607C83.20838,77.08747,83.12369,75.3714,83.04555,74.37737z M103.08659,66.72687
			c-0.05826-1.01684-0.16562-2.37149-0.2076-3.72818c-0.09818-3.17186-0.67194-6.26443-1.49121-9.31852
			c-0.11337-0.42258-0.27538-0.83211-0.4144-1.24784c-0.15368-0.45957-0.36331-0.32186-0.55653-0.03935
			c-0.13449,0.19666-0.25155,0.41002-0.34483,0.62935c-0.95168,2.23796-2.0293,4.4334-2.81434,6.72874
			c-1.33514,3.90381-2.033,7.94623-2.25375,12.0801c-0.13946,2.61169-0.08085,5.19286,0.55589,7.72992
			c0.20047,0.79877,0.53793,1.60152,0.98402,2.29171c0.76498,1.18356,2.13213,1.35217,3.21676,0.44298
			c0.44848-0.37593,0.85608-0.86401,1.11861-1.38376c0.41087-0.81342,0.75844-1.67623,1.00028-2.55461
			C102.89658,74.66344,102.93445,70.86113,103.08659,66.72687z"/>
		<path class="st0" d="M37.31695,93.0316c-6.00107,0.09161-11.54039-1.08356-16.66042-3.88757
			C12.81041,84.84706,7.85019,78.26996,5.95126,69.55528c-1.72741-7.92748-0.8068-15.5864,3.32457-22.69049
			c3.02498-5.20161,7.43224-8.93678,12.777-11.60728c4.78238-2.38951,9.85047-3.65806,15.19249-3.90521
			c6.7618-0.31284,13.2087,0.89577,19.22605,4.02515c7.75388,4.03248,12.55101,10.41287,14.29228,18.94368
			c1.90729,9.34414,0.18915,18.04372-5.41977,25.82782c-4.41613,6.12875-10.52177,9.79854-17.76946,11.65278
			C44.15473,92.67664,40.67097,93.08932,37.31695,93.0316z M61.16207,61.03932c-0.09915-0.99203-0.16618-1.98851-0.30262-2.97539
			c-0.9177-6.63825-4.37153-11.42963-10.58214-14.01441c-6.94997-2.89248-14.01284-2.79705-21.04497-0.24483
			c-4.11238,1.49253-7.62323,3.8814-10.15063,7.51978c-3.04952,4.39-3.98585,9.32589-3.12714,14.51168
			c1.32737,8.01605,6.0552,13.21065,13.79916,15.59295c4.89944,1.50725,9.86978,1.28873,14.80042,0.13341
			C54.55127,79.22,61.08814,71.06876,61.16207,61.03932z"/>
		<path class="st0" d="M240.03088,51.51618c0.36223-4.7779,0.71817-9.55629,1.09425-14.33311
			c0.0499-0.63379,0.15823-1.27065,0.31441-1.88712c0.82219-3.24573,3.97003-4.46837,6.71936-4.01839
			c1.28189,0.2098,2.45233,0.6991,3.40977,1.62465c1.23448,1.19334,1.75867,2.67447,1.61028,4.34375
			c-0.2226,2.50384-0.67921,4.99236-0.79755,7.49866c-0.1732,3.66864-0.21378,7.34843-0.159,11.02121
			c0.03569,2.39054,0.25995,4.78681,0.54448,7.16317c0.45209,3.77564,1.2298,7.49407,2.86026,10.95712
			c0.65804,1.3976,1.47322,2.75573,2.4156,3.97868c3.27866,4.25477,8.72241,4.73444,12.93997,2.37577
			c2.0329-1.1369,3.59586-2.7823,4.89651-4.68622c2.21423-3.24112,3.56439-6.86048,4.57193-10.62086
			c0.99365-3.70846,1.69888-7.47314,1.93845-11.30798c0.19165-3.06865,0.39221-6.14336,0.39084-9.21529
			c-0.0011-2.39074-0.26364-4.78543-0.48865-7.17096c-0.28033-2.97266,1.16144-5.27914,4.02512-6.11444
			c2.3833-0.69516,4.59213-0.38258,6.41052,1.47141c1.03781,1.05812,1.35944,2.42376,1.51398,3.82762
			c0.42477,3.85851,0.63052,7.73198,0.48175,11.61139c-0.34772,9.06598-1.64157,17.96069-5.02872,26.45026
			c-1.56485,3.92222-3.57529,7.59377-6.34912,10.80391c-3.91574,4.53165-8.7558,7.40266-14.7858,8.0501
			c-5.80679,0.62349-11.23083-0.36016-15.97704-3.98538c-3.32013-2.53596-5.61971-5.8743-7.36922-9.61572
			c-1.76959-3.78431-2.88014-7.77824-3.6274-11.87572c-0.8546-4.68618-1.27531-9.41471-1.30609-14.17871
			c-0.00467-0.71853-0.07057-1.43666-0.10815-2.15498C240.12473,51.52473,240.0778,51.52046,240.03088,51.51618z"/>
	</g>
</g>
</svg>
