<?xml version="1.0" encoding="utf-8"?>
<!-- Generator: Adobe Illustrator 24.2.3, SVG Export Plug-In . SVG Version: 6.00 Build 0)  -->
<svg version="1.1" id="Capa_1" xmlns="http://www.w3.org/2000/svg" xmlns:xlink="http://www.w3.org/1999/xlink" x="0px" y="0px"
	 viewBox="0 0 532 144" style="enable-background:new 0 0 532 144;" xml:space="preserve">
<style type="text/css">
	.st0{fill:#656239;}
</style>
<g id="SUlaCz_1_">
	<g>
		<path class="st0" d="M73.49525,10.94868c33.4687-0.27421,62.1101,27.77147,62.12943,62.12651
			c0.01891,33.59715-27.40538,62.04031-62.50107,61.89895c-33.98401-0.13689-61.74146-26.37972-61.61696-62.11034
			C11.62775,38.10707,40.58801,10.51484,73.49525,10.94868z M73.32206,18.5566c-3.94609,0.52577-7.97292,0.71289-11.82537,1.63139
			c-28.48243,6.79072-46.70187,35.23089-40.27116,64.6059c4.17338,19.06373,15.99129,31.96218,34.08324,39.10491
			c5.39498,2.12994,11.07549,2.99234,16.86515,3.17718c1.19949,0.03829,1.77643-0.30408,1.63873-1.62495
			c-0.10713-1.02753-0.0828-2.08471,0.02003-3.11505c0.26145-2.61996,0.4621-5.25827,0.94988-7.83958
			c0.40482-2.14225-0.39581-3.99649-1.5327-5.42236c-0.71835-0.90092-2.5697-0.90858-3.92133-1.28661
			c-0.30038-0.08401-0.64104-0.01121-0.95522-0.06087c-1.81115-0.28632-3.63117-0.53321-5.42559-0.90308
			c-1.20476-0.24834-2.32499-0.75267-2.49891-2.20834c-0.19369-1.62124,1.01767-2.2067,2.16645-2.79918
			c0.49461-0.2551,1.02287-0.45448,1.55174-0.63171c1.13528-0.38045,2.29572-0.68962,3.41918-1.10082
			c2.2799-0.83447,3.48134-2.43768,3.40463-4.92802c-0.03447-1.11889-0.06698-2.24386,0.00792-3.3588
			c0.1462-2.17654-0.51413-3.87156-2.44782-5.08091c-3.40424-2.12904-3.02724-6.08009-0.76981-8.46765
			c1.15355-1.22005,2.35033-2.40009,3.54877-3.57662c1.38291-1.35764,2.72092-2.7725,3.01495-4.76953
			c0.14751-1.00192,0.82578-0.42259,1.23452-0.58081c0.11121-0.04305,0.5465,0.35413,0.58874,0.59255
			c0.34,1.91918,1.49181,3.32682,2.82326,4.62485c1.20226,1.17207,2.54676,2.22301,3.60227,3.51257
			c0.77866,0.9513,1.43678,2.14285,1.71848,3.32945c0.56216,2.36797-0.49767,4.19685-2.49654,5.49802
			c-1.1786,0.7672-2.18413,1.66755-2.25671,3.18996c-0.15189,3.18641-0.48627,6.37124,0.69646,9.4847
			c0.93013,2.44852,1.04571,5.00847,0.30467,7.53887c-1.18713,4.05363-2.49642,8.07202-3.64626,12.13581
			c-0.54048,1.91019-0.95711,3.87597-1.19581,5.84494c-0.21804,1.79859,0.11097,2.08685,1.77915,1.84687
			c3.07729-0.4427,6.19615-0.77522,9.19637-1.54736c28.36791-7.30087,45.59861-35.74708,39.09578-64.36684
			C120.0209,35.61834,96.6866,18.31034,73.32206,18.5566z M74.71706,85.46249c2.53685-0.07588,4.60778-0.53793,5.66384-2.61687
			c0.98363-1.93636,0.09241-3.72503-1.10113-5.31387c-1.09978-1.46402-2.23586-2.90361-3.42625-4.29377
			c-0.18246-0.21308-0.97286-0.27539-1.0951-0.11411c-1.53423,2.0242-3.20253,3.989-4.42266,6.19762
			c-1.3138,2.37816-0.30858,4.5901,2.20441,5.60061C73.33668,85.24239,74.2211,85.34401,74.71706,85.46249z M75.0918,106.00644
			c-0.1016-0.35891-0.14181-0.77508-0.32834-1.10966c-0.61666-1.10609-1.66339-1.0736-2.69527-0.85122
			c-0.57593,0.12411-1.11255,0.43066-1.66688,0.65498c0.65369,0.40791,1.29247,0.84274,1.96573,1.21527
			c0.54901,0.3038,1.13464,0.54378,1.7124,0.79263C74.75119,106.99777,75.15186,106.85236,75.0918,106.00644z"/>
		<path class="st0" d="M268.49585,74.87216c-0.00061,19.67729,0.00278,39.35458-0.01355,59.03186
			c-0.00061,0.74883-0.19138,1.4975-0.29352,2.24623c-0.57425-0.52365-1.20184-0.99995-1.71506-1.5778
			c-15.76944-17.75485-31.52859-35.51886-47.2874-53.28315c-14.21992-16.02951-28.43741-32.06116-42.65729-48.09072
			c-0.31837-0.35891-0.63579-0.72182-0.98645-1.04758c-0.16017-0.14878-0.40018-0.21157-0.60399-0.31337
			c-0.11887,0.25473-0.31882,0.50277-0.34052,0.76551c-0.05243,0.6358-0.02422,1.27846-0.02423,1.91836
			c-0.00037,20.31736-0.00961,40.63472,0.00343,60.95208c0.00751,11.67783,0.05156,23.35565,0.0782,35.03349
			c0.00145,0.63986-0.02911,1.28069-0.00392,1.91943c0.0369,0.93568-0.4183,1.25063-1.31184,1.23274
			c-1.839-0.03683-3.67949-0.02896-5.51889-0.00412c-0.80869,0.01093-1.1736-0.33138-1.15135-1.13435
			c0.01546-0.55936-0.00699-1.11966-0.007-1.67953c-0.00085-39.43488-0.00117-78.86974-0.00148-118.30462
			c0-0.31996-0.04822-0.64955,0.01231-0.9577c0.09995-0.50886,0.27031-1.00388,0.41098-1.50473
			c0.36511,0.29872,0.77979,0.55365,1.08803,0.9026c6.56398,7.43064,13.11673,14.87119,19.67021,22.3111
			c17.22876,19.55921,34.45844,39.11762,51.68433,58.67935c6.3934,7.26038,12.77736,14.52905,19.16531,21.79424
			c0.21121,0.24023,0.3873,0.52474,0.63583,0.71555c0.34869,0.26768,0.75009,0.46677,1.12894,0.69519
			c0.05652-0.39095,0.14523-0.7805,0.1622-1.17316c0.02759-0.63874,0.00888-1.27952,0.00858-1.91943
			c-0.01428-31.99564-0.02863-63.99129-0.04291-95.98693c-0.00027-0.55993-0.00638-1.11995,0.00153-1.67977
			c0.02881-2.04042,0.03058-2.04747,2.13776-2.06487c1.43967-0.01189,2.88077,0.03489,4.31897-0.01202
			c0.98169-0.03202,1.52832,0.27085,1.45776,1.34455c-0.03665,0.55746-0.00449,1.11941-0.00449,1.67934
			C268.49646,35.19732,268.49646,55.03474,268.49585,74.87216z"/>
		<path class="st0" d="M307.18802,73.02726c-0.00012-19.35532-0.00479-38.71065,0.00504-58.06596
			c0.00143-2.82794-0.35321-2.61302,2.52841-2.61179c10.71719,0.00458,21.44083-0.20628,32.14999,0.09392
			c14.34027,0.40199,27.55496,4.42516,38.79321,13.70136c9.81961,8.10527,15.96695,18.56015,19.12109,30.82936
			c3.49994,13.61442,3.24185,27.13924-2.09985,40.19254c-7.80627,19.07592-22.16977,30.59437-42.21265,35.11092
			c-4.53848,1.02274-9.15839,1.35983-13.79947,1.36841c-10.55743,0.01953-21.1149,0.00626-31.67236,0.00587
			c-0.55981-0.00002-1.12109-0.03012-1.6792-0.00003c-0.81039,0.04373-1.17874-0.29219-1.13486-1.11963
			c0.03387-0.63792,0.00107-1.27927,0.00107-1.9191C307.18811,111.41785,307.18814,92.22256,307.18802,73.02726z
			 M315.53812,72.98441c0,16.71162-0.00122,33.42326,0.00119,50.13488c0.00043,2.7374-0.11194,2.54574,2.40717,2.54734
			c7.7561,0.00492,15.51227-0.00938,23.26837,0.00558c4.33276,0.00836,8.61215-0.47218,12.8176-1.47835
			c16.1391-3.86137,28.16763-12.96177,35.00693-28.24364c5.27371-11.78376,5.80841-24.12274,2.89874-36.5862
			c-2.54895-10.91813-8.1507-20.06403-16.91162-27.15112c-9.202-7.44384-19.89728-11.13726-31.59036-11.66252
			c-8.77847-0.39432-17.58612-0.12684-26.38049-0.19296c-1.14499-0.00861-1.61276,0.39898-1.52304,1.53333
			c0.05029,0.63558,0.0051,1.27861,0.0051,1.91828C315.53745,40.20083,315.53751,56.59262,315.53812,72.98441z"/>
		<path class="st0" d="M432.42606,55.48912c-0.00027-13.35565-0.0004-26.71129,0.00015-40.06694
			c0.00003-0.63975,0.02679-1.28025,0.00385-1.91906c-0.02869-0.79723,0.29922-1.16573,1.12549-1.15499
			c1.91895,0.02495,3.83887,0.03022,5.7576-0.00416c0.93668-0.01679,1.29047,0.40791,1.25952,1.29762
			c-0.02493,0.7188,0.00153,1.43931,0.00153,2.15906c0.00031,25.67161-0.03625,51.3433,0.02451,77.01476
			c0.01608,6.80213,1.38654,13.31895,5.06915,19.19563c5.10205,8.14164,12.50061,12.89002,21.86899,14.50391
			c8.00092,1.37834,15.80658,0.51389,23.06885-3.29241c9.69186-5.07966,15.08026-13.28853,16.68146-24.0073
			c0.39908-2.67161,0.47391-5.41088,0.4776-8.11935c0.03415-25.27169,0.01556-50.54345,0.02637-75.81519
			c0.0014-3.31053-0.37454-2.93372,2.94513-2.91701c1.64566,0.00829,3.29044,0.20189,4.93558,0.31165
			c0.06067,1.58552,0.1734,3.17101,0.17413,4.75655c0.01111,25.35171,0.01025,50.70341,0.00665,76.05512
			c-0.00104,7.37623-1.29736,14.47622-4.87015,21.00546c-6.04758,11.05201-15.55383,17.34661-27.77847,19.61988
			c-8.54718,1.58942-17.03986,1.15771-25.24841-1.87633c-13.55057-5.00859-21.75815-14.70619-24.54333-28.85313
			c-0.67346-3.42078-0.91263-6.97174-0.94321-10.46641C432.3598,80.44154,432.42633,67.96503,432.42606,55.48912z"/>
		<path class="st0" d="M51.00344,74.72483c-0.30855-0.04903-0.9847-0.03255-1.55692-0.26831
			c-2.86432-1.18011-5.69954-2.43069-8.54889-3.64735c-1.38546-0.5916-1.85701-1.64773-1.61002-3.08235
			c0.09409-0.5465,0.15367-1.10546,0.31375-1.63302c0.91594-3.01851,1.86021-3.50754,4.66265-2.18123
			c2.58765,1.22467,5.1418,2.53735,7.61791,3.97147c0.9146,0.52972,1.79808,1.39252,2.28957,2.3189
			C55.44373,72.60099,54.02374,74.74426,51.00344,74.72483z M46.10862,69.14069c-0.17223-0.64615-0.45456-1.77457-0.78983-2.88703
			c-0.04904-0.16273-0.34235-0.26743-0.54203-0.35451c-0.03514-0.01533-0.25564,0.20615-0.24041,0.29147
			c0.27038,1.51509,0.55801,3.02725,0.86686,4.53494c0.0194,0.0947,0.25148,0.2131,0.37011,0.19894
			c0.09486-0.01133,0.21984-0.19921,0.23989-0.32351C46.06282,70.29344,46.05991,69.97742,46.10862,69.14069z M42.83626,67.86561
			c-0.0645-0.83664-0.05366-1.3195-0.15145-1.77927c-0.08795-0.41351-0.2951-0.80164-0.44968-1.20098
			c-0.20914,0.36713-0.50843,0.7125-0.60363,1.10712c-0.10839,0.44929-0.13426,0.96889-0.0174,1.41067
			c0.18903,0.71459,0.5239,1.39061,0.79719,2.08292C42.58214,68.83456,42.753,68.18307,42.83626,67.86561z M49.12756,70.77403
			c-0.09263-0.88991-0.07987-1.53819-0.24737-2.13595c-0.13725-0.48978-0.48912-0.91943-0.74585-1.37572
			c-0.13571,0.46502-0.3661,0.92648-0.38377,1.39595c-0.02342,0.62243,0.05064,1.26953,0.21202,1.87138
			c0.1335,0.49783,0.45443,0.9454,0.69232,1.41523C48.83935,71.48801,49.0238,71.0311,49.12756,70.77403z"/>
		<path class="st0" d="M93.88245,44.05826c2.73775,0.10358,4.16157,1.96711,3.99809,4.34988
			c-0.10475,1.52694-0.24616,2.97046-1.08581,4.30574c-0.68427,1.08818-1.46569,1.61013-2.76449,1.05867
			c-1.31556-0.55857-2.68695-0.98831-3.99129-1.57002c-1.66331-0.7418-1.94929-1.60963-1.05142-3.2087
			c0.42406-0.75526,1.01175-1.42471,1.56737-2.09832c0.53938-0.65393,1.07506-1.33217,1.71946-1.87187
			C92.84454,44.5461,93.56208,44.24449,93.88245,44.05826z"/>
		<path class="st0" d="M68.0337,41.63429c0.33937-0.43893,0.6664-0.88813,1.02097-1.31441
			c0.54887-0.65986,1.11633-1.37046,0.92412,0.31307c-0.01544,0.13523,0.56766,0.47059,0.88483,0.48779
			c1.0333,0.05605,2.08388-0.09563,3.10681,0.01939c2.70647,0.30431,4.85208,1.5553,6.02285,4.10312
			c0.73171,1.59235,0.2196,3.43972-1.03408,4.27819c-1.21015,0.80935-2.83459,0.5557-4.07829-0.82174
			c-0.79365-0.879-1.34946-1.96808-2.07203-2.91721c-0.77061-1.01223-1.58063-1.99973-2.44582-2.93077
			c-0.20193-0.2173-0.75449-0.31458-1.04388-0.20298c-0.65022,0.25075-0.60957,0.31377-0.84737-0.47563
			c-0.06625-0.21993-0.24712-0.40533-0.3754-0.60658L68.0337,41.63429z"/>
		<path class="st0" d="M89.13348,78.11956c0.13963,0.02625,0.49647,0.01023,0.75073,0.16389
			c0.26866,0.16239,0.79749,0.4667,0.05283,0.77134c-0.22054,0.09023-0.54766,0.1348-0.63269,0.29985
			c-0.22791,0.44238-0.59959,1.05019-0.44978,1.38372c0.16675,0.37122,0.84166,0.70781,1.30302,0.71819
			c1.62746,0.03663,2.71559-1.9781,1.90164-3.51546c-0.68929-1.3019-1.81818-2.01173-3.33033-1.86635
			c-0.78297,0.07527-1.5464,0.33514-2.32638,0.46536c-0.80582,0.13454-1.78338,0.23207-2.04512-0.70808
			c-0.2605-0.93565-0.17916-1.98429-0.11824-2.97543c0.01113-0.18103,0.65543-0.48411,0.98714-0.45931
			c3.00006,0.22434,5.85933,0.88718,8.08447,3.11265c2.31963,2.31996,1.04597,7.23711-2.0872,8.14696
			c-0.9387,0.2726-3.79535-0.70719-4.33185-1.54241c-0.49738-0.77429-0.66169-1.55883-0.10281-2.45097
			C87.59347,78.3792,87.87034,78.11147,89.13348,78.11956z"/>
		<path class="st0" d="M108.56336,80.08285c-0.16615-1.07993-0.20721-2.17258-1.11852-3.02009
			c-0.36916-0.34332-0.5535-0.96207-0.66778-1.48893c-0.40487-1.86675,0.53128-3.06617,2.43105-3.20396
			c2.44859-0.1776,2.50653-0.23411,2.65507-2.58904l-0.06087,0.06681c1.07233-0.28828,0.70772-1.24802,0.92702-1.94251
			c0.07532-0.23847,0.29737-0.43062,0.45239-0.64393c0.08186,0.21144,0.21583,0.41917,0.23122,0.63535
			c0.01603,0.22504-0.08477,0.45778-0.13036,0.68797c-0.1496,0.75548,0.1613,0.78949,0.73917,0.49542
			c0.68054-0.34631,1.37962-0.65621,2.07066-0.9819l0.00379-0.06136c-0.2071,0.32751-0.35046,0.73285-0.63496,0.96584
			c-0.54242,0.44424-1.16536,0.79018-1.75487,1.17693c0.47085,0.4988,0.95564,0.98551,1.40466,1.50324
			c0.14899,0.1718,0.25912,0.41627,0.28904,0.64058c0.02597,0.19465-0.08648,0.40778-0.13774,0.61272
			c-0.12636-0.09338-0.28215-0.16432-0.37362-0.2843c-0.28438-0.37303-0.46766-0.90126-0.83663-1.10844
			c-0.33088-0.18581-1.01598-0.19356-1.24833,0.02928c-0.21839,0.20944-0.18742,0.8923-0.01346,1.24065
			c0.19514,0.39074,0.64941,0.67472,1.03373,0.94413c1.19692,0.83908,1.53468,2.01373,1.20896,3.3483
			c-0.34683,1.42107-1.62387,1.65016-2.80257,1.78045c-1.34615,0.1488-2.71096,0.1195-3.74023,1.20514L108.56336,80.08285z"/>
		<path class="st0" d="M50.64262,82.77768c-3.4692-0.04335-6.0815-2.07777-6.46894-4.62196
			c-0.24238-1.59163,0.20934-2.20608,1.75815-1.88755c3.27051,0.67263,6.50484,1.52225,9.75097,2.31178
			c1.10419,0.26857,0.9741,0.86725,0.35025,1.53448C54.42957,81.82938,52.45002,82.71735,50.64262,82.77768z M51.04193,80.62142
			l-0.07681,0.10226l0.1174,0.01907L51.04193,80.62142z"/>
		<path class="st0" d="M94.90092,73.55128c0.55907-1.4081,0.90327-2.66025,1.55018-3.72918
			c0.28947-0.47832,1.226-0.88763,1.79985-0.81102c1.7511,0.23373,3.49329,0.63544,5.19009,1.13709
			c1.0316,0.30499,1.47224,1.55024,1.2055,2.81467c-0.45966,2.17884-2.03567,3.69167-3.91891,4.14394
			c-1.29575,0.3112-3.01591-0.57273-4.36134-1.27632C95.66916,75.46591,95.37428,74.33217,94.90092,73.55128z M101.26865,72.73414
			c-0.17916-0.19974-0.5278-0.94593-1.01-1.04554c-0.80389-0.16607-1.7884,1.38627-1.58948,2.49635
			c0.0703,0.39234,0.56938,0.94177,0.94059,1.00216C100.70085,75.36461,101.30786,74.55763,101.26865,72.73414z"/>
		<path class="st0" d="M83.85475,54.9973c-0.81827,2.11334-0.79309,2.08184,0.80222,3.35696
			c0.60345,0.48233,1.17412,1.08104,1.56156,1.74273c0.8357,1.42732,0.69513,2.82476-0.22012,3.76368
			c-0.79471,0.81526-2.4637,1.05519-3.57378,0.51376c-1.25072-0.61003-2.07793-2.20734-1.72334-3.62944
			c0.18838-0.75543,0.63816-1.44956,0.99635-2.15801c0.96224-1.90327,0.30614-3.05452-1.82271-3.16977
			c-0.15885-0.0086-0.33521,0.05975-0.47619,0.01196c-0.49167-0.16665-0.97137-0.36863-1.45562-0.55718
			c0.52786-0.19705,1.04479-0.49591,1.58757-0.55424c0.34377-0.03693,0.71455,0.3315,1.09603,0.42488
			c0.18221,0.04459,0.51392-0.07126,0.60044-0.21862c0.07922-0.13498-0.01087-0.51586-0.1468-0.60527
			c-0.59084-0.38866-1.24333-0.68334-1.83578-1.06986c-0.23511-0.1534-0.37247-0.4566-0.55434-0.6916
			c0.31643-0.16541,0.61834-0.38232,0.95467-0.47707c0.20442-0.05759,0.53811-0.0065,0.68375,0.13224
			c1.29588,1.23454,1.74454,0.82532,1.74-0.8042c-0.00058-0.21376,0.54259-0.42904,0.83391-0.64362
			c0.19106,0.37009,0.59267,0.78039,0.5312,1.10225c-0.14721,0.77079-0.5272,1.49553-0.75283,2.25677
			c-0.01379,0.04655,0.49841,0.24901,0.76586,0.37892c0,0-0.06129-0.06659-0.06128-0.06662
			c0.17757,0.34116,0.35511,0.68235,0.53265,1.02354L83.85475,54.9973z"/>
		<path class="st0" d="M79.36189,62.37683c0.05643,2.88494-1.67451,4.29264-4.25573,3.7428
			c-0.60792-0.12948-1.2599-0.05451-1.89172-0.06886c-1.77222-0.04025-3.09553-0.97903-3.04137-2.68072
			c0.04301-1.35147,0.59347-2.77407,1.2448-3.99045c0.49345-0.92155,1.58487-1.07462,2.4762-0.27558
			c0.61431,0.55072,1.18764,0.59449,1.96217,0.35919c2.13633-0.64898,2.75767-0.24435,3.29109,1.96045
			C79.24068,61.80954,79.32188,62.19835,79.36189,62.37683z M76.74683,60.47161c-0.17778-0.26791-0.25552-0.38506-0.33326-0.50221
			c-0.3563,0.36261-0.71957,0.71922-1.05126,1.1031c-0.0195,0.02257,0.21571,0.26519,0.33239,0.4054
			C76.05347,61.13476,76.41225,60.79162,76.74683,60.47161z M73.42043,62.21153c-0.40616-0.23919-0.57494-0.42017-0.7328-0.41109
			c-0.20176,0.0116-0.39471,0.17649-0.59145,0.27533c0.10329,0.1671,0.21333,0.47814,0.30857,0.47368
			C72.66518,62.53724,72.91936,62.39211,73.42043,62.21153z M73.65973,63.99065c-0.11066-0.25337-0.16777-0.38411-0.22488-0.51486
			c-0.32518,0.28654-0.65995,0.56371-0.96236,0.87255c-0.03448,0.03522,0.11252,0.24813,0.17537,0.37865
			C72.99277,64.476,73.33768,64.225,73.65973,63.99065z M73.10486,60.13379c-0.2507,0.10291-0.37989,0.15593-0.50907,0.20895
			c0.20352,0.28809,0.388,0.59438,0.62907,0.84657c0.04086,0.04274,0.32503-0.14708,0.49679-0.22945
			C73.50961,60.67589,73.29758,60.39191,73.10486,60.13379z M77.13555,63.01451c0.08529-0.14681,0.17058-0.29362,0.25587-0.44044
			c-0.20972-0.06675-0.4278-0.2058-0.62717-0.1828c-0.2791,0.03222-0.54425,0.18519-0.81538,0.28651
			c0.06557,0.16922,0.13324,0.48415,0.19637,0.48325C76.47599,63.15628,76.80556,63.07148,77.13555,63.01451z M75.54098,63.62812
			c-0.12151,0.35815-0.2921,0.62642-0.22655,0.71041c0.22301,0.28574,0.51849,0.52192,0.81788,0.73204
			c0.0365,0.02562,0.26486-0.22211,0.40431-0.34317C76.24075,64.40075,75.9449,64.0741,75.54098,63.62812z"/>
		<path class="st0" d="M109.28556,57.97122c-0.12889,0.20525-0.41816,1.18759-1.02901,1.46708
			c-0.45663,0.20894-1.53719-0.3092-1.97422-0.81782c-1.13804-1.32443-2.45451-1.86686-4.17783-1.81154
			c-1.97862,0.06352-2.62865-0.42532-2.82632-1.77903c-0.20082-1.37544,0.54444-2.57721,1.96518-3.16888
			C104.98315,50.30358,109.28635,53.21808,109.28556,57.97122z M101.53051,55.7626c0.42709-0.52106,0.93988-0.88004,0.90613-1.17686
			c-0.03741-0.32888-0.53532-0.70807-0.91278-0.84568c-0.1537-0.05603-0.74543,0.4771-0.73368,0.72285
			C100.80793,54.83429,101.1795,55.18875,101.53051,55.7626z"/>
		<path class="st0" d="M97.21961,61.92281c3.15271,0.75313,6.32156,1.4465,9.44943,2.29153
			c1.10644,0.29891,2.06944,0.73893,3.1187-0.13515c0.3149-0.26232,0.88701-0.25649,1.34663-0.28394
			c0.17646-0.01054,0.36784,0.22882,0.55243,0.35432c-0.11694,0.15935-0.22592,0.32558-0.355,0.4744
			c-0.04704,0.05424-0.14389,0.06313-0.21467,0.09924c-1.34344,0.68534-1.33595,0.6768-0.09451,1.7232
			c0.22402,0.18884,0.35938,0.48285,0.53566,0.72831c-0.34518,0.08723-0.68778,0.22523-1.03649,0.24292
			c-0.21383,0.01085-0.47601-0.11578-0.64997-0.26055c-1.79124-1.4907-3.8777-1.32874-5.92189-0.93073
			c-2.97791,0.57983-5.69548-0.02696-8.24286-1.52177c-0.61286-0.35963-1.04162-1.033-1.55505-1.56208
			c0.67645-0.29018,1.34122-0.61405,2.03497-0.85425c0.28437-0.09846,0.63128-0.0163,0.94975-0.0163
			C97.16436,62.15557,97.19199,62.03919,97.21961,61.92281z"/>
		<path class="st0" d="M63.72007,74.67838c1.1441,0.59132,0.57459,0.97092-0.1265,1.43845
			c-0.24109,0.16077-0.30173,0.59213-0.44481,0.89987c0.3018-0.00497,0.61039,0.0281,0.9037-0.02436
			c0.38535-0.06891,0.75332-0.24528,1.13924-0.29663c0.21433-0.02851,0.51302,0.03972,0.65686,0.18225
			c0.12314,0.12202,0.12528,0.59613,0.10374,0.60144c-1.65075,0.40707,0.92887,2.0886-0.6607,2.32481
			c-0.82465,0.12253-0.80563,0.29868-0.93805,1.04395c-0.15253,0.85848-0.83015,0.29485-1.20843-0.12532
			c-0.47695-0.52975-0.19261-1.95132-1.31203-1.57954c-0.6338,0.21049-0.98969,1.27946-1.45382,1.97311
			c-0.47297,0.70684-0.26126,1.95488-1.58202,1.98692c0.18406-0.80947,0.35252-1.62297,0.56018-2.42635
			c0.07864-0.30424,0.27038-0.57748,0.37162-0.87798c0.45209-1.34187,0.23159-1.65613-1.18027-1.82727
			c-0.5212-0.06317-1.31847-0.06193-1.48364-0.36549c-0.29817-0.54799-0.46945-1.42453-0.22366-1.93951
			c0.27189-0.56968,1.0284-0.98515,1.66337-1.26369c0.22989-0.10084,0.75597,0.3453,1.07658,0.62302
			c0.22662,0.19632,0.29766,0.56485,0.51045,0.78735c0.12088,0.1264,0.38853,0.14877,0.58743,0.14182
			c0.05887-0.00206,0.14066-0.26059,0.15381-0.40682c0.01373-0.15255-0.07347-0.31351-0.06299-0.46714
			c0.04051-0.5939-0.10083-1.32914,0.19593-1.7515c0.76762-1.09251,0.87542,0.66298,1.19141,0.43694
			c1.38372-0.98981,1.33886,0.19776,1.60408,0.95325c-0.06952,0.0052-0.13904,0.0104-0.20856,0.01559
			c0.05043,0.05044,0.10087,0.10086,0.1513,0.1513C63.70955,74.81735,63.71481,74.74786,63.72007,74.67838z"/>
		<path class="st0" d="M58.90695,70.74318c-0.78552-0.03271-1.71549-0.31862-2.62949-0.56814
			c-0.18064-0.04932-0.41016-0.39775-0.39727-0.59378c0.05165-0.78565,0.14525-1.57484,0.30484-2.34585
			c0.39356-1.90144,2.08405-3.28299,4.15602-3.31754c0.86613-0.01444,1.73902,0.18864,2.60233,0.33202
			c0.20189,0.03353,0.55547,0.26796,0.53871,0.33965c-0.35384,1.51253-0.56393,3.09968-1.19579,4.4938
			C61.73571,70.29816,60.42242,70.80628,58.90695,70.74318z"/>
		<path class="st0" d="M67.1263,62.74565c0.1703,0.16696,0.41132,0.303,0.49994,0.50567
			c0.86633,1.98136,1.81252,3.9374,2.51822,5.97602c0.46745,1.35034-0.28786,2.79612-1.46192,3.48295
			c-1.10201,0.64469-2.3493,0.51591-3.32098-0.34289c-0.96767-0.85529-1.14874-2.03758-0.69655-3.47886
			c0.42182-1.34452,0.61407-2.76638,1.09874-4.0838c0.27351-0.74346,0.93311-1.34488,1.41879-2.01028L67.1263,62.74565z"/>
		<path class="st0" d="M48.46574,53.62426c0.18043-0.41735,0.28455-0.89359,0.55377-1.24242
			c1.64428-2.13058,3.31617-4.24017,5.00475-6.33589c0.28965-0.35949,0.74696-0.92087,1.05352-0.87698
			c2.70964,0.38795,3.34509-2.18285,4.9234-3.37474c0.74885-0.5655,1.32235-1.35969,2.00559-2.01886
			c0.11966-0.11544,0.38976-0.07495,0.59037-0.10647c-0.056,0.2098-0.054,0.46601-0.17822,0.62122
			c-0.48803,0.60975-1.0158,1.1877-1.52882,1.77745c-0.15413,0.18177-0.30827,0.36354-0.46239,0.54531
			c-0.02158-0.02168-0.04315-0.04337-0.06472-0.06505c0.15551-0.18018,0.31101-0.36036,0.46652-0.54054
			c0.34197,0.03676,0.68394,0.07352,1.02591,0.11029l-0.06179-0.0608c-0.46114,0.65081-0.92228,1.30163-1.38341,1.95243
			c-0.34695,0.13154-0.69389,0.26308-1.04084,0.39463c-0.02267,0.02087-0.04535,0.04174-0.06802,0.06261
			c0.03268-0.04076,0.06536-0.08152,0.09805-0.12227c0.32425-0.12709,0.64849-0.25419,0.97274-0.38129
			c0.10131,0.22427,0.316,0.62797,0.28712,0.64622c-0.53558,0.33845-1.10609,0.62069-1.65677,0.93652
			c-0.411,0.23571-0.96619,0.40676-1.18044,0.76989c-2.17406,3.68474-6.11138,5.05219-9.412,7.25316L48.46574,53.62426z"/>
		<path class="st0" d="M91.10041,61.68867c-1.70932-0.01065-2.81921-0.91349-3.21361-2.61406
			c-0.3471-1.49666,0.51747-3.90281,1.68806-4.41559c0.33149-0.14521,0.87,0.01255,1.24957,0.17811
			c1.19658,0.52192,2.37408,1.09172,3.533,1.69299c0.30055,0.15593,0.6817,0.46666,0.72759,0.75393
			C95.43697,59.48732,93.40102,61.70302,91.10041,61.68867z M92.05611,59.66566c-0.10822-0.21061-0.17354-0.33771-0.23885-0.46482
			c-0.18203,0.09737-0.36406,0.19473-0.54609,0.2921c0.07174,0.11295,0.14236,0.31955,0.21542,0.32042
			C91.6698,59.81551,91.8541,59.72456,92.05611,59.66566z M92.00847,57.51634c-0.03984-0.1447-0.07968-0.2894-0.11952-0.4341
			c-0.12916,0.04853-0.37154,0.10698-0.3683,0.1439c0.01591,0.18151,0.09705,0.3573,0.15514,0.53512
			C91.78658,57.67986,91.89737,57.59845,92.00847,57.51634z M93.51597,58.55816c-0.05723-0.01978-0.11446-0.03956-0.17168-0.05934
			c-0.00533,0.08013-0.01065,0.16025-0.01598,0.24038c0.05933-0.01485,0.12673-0.01767,0.17451-0.04972
			C93.52609,58.67387,93.51274,58.60366,93.51597,58.55816z M89.38226,56.39147c-0.01936,0.06034-0.03871,0.12068-0.05807,0.18102
			c0.08288,0.0052,0.16575,0.01039,0.24863,0.01559c-0.0137-0.06232-0.01348-0.13411-0.04681-0.18307
			C89.50875,56.37964,89.43209,56.39469,89.38226,56.39147z M89.56003,58.65633c-0.04627-0.05584-0.09254-0.11168-0.13882-0.16751
			c-0.05433,0.04803-0.14783,0.09297-0.15195,0.14498c-0.0041,0.05176,0.08157,0.11063,0.12788,0.16637
			C89.45144,58.75223,89.50573,58.70428,89.56003,58.65633z"/>
		<path class="st0" d="M93.87186,68.54578c0.07619,1.92068-0.87405,2.52254-2.56382,2.48441
			c-2.18377-0.04926-3.21125-1.77984-4.70006-2.81492c-0.69759-0.48499-0.36218-1.6911,0.58302-2.1506
			c1.3458-0.65423,2.75884-1.17262,4.1572-1.71268c0.15356-0.0593,0.51534,0.06116,0.58428,0.1975
			C92.63989,65.94839,93.30676,67.36778,93.87186,68.54578z"/>
		<path class="st0" d="M49.96347,56.1049c-0.20006,0.44423-0.40012,0.88846-0.60018,1.3327
			c-0.06968,0.01379-0.14914,0.01223-0.20493,0.04779c-0.02809,0.01791-0.01323,0.1032-0.0178,0.15801
			c0.05855-0.08347,0.11709-0.16693,0.17564-0.2504c0.45323-0.0528,0.92521-0.20813,1.35444-0.12965
			c0.43174,0.07893,0.82095,0.39049,1.2288,0.60012c-0.36845,0.1311-0.731,0.35168-1.10647,0.37648
			c-1.11541,0.07365-1.26221,0.49895-0.54528,1.29646c0.50539,0.56218,0.60777,1.09536-0.01849,1.63284l-0.00596,0.10881
			l-0.02366-0.17376c0.6012,0.17773,1.27556,0.61034,1.78387,0.46444c0.5537-0.15892,1.53489,0.28711,1.695-0.84709
			c0.1402-0.99305,1.01908-1.09887,1.63714-0.75665c0.51546,0.28542,1.13161,1.1026,1.05519,1.5807
			c-0.12308,0.76998-0.61411,1.69667-1.24371,2.12746c-1.54159,1.05481-3.31135,1.16114-4.97304,0.20747
			c-1.3904-0.79797-1.78667-2.11621-1.65255-3.68847c0.04976-0.58329-0.22839-1.19781-0.37424-1.79387
			c-0.33127-1.35383,0.11346-1.90856,1.80039-2.22625L49.96347,56.1049z M51.94662,62.52183
			c-0.01861,0.06211-0.04961,0.12431-0.04919,0.1863c0.00014,0.02205,0.07658,0.04359,0.11819,0.06537
			c0.01851-0.06212,0.0494-0.12434,0.04889-0.1863C52.06433,62.56509,51.98813,62.54361,51.94662,62.52183z"/>
		<path class="st0" d="M33.75587,68.45483c1.1438,0.26051,2.02427,0.38111,2.84564,0.66982
			c0.88222,0.31008,1.0149,0.98959,0.4167,1.68906c-0.30079,0.35171-0.799,0.5274-1.14104,0.85296
			c-0.3637,0.34618-0.996,0.94788-0.90257,1.13634c0.28701,0.57889,0.8109,1.09129,1.35391,1.47016
			c0.25975,0.18124,0.78211-0.0629,1.16418,0.00529c0.41223,0.07355,1.15318,0.33736,1.13981,0.43108
			c-0.08194,0.57481-0.18055,1.29834-0.56707,1.6472c-0.80733,0.72871-2.27211,0.42895-2.97458-0.50132
			c-0.33161-0.43913-0.55714-0.96642-0.7845-1.47444c-0.38206-0.85374-0.81739-1.0573-1.6279-0.39867
			c-0.34065,0.27682-1.26634,0.44312-1.37007,0.28796c-0.31298-0.46816-0.60719-1.20278-0.44879-1.68125
			c0.37207-1.12387,0.93424-2.20885,1.57682-3.20843C32.7333,68.91873,33.3983,68.69352,33.75587,68.45483z"/>
		<path class="st0" d="M61.97355,61.52789c-0.24501-0.05439-0.81749-0.09748-1.31296-0.31554
			c-0.47648-0.2097-0.87328-0.60047-1.30508-0.91167c0.47025-0.14293,0.93457-0.31067,1.41178-0.42434
			c1.76055-0.41936,3.24728-1.27166,4.31043-2.75929c0.73662-1.03071,1.33602-2.10948,2.88357-2.1837
			c0.5025-0.0241,0.96936-0.79136,1.45252-1.2187c-0.13176,0.75232-0.41202,1.51429-0.36395,2.25494
			c0.0963,1.48386-0.39159,2.60497-1.53755,3.53111C66.03894,60.69144,63.94968,61.5423,61.97355,61.52789z"/>
		<path class="st0" d="M46.46131,60.52776c0.0225,0.15818,0.09472,0.46996,0.10611,0.78395
			c0.03011,0.83016-0.45855,0.94849-1.09228,0.69603c-1.9161-0.7633-3.51585-1.8664-3.86809-4.09132
			c-0.23453-1.48143-0.31763-2.98817-0.5842-4.46267c-0.14364-0.7945,0.17658-0.31433,0.35305-0.18184
			c1.19554,0.8975,2.4147,1.76777,3.56288,2.72299C46.29939,57.12683,46.9555,58.56067,46.46131,60.52776z"/>
		<path class="st0" d="M80.75227,66.21816c0.57569,0.5388,1.35787,1.35867,2.23048,2.06718
			c1.34546,1.09243,0.84257,2.2544-0.13992,2.9762c-0.8931,0.65615,0.16998,2.46329-1.36495,2.26361
			c-0.7794-0.1014-1.40002-1.13879-2.17847-1.61133c-0.78498-0.47649-1.54108-0.93668-1.3336-1.96989
			c0.2773-1.38093,0.68445-2.73701,1.85914-3.67598C79.91792,66.19363,80.11227,66.24613,80.75227,66.21816z"/>
		<path class="st0" d="M60.24333,56.90754c-1.61293-0.50225-2.53244,0.03876-3.43533,1.00577
			c-1.13076,1.21104-1.2079,1.14088-1.8945-0.51431c-1.08307-2.61096-1.07243-2.52698,1.61469-2.86737
			c0.84808-0.10743,1.71096-0.68558,2.41027-1.24449c1.0941-0.87441,1.30547-0.89971,2.04621,0.37724
			c0.15829,0.27289,0.35019,0.53848,0.44469,0.83366c0.20262,0.63288,0.67923,1.49512,0.43636,1.8698
			C61.58919,56.79442,60.65102,56.79215,60.24333,56.90754z"/>
		<path class="st0" d="M68.40102,46.31856c1.77938,2.84214,1.30048,4.75293-1.59238,6.35353
			c-1.16113,0.64246-1.84786,0.36725-1.99828-0.91657c-0.11031-0.94154-0.08218-1.9091-0.01852-2.85854
			c0.06775-1.01036,0.41927-1.81565,1.62154-2.02864c0.38125-0.06754,0.68019-0.59958,1.01681-0.91906
			c0.22978,0.4323,0.44141,0.91246,1.03258,0.39141L68.40102,46.31856z"/>
		<path class="st0" d="M75.82375,54.34708c-0.18176,0.36527-0.40129,1.26558-0.96818,1.79137
			c-0.4085,0.37888-1.35208,0.47808-1.921,0.2902c-0.43394-0.14331-0.83417-0.89905-0.93525-1.44094
			c-0.26497-1.42052,0.25126-2.63432,1.38131-3.55751c1.05299-0.86023,1.60065-0.71137,2.09229,0.56291
			c0.0842,0.21823,0.1533,0.44807,0.18694,0.67875C75.71661,53.06107,75.73941,53.45523,75.82375,54.34708z"/>
		<path class="st0" d="M34.39108,62.2703c0.49686-0.16857,0.98832-0.46018,1.4916-0.48226
			c1.41845-0.06224,2.33772,0.56758,2.32769,1.46456c-0.0087,0.778-1.02173,1.60813-2.04906,1.67908
			c-1.22571,0.08466-2.14323-0.7222-2.14396-1.9641c-0.00015-0.2571,0.28782-0.51438,0.44299-0.77158
			c0.02509,0.15629-0.00602,0.37827,0.08567,0.45671c0.28836,0.24667,0.62287,0.43938,0.93951,0.65298
			c0.12926-0.25915,0.25852-0.51831,0.38779-0.77746c-0.33566-0.10268-0.66731-0.22321-1.00883-0.29971
			C34.71719,62.19554,34.5495,62.2536,34.39108,62.2703z"/>
		<path class="st0" d="M103.24005,77.96809c1.11195,0.72555,1.84102,1.20127,2.57008,1.67699
			c-0.58611,0.54916-1.08875,1.36781-1.77874,1.5815c-0.93159,0.2885-1.39335-0.55301-1.38115-1.41771
			C102.65724,79.31255,102.95359,78.8203,103.24005,77.96809z"/>
		<path class="st0" d="M60.83117,49.91506c-0.22133-0.39096-0.73059-0.91923-0.80241-1.50146
			c-0.11784-0.95527,0.60298-1.51416,1.48544-1.43748c0.49607,0.0431,1.18966,0.49126,1.36723,0.92982
			C63.19224,48.67359,62.12691,49.82981,60.83117,49.91506z"/>
		<path class="st0" d="M100.95871,60.2052c-0.86047-0.35807-2.01438-0.81338-3.13617-1.33745
			c-0.13573-0.0634-0.09797-0.49813-0.14061-0.76075c0.22604-0.01193,0.54494-0.12711,0.66396-0.02006
			c1.44019,1.29536,3.14474,1.04351,4.84607,0.91259c0.33282-0.02562,0.68088,0.14658,1.02191,0.22754
			c-0.33385,0.18244-0.64888,0.43098-1.00574,0.53254C102.60206,59.93209,101.96964,60.01195,100.95871,60.2052z"/>
		<path class="st0" d="M86.31978,47.00764c-0.46744,0.34465-0.86021,0.85224-1.31248,0.91238
			c-0.56144,0.07466-1.304-0.0644-1.71555-0.41116c-0.27809-0.2343-0.17964-0.99364-0.11848-1.50238
			c0.01718-0.14301,0.52876-0.36835,0.76031-0.31679c0.64942,0.14459,1.28169,0.38891,1.89674,0.65032
			C86.00175,46.41289,86.08984,46.68185,86.31978,47.00764z"/>
		<path class="st0" d="M83.44681,54.10256c0.48947-0.86616,0.91357-1.78162,1.50742-2.56905
			c0.18298-0.2426,0.82936-0.13571,1.26355-0.18885c-0.09605,0.39307-0.10118,0.84586-0.31052,1.16452
			c-0.27967,0.42574-0.71779,0.74739-1.08788,1.11375l0.0896-0.07609c-0.50782,0.16304-1.01565,0.32608-1.52347,0.48912
			L83.44681,54.10256z"/>
		<path class="st0" d="M84.81939,53.62293c0.39026-0.01046,0.79319-0.0841,1.16635-0.00927
			c0.25084,0.0503,0.45956,0.31068,0.68713,0.47708c-0.2405,0.23465-0.44852,0.61201-0.72798,0.67563
			c-0.67905,0.15459-1.39127,0.16339-2.09013,0.23093c0,0,0.06343,0.06218,0.06346,0.06217
			c0.33028-0.50422,0.66053-1.00842,0.99078-1.51263C84.90899,53.54684,84.81939,53.62293,84.81939,53.62293z"/>
		<path class="st0" d="M106.52884,61.47452c0.47945-0.09595,0.97506-0.30567,1.43164-0.24078
			c0.23489,0.03338,0.40022,0.5561,0.59698,0.8577c-0.27716,0.08376-0.57514,0.27559-0.82682,0.2271
			c-0.42542-0.08195-0.82153-0.31598-1.22996-0.48606C106.51007,61.71316,106.51945,61.59384,106.52884,61.47452z"/>
		<path class="st0" d="M111.86319,69.78083c-0.59606,0.14736-1.19319,0.29058-1.78778,0.4437
			c-0.34397,0.08858-0.68385,0.19308-1.02558,0.29043c0.21788-0.34872,0.35679-0.8194,0.66939-1.02185
			c0.74742-0.48406,1.48974-0.36039,2.08311,0.35454L111.86319,69.78083z"/>
		<path class="st0" d="M68.0964,41.56653c-0.21211-0.05547-0.42422-0.11095-0.63632-0.16643
			c0.1912,0.07806,0.38242,0.15613,0.57362,0.23419L68.0964,41.56653z"/>
		<path class="st0" d="M67.18253,62.79446c0.02559-0.20481,0.05116-0.40964,0.07674-0.61445
			c0.03229,0.0518,0.10381,0.12029,0.0901,0.15251c-0.06103,0.14339-0.14646,0.27639-0.22308,0.41314L67.18253,62.79446z"/>
		<polygon class="st0" points="116.09244,68.09804 116.12285,67.93288 116.09623,68.03668 		"/>
		<polygon class="st0" points="68.46277,46.34069 68.56113,46.30322 68.40102,46.31856 		"/>
		<path class="st0" d="M49.92764,56.17204c0.01194-0.02238,0.02389-0.04476,0.03583-0.06713L49.92764,56.17204z"/>
		<path class="st0" d="M61.85541,42.11757c0.05632-0.09115,0.11264-0.1823,0.16896-0.27345
			c-0.00929,0.04717-0.00279,0.11672-0.03121,0.13679c-0.05631,0.03974-0.1319,0.05215-0.19953,0.07586
			C61.79362,42.05677,61.85542,42.11757,61.85541,42.11757z"/>
		<polygon class="st0" points="104.87168,77.8208 104.74229,77.8758 104.75579,77.7412 		"/>
		<polygon class="st0" points="108.49022,80.09119 108.37856,80.05782 108.56336,80.08285 		"/>
		<polygon class="st0" points="48.41005,53.56867 48.31943,53.63483 48.46574,53.62426 		"/>
		<path class="st0" d="M77.687,81.01536c-0.01135,1.97604-1.10737,3.29627-2.67434,3.22141
			c-1.43587-0.06859-2.51262-1.42063-2.54133-3.19107c-0.03017-1.85986,1.13045-3.34684,2.62759-3.36649
			C76.61649,77.6593,77.69827,79.05378,77.687,81.01536z"/>
	</g>
</g>
</svg>
