<svg xmlns="http://www.w3.org/2000/svg" viewBox="0 0 490.9349 124.64209"><defs><style>.cls-1{fill:#656039;}.cls-2{fill:#ad6930;}.cls-3{fill:#c1bc6b;}.cls-4{fill:#dd9eac;}</style></defs><g id="Capa_2" data-name="Capa 2"><g id="Capa_1-2" data-name="Capa 1"><path class="cls-1" d="M0,62.32108A57.6514,57.6514,0,0,1,4.62544,39.357,61.26768,61.26768,0,0,1,17.52773,20.20751a62.00816,62.00816,0,0,1,19.06794-13.147A56.79845,56.79845,0,0,1,59.886,2.27194,56.40006,56.40006,0,0,1,83.0132,7.06051a63.04242,63.04242,0,0,1,19.15192,13.147,61.78649,61.78649,0,0,1,13.063,19.14951,56.81752,56.81752,0,0,1,4.707,22.96406,58.19716,58.19716,0,0,1-4.707,23.37183,60.567,60.567,0,0,1-32.13337,31.88866A58.64148,58.64148,0,0,1,59.886,122.207a59.38872,59.38872,0,0,1-23.29034-4.54387,60.4995,60.4995,0,0,1-19.06794-12.65758A58.203,58.203,0,0,1,4.62544,86.01679,59.88339,59.88339,0,0,1,0,62.32108Zm16.22982.16314a43.79413,43.79413,0,0,0,3.40671,17.28534,45.81648,45.81648,0,0,0,9.414,14.2002,43.90854,43.90854,0,0,0,13.95789,9.65632,42.32454,42.32454,0,0,0,17.20385,3.48828,42.16162,42.16162,0,0,0,30.83307-13.1446,47.33032,47.33032,0,0,0,9.25088-14.2002,44.21607,44.21607,0,0,0,3.4091-17.44848A45.42636,45.42636,0,0,0,90.88461,30.51159a43.93525,43.93525,0,0,0-13.95789-9.65633A41.96059,41.96059,0,0,0,59.886,17.367a41.52026,41.52026,0,0,0-17.20385,3.56984,44.99907,44.99907,0,0,0-13.95549,9.7379,43.105,43.105,0,0,0-9.25088,14.36333A46.95244,46.95244,0,0,0,16.22982,62.48422Z"/><path class="cls-1" d="M247.984,124.64209,157.26255,32.62038l4.54387,1.13717.32387,87.15156H146.38748V0h.81329l89.74745,92.34558-3.733-.81089-.32388-87.96485H248.471V124.64209Z"/><path class="cls-1" d="M282.22558,120.90911V3.56984h31.97264q17.36339,0,29.61672,5.35716a53.541,53.541,0,0,1,19.7205,14.11863,57.23189,57.23189,0,0,1,10.95423,19.39422A67.56255,67.56255,0,0,1,377.98034,63.619a58.86611,58.86611,0,0,1-4.62544,23.85884,53.15191,53.15191,0,0,1-12.74155,18.01474A57.1754,57.1754,0,0,1,342.03,116.93382a61.85061,61.85061,0,0,1-22.15077,3.97529Zm15.74281-15.09266H316.794a53.05611,53.05611,0,0,0,17.93317-2.92209,41.9572,41.9572,0,0,0,14.28177-8.44,38.1207,38.1207,0,0,0,9.49558-13.55,46.3604,46.3604,0,0,0,3.4091-18.25937A47.41126,47.41126,0,0,0,358.34141,43.577a39.019,39.019,0,0,0-9.73789-13.71318A42.63472,42.63472,0,0,0,334.648,21.50541a47.50371,47.50371,0,0,0-16.393-2.84051H297.96839Z"/><path class="cls-1" d="M418.55205,79.36172a26.70624,26.70624,0,0,0,3.81215,14.20259,27.58234,27.58234,0,0,0,10.14334,9.81707,28.56992,28.56992,0,0,0,14.28416,3.56984,30.131,30.131,0,0,0,14.76638-3.56984A26.63846,26.63846,0,0,0,471.783,93.56431a27.16144,27.16144,0,0,0,3.733-14.20259V3.56984H490.9349V79.84873q0,12.82193-5.92575,22.39788a40.1863,40.1863,0,0,1-15.90354,14.76878A47.61655,47.61655,0,0,1,446.7917,122.207a47.13908,47.13908,0,0,1-22.23714-5.19162,39.73927,39.73927,0,0,1-15.74041-14.76878q-5.84416-9.576-5.84177-22.39788V3.56984h15.57967Z"/><path class="cls-2" d="M62.3921,107.11436c-2.91393-.30092-2.317-3.69757-2.20724-5.93911.11948-2.43966.98907-6.0012.83517-8.29218-.057-.84881-.3981-.08125-.83638-.14291a4.74363,4.74363,0,0,0,.06228-1.27244,1.66348,1.66348,0,0,0-1.05086-1.22218c-2.83924-.76375-8.75427-.48277-9.80663-2.32668-1.71911-3.01214,4.04687-3.89085,5.85285-4.64685,2.49681-1.0452,2.6367-2.3348,2.59734-4.86512a21.85928,21.85928,0,0,0-.23942-4.31883c-.5433-1.41091-3.296-2.07048-3.80029-4.49081-1.03487-4.9668,7.37529-7.34256,6.93872-12.23905l.68718.82819L62.391,57.082c-1.173,4.99609,6.6304,6.73538,6.74757,11.472.089,3.59726-3.33138,3.95256-3.88124,5.53859a28.90154,28.90154,0,0,0-.39745,4.961c-.00721,2.77685,1.601,4.91815,1.386,7.83632-.39512,5.36225-3.90382,11.68172-4.37089,16.80341A5.3255,5.3255,0,0,0,62.3921,107.11436Zm-.966-46.71c-1.24684,2.552-5.35889,5.33821-4.298,8.43644,1.2,3.50458,8.3042,3.087,8.84967-.58268C66.3787,65.56057,62.66179,62.62389,61.42608,60.40431ZM61.238,89.19157c.30136-3.715-2.17681-2.39235-4.38058-2.09061Z"/><ellipse class="cls-2" cx="61.33492" cy="67.58299" rx="2.26438" ry="2.7899"/><path class="cls-3" d="M54.53222,52.13163c-.0012.30926.03672.672-.19743.874a2.00731,2.00731,0,0,1-.35553.19055,1.23916,1.23916,0,0,0-.52753,1.052c-.01981.40942.059.82054.01889,1.22847-.09617.97754-.84974,1.77788-1.03849,2.74183a2.45149,2.45149,0,0,0,3.82593,2.46932,2.7482,2.7482,0,0,0,1.10156-2.06113A3.45214,3.45214,0,0,0,56.64,56.3723c-.4114-.54469-.99327-1.05032-1.01672-1.73252a7.11675,7.11675,0,0,1,.09935-.81563.79779.79779,0,0,0-.26638-.738c-.18563-.12631-.4513-.12669-.59638-.298-.31043-.36652.22841-.69512.17655-1.03811C54.9483,51.16757,54.53361,51.775,54.53222,52.13163Z"/><path class="cls-3" d="M66.24431,43.83766a1.61452,1.61452,0,0,0-2.04849-.45692.5748.5748,0,0,0-.237.28828c-.13142.43014.46627.67217.90143.78587a3.74543,3.74543,0,0,1,1.32609.648.97923.97923,0,0,1,.38867.49056.40711.40711,0,0,1-.25865.50669.66057.66057,0,0,1-.46737-.171,4.1491,4.1491,0,0,0-1.22806-.56c-.37219-.10064-.85649-.10463-1.04611.23107-.23959.42416.26857.92623.7539.96837s.96519-.1617,1.45145-.13227a1.59748,1.59748,0,0,1,1.31874,2.09206,5.58888,5.58888,0,0,1-.688,1.01806,3.182,3.182,0,0,0-.23509,3.23516A2.78979,2.78979,0,0,0,69.026,54.21819a2.487,2.487,0,0,0,2.01871-2.39605,3.697,3.697,0,0,0-.571-1.71179,3.12381,3.12381,0,0,0-.95053-1.11985,5.12109,5.12109,0,0,1-1.19989-.71971,1.33,1.33,0,0,1,.1447-1.74227,2.15286,2.15286,0,0,1,1.78332-.52219,1.21516,1.21516,0,0,0,.61975-.01283c.48158-.20494.29255-1.03116-.20433-1.19559a1.54216,1.54216,0,0,0-1.423.46875,4.69632,4.69632,0,0,1-1.22434.96785c.03513-.98673,1.16978-1.46882,2.0321-1.94974.50626-.28235,1.01936-.92676.64522-1.36953a.727.727,0,0,0-.84386-.127,1.91822,1.91822,0,0,0-.67095.6113,12.81081,12.81081,0,0,0-1.62039,2.731,3.4068,3.4068,0,0,1,.38424-2.12457,5.77417,5.77417,0,0,0,.50047-.92663.922.922,0,0,0-.17991-.97865.858.858,0,0,0-1.19311.25013,2.09285,2.09285,0,0,0-.26822,1.3213,13.30238,13.30238,0,0,0,.21831,1.65574A10.68183,10.68183,0,0,0,66.24431,43.83766Z"/><path class="cls-4" d="M73.73688,54.412a7.24528,7.24528,0,0,1-1.43789.39683,3.2119,3.2119,0,0,0-1.364.57623,1.34027,1.34027,0,0,0-.50747,1.3202.86168.86168,0,0,0,1.16219.576.76488.76488,0,0,0,.92311.9238,1.3,1.3,0,0,0,.52377,1.04847.79773.79773,0,0,0,1.07939-.17622.68957.68957,0,0,0,.62235.3893,2.66911,2.66911,0,0,1,.44658-.03235c.12122.01855.2297.08588.349.11421a.92786.92786,0,0,0,.87757-.43923,2.47024,2.47024,0,0,0,.04758-2.8584c-.22492-.31454-.52461-.57329-.72458-.90425-.23525-.38932-.07741-1.38536-.424-1.61481C74.83979,53.42019,74.19021,54.2047,73.73688,54.412Z"/><path class="cls-1" d="M41.05,48.79932a4.4976,4.4976,0,0,0,1.40737-.008,1.33959,1.33959,0,0,0-2.58478.16965,1.52478,1.52478,0,0,1,.1237-1.33706,4.5098,4.5098,0,0,1,.90484-1.05085,2.63385,2.63385,0,0,0-1.72153.90257,1.43733,1.43733,0,0,0,.01989,1.82554.97651.97651,0,0,1,.27788.32938.77948.77948,0,0,1-.07275.50085,2.90752,2.90752,0,0,0,.90466,3.14756,3.87157,3.87157,0,0,0,2.97666.65146,3.45086,3.45086,0,0,0,2.2322-1.13262,1.917,1.917,0,0,0,.08514-2.36258,1.34163,1.34163,0,0,0-2.14446.18713.61362.61362,0,0,0-.06073.34408c.03684.22846.24559.38082.40089.55238s.25662.46213.08492.61728a1.876,1.876,0,0,0-.48959-.7185.6602.6602,0,0,0-.809-.04249c-.46041.39749.01717,1.39114-.53107,1.6546-.20915-.49964.299-1.18351-.08338-1.56716-.4531-.45464-1.285.34537-1.83636.01681.20063-.31979.72957-.18837,1.01654-.43365a.64919.64919,0,0,0-.02052-.88912C40.77677,49.75745,39.29417,48.83817,41.05,48.79932Z"/><path class="cls-1" d="M60.49194,42.68672a3.45036,3.45036,0,0,0-1.88942,3.19233,1.92564,1.92564,0,0,0,.66533,1.47258,1.80758,1.80758,0,0,0,2.54923-1.03056,4.51192,4.51192,0,0,0-.28178-3.104,1.1703,1.1703,0,0,0-.44966-.66447c-.239-.133-.62273-.00819-.62919.26522"/><path class="cls-1" d="M45.31365,45.66271c-.6416-.09924-1.45229.051-1.65973.66616l.63232.12276a1.64167,1.64167,0,0,0-.41246.75424l.766.02968a1.40182,1.40182,0,0,0-.46027.78945l.68236.1872a.59669.59669,0,0,0-.12669.99873.75143.75143,0,0,0,.611.07711c.83082-.21971,1.13656-1.3126,1.92323-1.65856a2.27408,2.27408,0,0,1,1.33131-.0409,3.45122,3.45122,0,0,0,1.33991.09691,1.00736,1.00736,0,0,0,.85331-.90816,1.16244,1.16244,0,0,0-.71562.12341c-.06809-.27337.39242-.36137.51051-.61715a.4092.4092,0,0,0-.24113-.50263,1.189,1.189,0,0,0-.61082-.04637,2.81685,2.81685,0,0,0,.35062-.65606.84818.84818,0,0,0-.59987-.01523l.203-.92582a.76317.76317,0,0,0-.75623.216c.18588-.10614.10985-.43068-.09121-.5041a.53323.53323,0,0,0-.56337.21058,3.14567,3.14567,0,0,0-.30347.56408,2.09525,2.09525,0,0,1-1.628,1.10212"/><path class="cls-2" d="M54.15613,46.34375a10.30459,10.30459,0,0,0-1.25395,1.63073,5.757,5.757,0,0,1-5.03189,2.2068c-.12728.08031-.00176.2722.12159.35843a5.87707,5.87707,0,0,0,1.65686.90032,4.14645,4.14645,0,0,0,1.68983.09545,7.42065,7.42065,0,0,0,3.88082-1.81075,2.73243,2.73243,0,0,0,1.17294-2.40943,2.798,2.798,0,0,1-.10433-.53975,1.51206,1.51206,0,0,1,.34336-.81062,1.44117,1.44117,0,0,0,.33078-.81438c-.00913-.298-.29472-.60149-.57845-.5101a3.07275,3.07275,0,0,1-.526,1.30929C55.43219,46.20209,54.72523,45.84415,54.15613,46.34375Z"/><path class="cls-3" d="M83.23185,57.98977a1.38219,1.38219,0,0,0-.03421.6478,1.77206,1.77206,0,0,1,2.466.783,2.88527,2.88527,0,0,1-.34683,2.79056A8.50777,8.50777,0,0,1,83.18117,64.215a2.56725,2.56725,0,0,1-.91238.50006.87535.87535,0,0,1-.93374-.30688,1.11352,1.11352,0,0,0-.21732-.329.67919.67919,0,0,0-.47551-.057,2.69878,2.69878,0,0,1-2.82971-2.54645,4.35929,4.35929,0,0,1,.36646-1.61694c.35146-.90216.73138-2.17838,1.69354-2.28631,2.21181-.24813,1.7212.76711,2.41728.72074.1899-.01265.49139-.61353.62669-.77818A.39347.39347,0,0,1,83.23185,57.98977Zm-1.04676,1.7289a2.53713,2.53713,0,0,0-1.4526,2.50278,1.06677,1.06677,0,0,0,.31368.72234,1.054,1.054,0,0,0,1.35587-.24347,2.1777,2.1777,0,0,0-.05426-2.99517"/><path class="cls-1" d="M63.68134,49.5595a2.60613,2.60613,0,0,1,.9547,1.41513,4.2506,4.2506,0,0,1,.00489,2.84657,2.8589,2.8589,0,0,1-2.10532,1.80874,1.34034,1.34034,0,0,1-1.13915-.26382,1.5894,1.5894,0,0,0-.28122-.26067c-.28106-.15888-.61852.0368-.91954.15352a2.35533,2.35533,0,0,1-2.833-1.41662,4.15794,4.15794,0,0,1,.31541-3.386,2.8263,2.8263,0,0,1,1.01227-1.22023,1.32133,1.32133,0,0,1,1.50376.04916c.191.16627.31638.40119.52056.551C61.61323,50.49536,62.56577,48.83067,63.68134,49.5595Zm-3.39043,1.91919A1.20761,1.20761,0,0,0,59.02746,50.213a1.50947,1.50947,0,0,0,1.25288,1.22595m-.00164,1.41051a1.51065,1.51065,0,0,0-1.24879,1.48089,1.39965,1.39965,0,0,0,1.14474-1.438m-.08678-.94107a1.52877,1.52877,0,0,0-1.80129.24,1.74385,1.74385,0,0,0,1.84-.17381M61.31408,53.211a1.32936,1.32936,0,0,0,1.39082,1.39332,1.66164,1.66164,0,0,0-1.37919-1.34955m.00181-1.55272a1.663,1.663,0,0,0,1.3747-1.6302,1.54079,1.54079,0,0,0-1.26017,1.583m.09553,1.03595a1.68289,1.68289,0,0,0,1.9829-.26423,1.91963,1.91963,0,0,0-2.0255.19133"/><path class="cls-1" d="M48.57128,66.65024c.19131-.45268.36065-1.03713.01251-1.384-.52833-.5264-1.4599.17883-2.15763-.0846a.67082.67082,0,0,1-.42442-.79929.48382.48382,0,0,1,.79971-.15441,1.65833,1.65833,0,0,1-.76133-1.552,2.706,2.706,0,0,1,1.27074.29508.63654.63654,0,0,1,.56954-1.10418c.82484.21615.69657,1.781,1.54291,1.88488.34385-.4759-.12481-1.10583-.18487-1.68987a1.24546,1.24546,0,0,1,1.142-1.31748,2.543,2.543,0,0,1,.0158,1.4507c.19131.10859.4075-.12935.43646-.34742a1.63153,1.63153,0,0,1,.09078-.64644.52092.52092,0,0,1,.788-.03668.8475.8475,0,0,1,.1317.8559,2.4949,2.4949,0,0,1-.49638.75808A2.29468,2.29468,0,0,0,52.593,62.284c.29585.20017.20488.68826-.06044.92743a3.7127,3.7127,0,0,1-.95471.47453.89582.89582,0,0,0-.6008.80384,1.6467,1.6467,0,0,0,1.20836-.237,2.18908,2.18908,0,0,1,1.19287-.35746c.4188.04838.80807.51162.60914.88331-.2027.37873-.757.32236-1.1674.19543-.09694.147.03112.35.19132.42305s.34513.07093.51046.13153a.70629.70629,0,1,1-.6307,1.25355c-.28282-.18568-.481-.5872-.81658-.54447-.22131.19047.01823.545.26568.7s.55993.38651.45843.66029c-.07688.20735-.34162.25813-.562.277a1.13466,1.13466,0,0,1-.56111-.04656c-.6884-.30754-.30953-1.61434-1.00032-1.91648a.78547.78547,0,0,0-.87893.29322,2.69621,2.69621,0,0,0-.396.90745c-.13744.43807-.88916,2.83725-1.55934,2.50143C47.13167,69.25857,48.405,67.04371,48.57128,66.65024Z"/><path class="cls-1" d="M47.74594,53.70107a3.55268,3.55268,0,0,0-2.18374,3.5931,1.19353,1.19353,0,0,1-.03952.69766,2.30714,2.30714,0,0,1-.32277.36351.38739.38739,0,0,0-.08391.44568c.26249.26587.67455-.1663,1.04813-.1623a1.06177,1.06177,0,0,1,.481.187,3.28572,3.28572,0,0,0,3.61513-.40921,3.82187,3.82187,0,0,0,1.22565-3.49083.54012.54012,0,0,1,.02343-.37751c.05838-.09216.16811-.13542.25339-.20442.82334-.66819-1.10021-.74841-1.354-.791A5.03416,5.03416,0,0,0,47.74594,53.70107Z"/><path class="cls-1" d="M64.86892,55.84834a.32276.32276,0,0,1-.21815.30094c-.13017.02631-.26647-.1478-.1746-.2437-.18427-.03115-.32991.17858-.32856.36547a2.45549,2.45549,0,0,0,.13736.54139.44982.44982,0,0,1-.14236.50224.337.337,0,0,0-.432-.32015,1.46438,1.46438,0,0,0,.37378,1.49.95731.95731,0,0,1-.56816-.14824,1.84787,1.84787,0,0,0,1.21919,1.80338c.41878.141.94587.16708,1.16588.55031.16557.28841.11323.72723.408.88115a.67484.67484,0,0,0,.33386.05116,5.15866,5.15866,0,0,0,.73833-.07452,1.86311,1.86311,0,0,1,.06815-1.605,3.53768,3.53768,0,0,1,.45428-.41889,1.94942,1.94942,0,0,0,.33722-2.37694.58784.58784,0,0,1-.41969.43738,2.244,2.244,0,0,1-.05557-.75661c-.01406-.25434-.16189-.54959-.41658-.554a.32556.32556,0,0,1-.35668.29625.99529.99529,0,0,0-.55054-1.12359c.10858.17292-.18215.36128-.36471.26925C65.40385,55.37547,65.02025,54.33222,64.86892,55.84834Z"/><path class="cls-1" d="M68.67556,61.01783a2.90885,2.90885,0,0,0,.17235,2.3828,1.58279,1.58279,0,0,0,.4439.52266c.60814.41772,1.41643.04554,2.11974-.17735a3.71407,3.71407,0,0,1,2.58629.06107,2.533,2.533,0,0,1,1.53506,1.99881,2.19885,2.19885,0,0,1-1.31349,2.17306,1.40211,1.40211,0,0,1-1.06412.04686,1.02258,1.02258,0,1,1,.9834-1.77992A.599.599,0,0,0,74.0124,65.51a1.33743,1.33743,0,0,0-.73688-.30817,3.751,3.751,0,0,0-1.49135.06856.50862.50862,0,0,0-.38759.49465.52563.52563,0,0,1-.07683.28415c-.12114.19242-.32454.31845-.46282.49893a1.85836,1.85836,0,0,0-.12439,1.5025.95432.95432,0,0,0,.62231.89082l1.58249.78983c.2537.12662.64107.21016.75288-.05041a.68431.68431,0,0,0,1.13372.08485c.0734-.11246.119-.25488.23689-.31913.27344-.149.785.17144.84166-.13474a.55958.55958,0,0,1,.28769-.78558c.04392.20807.3931.11118.46213-.09s.00776-.43266.092-.62794c.16938-.39283.8669-.57446.71354-.97382-.05719-.14892-.22686-.23267-.28138-.38258-.10248-.2818.23954-.50366.40587-.75316a.74433.74433,0,0,0-.61053-1.0963,1.39369,1.39369,0,0,0-.92044-1.75119c.15534-.14034-.02386-.40721-.22706-.45758a3.11928,3.11928,0,0,1-.61776-.09175c-.29283-.14034-.35443-.53626-.59277-.75682a1.20356,1.20356,0,0,0-.45315-.22905,12.30519,12.30519,0,0,1-1.5658-.28335c-.35366-.12126-.63549-.481-.88344-.54706-.60537-.16135-.279.643-.79817.31088C69.86683,60.1272,68.92206,60.25627,68.67556,61.01783Z"/><path class="cls-2" d="M72.78679,46.16873A1.81029,1.81029,0,0,1,74.11931,45.44c-.04238-.009.02908,1.12125,1.24477.63216,0,.68135.43033,1.36269,1.23281.754a.64984.64984,0,0,0,1.25717.27554A4.28025,4.28025,0,0,1,76.70121,50.924a2.83955,2.83955,0,0,1-4.86464-1.43643A3.76824,3.76824,0,0,1,72.78679,46.16873Zm.56789.73361a.47433.47433,0,1,0,.13276.05719m1.53767.56182a.56989.56989,0,1,0,.18366.04027M76.53045,48.686a.45456.45456,0,1,0,.01855.00353m-1.71087.71089a.53059.53059,0,0,0-.39081.70272.57939.57939,0,0,0,.82655.14914.50936.50936,0,0,0,.23085-.57874.608.608,0,0,0-.66659-.27312m-1.59963-.68937a.56395.56395,0,0,0-.61031.72125.54551.54551,0,0,0,.92852.06362c.189-.33682.05735-.8749-.31821-.78487"/><path class="cls-1" d="M90.68719,57.77721a1.9699,1.9699,0,0,0-1.809,1.69785,2.68412,2.68412,0,0,0,1.19476-.669,1.24962,1.24962,0,0,1,1.284-.26517.93416.93416,0,0,1,.1012,1.39735,1.95105,1.95105,0,0,1-1.484.49677,3.64558,3.64558,0,0,0-1.51264.10566,1.79409,1.79409,0,0,0-.87793.9631A2.882,2.882,0,0,0,88.018,64.448a3.39058,3.39058,0,0,1,.7833,1.0284c.21792.669-.25759,1.34757-.70429,1.89125.39178.0407.66561-.354.94813-.62842,1.28191-1.24538,3.73788-.33827,4.99038-1.61323a2.39867,2.39867,0,0,0-.60069-3.48545,9.28991,9.28991,0,0,1-.89446-.56442,1.01288,1.01288,0,0,1-.40926-.9218.84915.84915,0,0,1,1.04579-.57,1.34162,1.34162,0,0,1,.86617.941c.10373.34872.16019.79358.50247.91691a1.73305,1.73305,0,0,0-2.02012-2.3934,6.29794,6.29794,0,0,1,1.767-1.01625,1.70194,1.70194,0,0,0,1.07569-1.58873l-2.8597,1.95578a5.57248,5.57248,0,0,0,.56931-1.70028.94217.94217,0,0,0-.05211-.619.36623.36623,0,0,0-.53374-.13314.52835.52835,0,0,0-.12351.29649c-.16108.86951-.15,1.75972-.29127,2.6219A1.64158,1.64158,0,0,0,90.68719,57.77721Z"/><path class="cls-3" d="M45.95693,65.75535a.41443.41443,0,0,1,.25461.16125c.07508.13716-.023.30208-.12034.42447a7.31985,7.31985,0,0,1-4.10264,2.65161,5.59432,5.59432,0,0,1-4.696-1.06,4.68084,4.68084,0,0,1-1.62464-2.891c-.05391-.37146-.19006-1.3238.15686-1.58933.3081-.23582,1.63488.20135,2.00549.26811A62.44245,62.44245,0,0,1,45.95693,65.75535Zm-8.48736-1.43443a.668.668,0,0,0-.28518.818c.23569-.0281.358-.28884.43685-.51274a.33144.33144,0,0,0,.02558-.207c-.02164-.06747-.12242-.1431-.17725-.09823m1.79369.201a.45825.45825,0,0,0-.27216.67659.54693.54693,0,0,0,.41465-.6932l-.18772.00823m-.52021,1.12957a.69179.69179,0,0,0-.193.86247.5765.5765,0,0,0,.1982-.82543m1.04426.87622a1.095,1.095,0,0,0-.10863,1.01808.70541.70541,0,0,0,.15709-1.01059m.55015-1.47955a1.1514,1.1514,0,0,0-.20741.62375.25317.25317,0,0,0,.0635.20536c.14154.12035.32307-.11342.32832-.29914a1.12759,1.12759,0,0,0-.10423-.50509m1.028.18475a1.01,1.01,0,0,0,.23472.75482c.07778.05472.19326-.01343.22138-.10427a.45934.45934,0,0,0-.03332-.27833c-.05724-.16835-.15593-.36853-.33374-.36974m1.00494-.09953a.80357.80357,0,0,0,.15279.59608c.0368.0485.09407.09706.15185.07788.05165-.01715.07216-.079.07762-.13311a.58839.58839,0,0,0-.30294-.56508m.18325,1.34716a1.09758,1.09758,0,0,0,.34364.86558.589.589,0,0,0-.28476-.8918m-1.56822.61919a.79389.79389,0,0,0,.11311.506c.07153.14644.31519.20273.391.05847a.33936.33936,0,0,0-.02643-.27741.66905.66905,0,0,0-.17344-.283.2299.2299,0,0,0-.30426-.004m2.848-1.357a.93563.93563,0,0,0,.09381.474.28152.28152,0,0,0,.16635.16443c.15867.0387.27312-.18845.202-.33548a.66017.66017,0,0,0-.3897-.27632"/><path class="cls-3" d="M51.32021,33.01325a.56025.56025,0,0,1-.06933.44315c-.62593,1.2615-2.05832,1.87978-3.02422,2.90458a18.024,18.024,0,0,1-1.379,1.56779,17.4604,17.4604,0,0,1,4.3247-3.2234,7.209,7.209,0,0,1-1.97622,1.9335l-2.26279,1.70377,2.19209-1.14859c.26655-.13966.60358-.27646.84905-.1024.06427.11482-.068.23778-.18232.3029q-1.484.84522-3.03131,1.57216a.49011.49011,0,0,1,.29292.65829,1.41069,1.41069,0,0,1-.55208.59322q-3.48886,2.5158-7.10464,4.849a.84878.84878,0,0,1-.59277.19523,1.34332,1.34332,0,0,1,.30278-.57641c1.36747-1.78,3.13859-3.25526,4.2654-5.19658a4.09917,4.09917,0,0,1,1.10745-1.47127,1.1039,1.1039,0,0,1,1.60023.28974c-.14045-.337.86752-1.35967,1.0927-1.5545a10.67353,10.67353,0,0,0,1.22489-1.05855C49.25693,34.705,50.02077,33.46694,51.32021,33.01325Z"/><path class="cls-4" d="M56.11247,35.2397a1.25122,1.25122,0,0,0,.88268,2.09321,2.07029,2.07029,0,0,1-.61773-1.64884,1.71912,1.71912,0,0,1,1.41268.74365,15.15561,15.15561,0,0,1,1.5758,2.05619,15.24928,15.24928,0,0,0,1.67281,2.4422,3.0955,3.0955,0,0,0,2.63935,1.07143A2.72927,2.72927,0,0,0,65.69874,39.055a4.65969,4.65969,0,0,0-2.05082-3.2043A7.41276,7.41276,0,0,0,57.817,34.619a1.50941,1.50941,0,0,1-.649.05256.45644.45644,0,0,1-.37974-.46076c.06455-.431.82788-.38555.96485-.7993a1.016,1.016,0,0,0-1.47463.5179c-.113.37233-.09295.91457-.47548.98576a.70651.70651,0,0,1-.54185-.23426.69352.69352,0,0,0-.54222-.22909C54.04039,34.58925,55.51208,35.422,56.11247,35.2397Z"/><path class="cls-1" d="M50.26209,39.32983A1.56681,1.56681,0,0,0,48.651,40.852c.00284.18908.10589.42891.29359.40582a.36352.36352,0,0,0,.18691-.10612c.48017-.42883.926-1.0395,1.56978-1.0315l-1.4851,1.09613a.48305.48305,0,0,0-.20373.235.35428.35428,0,0,0,.09745.31471c.32211.36866.93189.2511,1.34684-.00866a1.72817,1.72817,0,0,0,.90083-1.52.9901.9901,0,0,0-1.32247-.84876"/><path class="cls-1" d="M79.80165,49.13474a2.81663,2.81663,0,0,0,1.23138.84666,5.49382,5.49382,0,0,0,4.42126-.19818.9422.9422,0,0,0,.35052-.2583.36293.36293,0,0,0,.03284-.41027l-.749.40466a.419.419,0,0,0-.62941-.2732c-.15937.11645-.2434.35437-.43945.37719-.27705.03224-.46727-.40918-.7339-.32728-.18782.05769-.22493.33593-.407.4099-.18036.0733-.36348-.09868-.46491-.26486s-.21178-.36687-.40509-.39005c-.17208-.02064-.31856.11257-.456.21814s-.34.18912-.47373.07892c-.14967-.12329-.0759-.36563-.13412-.5506a.51915.51915,0,0,0-.4843-.31995,1.52286,1.52286,0,0,0-.59776.14054c.0794-.03055-.19553-.67319-.2342-.72015C79.25512,48.14129,79.57462,48.83878,79.80165,49.13474Z"/><path class="cls-1" d="M68.3911,38.16634a.7983.7983,0,0,0-.72422.60442,1.36066,1.36066,0,0,0,.75358,1.55757,1.76526,1.76526,0,0,0,1.77707-.25771,1.11779,1.11779,0,0,0,.45882-.69907.59555.59555,0,0,0-.40974-.66381c-.41385-.0877-.88408.382-1.217.121-.15149-.11879-.17809-.33447-.27375-.50153s-.37539-.26568-.46-.09276"/><path class="cls-2" d="M24.91678,60.07778a2.10747,2.10747,0,0,0-.34294,1.37781.99331.99331,0,0,0,.995.85877c.4639-.05417.75963-.49967,1.0663-.85193.10807-.12413.26908-.2514.42064-.18725a.396.396,0,0,1,.17009.18282,8.62714,8.62714,0,0,0,1.206,2.236,1.88667,1.88667,0,0,0,3.04192-.69054.92057.92057,0,0,0-.20783-1.105c-.43258-.28057-.97552.09-1.47962.19827A1.50132,1.50132,0,0,1,28.07753,60.461a.546.546,0,0,1,.09452-.24827.78522.78522,0,0,1,.46045-.21A2.53817,2.53817,0,0,0,30.316,58.59918a.67851.67851,0,0,0,.07682-.32074c-.02438-.3364-.42989-.48336-.76145-.54526-.77241-.1442-2.36554-.69144-3.12631-.30965C25.77081,57.792,25.32068,59.37679,24.91678,60.07778Z"/><path class="cls-4" d="M86.09157,64.20239a4.02783,4.02783,0,0,0-.70538,1.63411.82707.82707,0,0,0-.6383-.5462c-.40721-.02661-.69809.40207-.78566.80064a1.52278,1.52278,0,0,0,.75993,1.75519,1.6709,1.6709,0,0,0,1.84458-.79913,1.367,1.367,0,0,0,.26857-.67174.65793.65793,0,0,0-.30687-.62164,1.03313,1.03313,0,0,0-.9335.15193c.106-.05615.39741-1.03363.52461-1.21041.22362-.31079.70865-.59066.74187-.957A.88545.88545,0,0,0,86.09157,64.20239Z"/><path class="cls-1" d="M28.50324,51.57812a3.57231,3.57231,0,0,1,1.69145.277,1.29456,1.29456,0,0,1,.69864,1.4774,1.4692,1.4692,0,0,1-.76747.7455,2.39838,2.39838,0,0,1-1.8943.16247,1.59813,1.59813,0,0,1-1.05426-1.49567A1.34632,1.34632,0,0,1,28.55,51.57915m.467,1.08229c.04563-.39682-.04253-.53147-.411-.68958-.42861-.18392-.8981.39225-.82549.853.03777.23966.23334.35541.46893.41339a.88385.88385,0,0,0,.76756-.57678"/><path class="cls-4" d="M32.93234,53.24842c.84938-.91771,1.19222-.565,2.25275-.10625a60.91854,60.91854,0,0,1,6.55022,3.29137,6.60575,6.60575,0,0,1,1.99209,1.57,3.24894,3.24894,0,0,1,.66735,2.63053,2.52483,2.52483,0,0,1-1.96832,1.86652,5.33858,5.33858,0,0,1-2.61545-.341,37.35487,37.35487,0,0,1-7.24954-3.198,2.0524,2.0524,0,0,1-.70973-.57143,2.49549,2.49549,0,0,1-.24579-1.718A6.81579,6.81579,0,0,1,32.93234,53.24842Zm1.04986.66127a6.01181,6.01181,0,0,0,.3657,4.83063,10.05827,10.05827,0,0,0-.22475-5.20614l-.141.37551m2.12178.94339a8.49519,8.49519,0,0,0,1.03415,5.1288,8.05045,8.05045,0,0,0-.99493-5.6637c-.00845.18819-.03077.3467-.03922.5349m2.5778,1.41333a11.01015,11.01015,0,0,0,.896,4.67532,7.20342,7.20342,0,0,0-.65738-5.33077,1.0847,1.0847,0,0,0-.23866.65545"/><path class="cls-1" d="M32.5207,43.9627a.48036.48036,0,0,0,.17549.45747c.12544.11772.28033.20225.39754.32815.65181.70012-.27994,1.97.25929,2.76007a1.23142,1.23142,0,0,1,.19243.29983c.09049.2861-.19028.59394-.0968.87908.08955.27317.46545.355.58316.61729.12806.28531-.10963.64063.02608.92237.15485.32149.66093.29707.86893.587.128.17842.11781.44653.2904.58227.21528.1693.52738.00679.80039.02851.341.02714.57788.33417.821.57488s.64087.43581.90872.223a.68646.68646,0,0,0,.11552-.75719,2.36827,2.36827,0,0,1-.22823-.77927c.00721-.35178.26394-.64654.35731-.98579s-.15419-.82334-.485-.70352a.9016.9016,0,0,0-.3178-1.34125c-.17662-.07647-.39809-.10886-.49181-.277-.08771-.15732-.01909-.36895-.11232-.52306-.17017-.28132-.6855-.11933-.86976-.39163a.96025.96025,0,0,1-.09065-.25017c-.19068-.58477-.95019-.686-1.50972-.94145C33.72606,45.09482,32.64479,43.5363,32.5207,43.9627Z"/><path class="cls-1" d="M90.38759,53.33568a1.17393,1.17393,0,0,1,1.49938.623l-2.65591.8821A3.5433,3.5433,0,0,1,91.868,56.361a1.397,1.397,0,0,1-1.59079.00184,12.74839,12.74839,0,0,0-1.44264-.89734,3.35428,3.35428,0,0,0-1.14777-.18761c-1.88395-.04511-3.76647.50046-5.63648.26719A13.70752,13.70752,0,0,1,77.274,53.65564c-.11187-.06152-.23521-.13795-.26076-.263s.14158-.26245.228-.16847a.85957.85957,0,0,0-.46677-.46953,3.48876,3.48876,0,0,1,2.91716-.66737,31.64421,31.64421,0,0,1,5.80976.90105,21.17864,21.17864,0,0,1,2.73107,1.00944C89.43649,54.51208,89.27278,53.70216,90.38759,53.33568Zm-12.10552-.70342a.35761.35761,0,1,0,.1708.59538.37682.37682,0,0,0-.1708-.59538"/><path class="cls-1" d="M55.05493,39.884c-.18531-.65315-.33627-1.31618-.45868-1.98393a2.17878,2.17878,0,0,1,.70154,1.99679,7.549,7.549,0,0,1,.94-1.554,3.11459,3.11459,0,0,1-.68321,1.69266,2.27385,2.27385,0,0,1,1.536-.77481q-.6612.50316-1.34556.97487a.84422.84422,0,0,1,1.11177.26242,1.32117,1.32117,0,0,1,.08757,1.21393,3.2273,3.2273,0,0,1-.724,1.0296,12.336,12.336,0,0,1-1.64079,1.44157,1.3768,1.3768,0,0,1-1.20293.36222c-.4869-.1727-.6336-.78173-.67422-1.29675a12.33441,12.33441,0,0,1,.00991-2.057,2.0945,2.0945,0,0,1,.83464-1.75555A1.1933,1.1933,0,0,1,55.05493,39.884Z"/><path class="cls-1" d="M74.21926,39.17076c.2237-.27609.5978-.5691.892-.36981a1.81819,1.81819,0,0,1,1.55466-1.756,3.74355,3.74355,0,0,1,3.56683,2.06214,1.8053,1.8053,0,0,1-.15215,1.73285.45894.45894,0,0,0-.13414.28284c.0103.14959.17461.23091.26873.34763a.82873.82873,0,0,1-.01283.80767,15.1737,15.1737,0,0,1-1.28715,2.55407,1.23152,1.23152,0,0,1-.6998.63087,1.27369,1.27369,0,0,1-.69928-.12079l-3.52231-1.32838a4.202,4.202,0,0,1-1.23914-.63226C71.39336,42.24779,73.42613,40.14967,74.21926,39.17076Z"/><path class="cls-4" d="M86.55089,48.52445a3.95506,3.95506,0,0,0-2.64181-.90983,5.1912,5.1912,0,0,1-1.54336-.001,1.95837,1.95837,0,0,1-1.08958-2.58127,3.26238,3.26238,0,0,1,2.44445-1.80073,4.946,4.946,0,0,1,5.88882,5.46422,1.60668,1.60668,0,0,1-.513,1.11372,1.29426,1.29426,0,0,1-1.4934-.09,3.79064,3.79064,0,0,1-1.05211-1.19513m-3.86483-2.17057a1.26338,1.26338,0,0,0,.33353.15569.7608.7608,0,1,0-.38729-.245"/><path class="cls-2" d="M86.97187,52.06505a1.189,1.189,0,0,1,1.87214-.7572A.762.762,0,0,1,88.7994,52.489c-.40987.21121-.92184-.48992-.52707-.72816-.069-.21655-.41711-.13288-.54072.05785s-.16243.44534-.346.57942-.43547-.131-.41379-.33309"/></g></g></svg>