<?xml version="1.0" encoding="utf-8"?>
<!-- Generator: Adobe Illustrator 24.2.3, SVG Export Plug-In . SVG Version: 6.00 Build 0)  -->
<svg version="1.1" id="Capa_1" xmlns="http://www.w3.org/2000/svg" xmlns:xlink="http://www.w3.org/1999/xlink" x="0px" y="0px"
	 viewBox="0 0 841.88977 595.27557" style="enable-background:new 0 0 841.88977 595.27557;" xml:space="preserve">
<style type="text/css">
	.st0{fill:#1D1D1B;}
</style>
<g>
	<path class="st0" d="M134.05952,120.54497c37.63477,0,68.35254,27.46289,68.35254,67.53857
		c0,43.33105-30.92139,70.59032-69.36963,70.59032c-40.68604,0-70.18359-29.70067-70.18359-68.96239
		C62.85884,154.92485,87.6772,120.54497,134.05952,120.54497z M131.00826,129.49565c-20.75,0-36.00732,20.34326-36.00732,56.35059
		c0,34.37939,13.62988,63.87695,41.09277,63.87695c19.32617,0,34.37988-18.71582,34.37988-55.94336
		C170.47359,153.50053,154.60591,129.49565,131.00826,129.49565z"/>
	<path class="st0" d="M361.89304,130.91997c-12.40918,1.62744-16.27441,4.27197-16.88477,13.42627
		c-0.61035,7.93359-1.2207,14.85059-1.2207,32.54883v80.96532h-11.3916l-84.83058-101.71532v45.97559
		c0,17.69824,0.40723,25.63184,1.01709,31.53125c0.81396,8.95117,5.08594,13.62988,20.13966,14.44385v7.52686h-50.4507v-7.52686
		c11.5957-1.01709,16.68164-4.06885,17.90186-13.62988c0.81396-7.32373,1.2207-14.64697,1.2207-32.34521v-48.21289
		c0-6.71338-0.40674-11.18896-4.27197-16.47803c-3.66162-5.08594-8.54395-5.69629-17.08838-6.50977v-7.52686h39.66895
		l77.50685,90.11963v-36.61768c0-17.69824-0.20312-24.41162-0.81348-31.93848c-0.61035-8.74756-3.86523-13.01953-20.75-14.03662
		v-7.52686h50.24707V130.91997z"/>
	<path class="st0" d="M436.95261,123.39311c26.03906,0,45.16211,5.49268,58.18164,17.69824
		c10.375,9.56152,18.30856,23.80127,18.30856,44.34766c0,23.39453-9.76462,41.29639-25.42868,53.0957
		c-15.05371,11.3916-34.37988,17.08789-57.57129,17.08789h-55.94238v-7.52686c15.45996-1.2207,17.29102-3.05127,17.29102-19.93604
		V150.856c0-17.08789-2.2373-18.71533-17.29102-19.93604v-7.52686H436.95261z M420.06882,226.7354
		c0,14.44385,3.66113,19.32617,18.51172,19.32617c27.46289,0,43.33008-19.12256,43.33008-57.5708
		c0-19.32617-5.28906-36.21094-14.64648-44.95801c-8.54395-8.54443-19.12207-11.39209-32.75195-11.39209
		c-7.52734,0-10.98535,1.62744-12.20605,2.84766c-1.83105,1.83105-2.2373,5.28955-2.2373,11.18896V226.7354z"/>
	<path class="st0" d="M671.30121,130.91997c-13.01953,1.2207-16.47852,5.08545-17.29199,12.40918
		c-0.61035,6.10303-1.0166,13.01953-1.0166,27.25977v26.64941c0,17.49463-2.84863,35.19336-14.44434,47.39893
		c-9.35742,9.76465-23.80078,14.03661-38.24414,14.03661c-13.42676,0-26.85352-2.84764-36.41406-10.57811
		c-11.79883-8.95117-17.49512-21.36035-17.49512-44.14453v-51.46777c0-18.71533-1.83105-20.13965-17.29199-21.56348v-7.52686
		h62.86035v7.52686c-15.25781,1.42383-17.08789,2.84814-17.08789,21.56348v54.1123c0,22.78418,11.18848,37.83838,32.95508,37.83838
		c24.20801,0,34.78711-17.90186,34.78711-48.4165v-25.42871c0-14.03662-0.61035-21.36035-1.01758-27.46338
		c-0.81348-9.35742-6.50977-11.39209-20.75-12.20557v-7.52686h50.45117V130.91997z"/>
</g>
<g id="_x37_er4fj.tif">
</g>
<g>
	<path class="st0" d="M77.54829,364.56497v-1.16113c2.21924-0.23926,2.49902-0.39941,2.49902-3.12988v-6.71191
		c0-2.92188-1.06641-4.50293-3.31934-4.50293c-1.38818,0-2.69922,0.73047-4.1665,1.92578
		c0.04004,0.47949,0.11279,0.97949,0.11279,1.70996v7.80469c0,2.46484,0.31592,2.66504,2.44775,2.9043v1.16113h-8.62451v-1.16113
		c2.34619-0.23926,2.66992-0.39258,2.66992-2.9707v-6.93945c0-2.93359-0.95459-4.44141-3.21777-4.44141
		c-1.48975,0-2.93896,0.94824-4.15527,1.91797v9.46289c0,2.56445,0.27197,2.73145,2.40429,2.9707v1.16113h-8.68603v-1.16113
		c2.55664-0.24707,2.7749-0.40625,2.7749-2.99902v-8.30176c0-2.49805-0.13818-2.69434-2.31006-3.07129v-1.04883
		c1.94189-0.27246,3.89014-0.79883,5.81689-1.58301c0,0.95801,0,2.24023,0,3.19141c0.8457-0.63184,1.6626-1.28223,2.86132-1.99805
		c1.0415-0.66016,1.93457-1.07324,3.19775-1.07324c1.97412,0,3.58301,1.19727,4.37402,3.23047
		c1.08936-0.84961,2.08447-1.50684,3.08301-2.18555c0.87842-0.55859,1.99658-1.04492,3.16162-1.04492
		c3.17969,0,5.08203,2.25684,5.08203,6.19922v7.71387c0,2.58984,0.23242,2.7168,2.45117,2.9707v1.16113H77.54829z"/>
	<path class="st0" d="M103.11958,361.07767c-2.53418,3.26562-5.40137,3.9668-6.75098,3.9668
		c-4.95801,0-7.92725-3.98633-7.92725-8.60742c0-2.72949,1.02295-5.28809,2.66748-7.02441c1.69873-1.8623,3.90186-2.89258,6-2.89258
		c3.55322,0,6.20312,3.03711,6.1958,6.24609c-0.03271,0.77734-0.13818,1.19434-0.74805,1.34668
		c-0.7915,0.16699-5.99658,0.51172-10.59033,0.67188c-0.06934,5.14941,3.04004,7.33887,5.88232,7.33887
		c1.62256,0,3.14746-0.65723,4.61768-1.99316L103.11958,361.07767z M96.17915,348.05814c-1.79346,0-3.51172,1.74609-4.01318,4.9668
		c2.12842-0.00781,4.23535-0.01465,6.46924-0.12012c0.68994-0.00684,0.92969-0.18555,0.92969-0.79883
		C99.60445,350.01126,98.29341,348.05814,96.17915,348.05814z"/>
	<path class="st0" d="M105.98921,347.98294c2.20654-0.30566,4.29688-0.83203,6.16455-1.53613c0,1.78223,0,3.55762,0,5.36621v8.20117
		c0,2.74707-0.18848,4.40332-0.9541,6.50879c-1.43359,3.95801-4.00293,7.00977-4.93555,7.79395
		c-0.44287,0.33398-0.76221,0.46094-1.11035,0.46094c-0.62793,0-1.50635-0.85254-1.50635-1.87598
		c0-0.54102,0.1958-0.80859,0.68945-0.94727c1.53467-0.34863,2.56592-0.71973,3.07471-1.3877
		c0.43604-0.53809,0.72656-1.4375,0.9375-2.79492c0.21826-1.77832,0.29102-4.22461,0.29102-7.71875v-7.80566
		c0-2.71191-0.21436-2.84961-2.65088-3.21582V347.98294z M110.19576,342.73392c-1.18994,0-2.1875-1.01562-2.1875-2.18066
		c0-1.30957,0.99756-2.24512,2.22754-2.24512c1.17139,0,2.12158,0.93555,2.12158,2.24512
		C112.35738,341.71829,111.40718,342.73392,110.19576,342.73392z"/>
	<path class="st0" d="M125.62935,346.52005c5.10645,0,8.7915,3.87207,8.7915,8.95898c0,6.46191-4.76318,9.56543-8.82031,9.56543
		c-5.604,0-8.97266-4.4541-8.97266-8.96289C116.62788,349.64505,121.69185,346.52005,125.62935,346.52005z M125.14986,347.92044
		c-2.30615,0-4.40918,2.25488-4.40918,6.9375c0,5.0498,2.12842,8.74512,5.26611,8.74512c2.30371,0,4.30078-1.66016,4.30078-7.19531
		C130.30757,351.57767,128.47701,347.92044,125.14986,347.92044z"/>
	<path class="st0" d="M146.40767,364.56497h-9.42871v-1.16113c2.44385-0.23926,2.67627-0.43945,2.67627-2.99902v-8.38477
		c0-2.52051-0.16016-2.65527-2.39697-2.95605v-1.04102c2.05029-0.3125,3.92627-0.79199,5.91064-1.61621
		c0,1.31836,0,3.06738,0,4.37793c1.46973-2.19824,3.10352-4.26465,5.03564-4.26465c1.47754,0,2.36621,0.93262,2.36621,2.00293
		c0,1.10449-0.77539,2.02637-1.47949,2.41113c-0.42822,0.24023-0.76221,0.1709-1.07422-0.10059
		c-0.61377-0.5918-1.1001-1.03516-1.81152-1.03516c-0.79541,0-2.18652,1.10938-3.03662,3.05176v7.52148
		c0,2.59277,0.21436,2.77832,3.23877,3.03223V364.56497z"/>
	<path class="st0" d="M164.98238,365.04446c-0.68555,0-1.56396-0.32715-1.98486-0.77344
		c-0.52637-0.51172-0.77295-1.07129-0.97266-1.73926c-1.58301,1.06348-3.53955,2.5127-4.69141,2.5127
		c-2.94287,0-4.97217-2.41406-4.97217-4.95508c0-1.98535,1.05664-3.20605,3.23828-3.97852
		c2.42188-0.8457,5.44531-1.87012,6.33105-2.60352v-0.9707c0-2.69824-1.31543-4.25-3.32715-4.25
		c-0.87549,0-1.43457,0.41797-1.82666,0.89746c-0.44629,0.57324-0.7041,1.4375-1.05664,2.60254
		c-0.21387,0.71777-0.62354,0.99707-1.2583,0.99707c-0.80908,0-1.86475-0.82715-1.86475-1.81445
		c0-0.58789,0.51172-1.07422,1.33203-1.64746c1.27295-0.90332,3.59619-2.32324,5.86523-2.80176
		c1.26953,0,2.5293,0.35938,3.49072,1.0918c1.45508,1.19824,2.06543,2.61328,2.06543,4.68262v7.56348
		c0,1.85059,0.67139,2.39551,1.37598,2.39551c0.46484,0,0.9624-0.18457,1.40186-0.41699l0.40625,1.16113L164.98238,365.04446z
		 M161.93062,354.94876c-0.84961,0.43164-2.55078,1.19141-3.44775,1.59766c-1.46729,0.67188-2.34961,1.42383-2.34961,2.87891
		c0,2.13867,1.59033,3.06836,2.7959,3.06836c0.95215,0,2.23145-0.53125,3.00146-1.29395
		C161.93062,359.32278,161.93062,356.82571,161.93062,354.94876z"/>
	<path class="st0" d="M179.58492,364.56497h-9.42871v-1.16113c2.44385-0.23926,2.67627-0.43945,2.67627-2.99902v-8.38477
		c0-2.52051-0.16016-2.65527-2.39697-2.95605v-1.04102c2.05029-0.3125,3.92627-0.79199,5.91064-1.61621
		c0,1.31836,0,3.06738,0,4.37793c1.46973-2.19824,3.10352-4.26465,5.03564-4.26465c1.47754,0,2.36621,0.93262,2.36621,2.00293
		c0,1.10449-0.77539,2.02637-1.47949,2.41113c-0.42822,0.24023-0.76221,0.1709-1.07422-0.10059
		c-0.61377-0.5918-1.1001-1.03516-1.81152-1.03516c-0.79541,0-2.18652,1.10938-3.03662,3.05176v7.52148
		c0,2.59277,0.21436,2.77832,3.23877,3.03223V364.56497z"/>
	<path class="st0" d="M183.60396,368.24466c1.89795-0.87402,3.31006-1.98828,3.31006-3.5127
		c0-1.39746-1.13672-1.83984-2.6709-2.21387c-0.24658-0.04004-0.63916-0.54102-0.63916-1.31738
		c0-1.04785,0.81641-2.10449,2.35156-2.10449c1.55957,0,3.53809,1.41895,3.53809,4.37695c0,3.2627-2.90332,5.27246-5.37012,5.98047
		L183.60396,368.24466z"/>
	<path class="st0" d="M217.34468,361.07767c-2.53418,3.26562-5.40137,3.9668-6.75098,3.9668
		c-4.95801,0-7.92725-3.98633-7.92725-8.60742c0-2.72949,1.02295-5.28809,2.66748-7.02441c1.69873-1.8623,3.90186-2.89258,6-2.89258
		c3.55322,0,6.20312,3.03711,6.1958,6.24609c-0.03271,0.77734-0.13818,1.19434-0.74805,1.34668
		c-0.7915,0.16699-5.99658,0.51172-10.59033,0.67188c-0.06934,5.14941,3.03955,7.33887,5.88232,7.33887
		c1.62256,0,3.14746-0.65723,4.61768-1.99316L217.34468,361.07767z M210.40425,348.05814c-1.79346,0-3.51172,1.74609-4.01318,4.9668
		c2.12842-0.00781,4.23535-0.01465,6.46924-0.12012c0.68994-0.00684,0.92969-0.18555,0.92969-0.79883
		C213.82954,350.01126,212.51851,348.05814,210.40425,348.05814z"/>
	<path class="st0" d="M231.36324,364.56497v-1.16113c2.20117-0.23926,2.41895-0.49805,2.41895-3.2207v-6.63184
		c0-2.80176-1.07031-4.49902-3.48291-4.49902c-1.5293,0-2.96436,0.85742-4.17383,1.91797v9.40137
		c0,2.69824,0.22559,2.79297,2.45215,3.03223v1.16113h-8.74023v-1.16113c2.53467-0.29395,2.77441-0.43262,2.77441-3.06055v-8.24023
		c0-2.55957-0.28711-2.67969-2.37109-3.03906v-1.08105c2.021-0.3125,4.12158-0.83203,5.89941-1.58301
		c-0.00732,0.85352-0.01465,2.15332-0.01465,3.10449c0.79883-0.55957,1.67041-1.1582,2.68701-1.81543
		c1.13232-0.71875,2.12012-1.16895,3.27832-1.16895c3.20166,0,5.20557,2.35547,5.20557,6.26465v7.58008
		c0,2.67285,0.23975,2.79199,2.48389,3.03906v1.16113H231.36324z"/>
	<path class="st0" d="M264.03854,364.56497v-1.16113c2.21924-0.23926,2.49902-0.39941,2.49902-3.12988v-6.71191
		c0-2.92188-1.06641-4.50293-3.31934-4.50293c-1.38818,0-2.69922,0.73047-4.1665,1.92578
		c0.04004,0.47949,0.11279,0.97949,0.11279,1.70996v7.80469c0,2.46484,0.31592,2.66504,2.44775,2.9043v1.16113h-8.62453v-1.16113
		c2.34619-0.23926,2.66992-0.39258,2.66992-2.9707v-6.93945c0-2.93359-0.95459-4.44141-3.21777-4.44141
		c-1.48975,0-2.93896,0.94824-4.15527,1.91797v9.46289c0,2.56445,0.27197,2.73145,2.4043,2.9707v1.16113h-8.68604v-1.16113
		c2.55664-0.24707,2.7749-0.40625,2.7749-2.99902v-8.30176c0-2.49805-0.13818-2.69434-2.31006-3.07129v-1.04883
		c1.94189-0.27246,3.89014-0.79883,5.81689-1.58301c0,0.95801,0,2.24023,0,3.19141c0.8457-0.63184,1.6626-1.28223,2.86133-1.99805
		c1.0415-0.66016,1.93457-1.07324,3.19775-1.07324c1.97414,0,3.58302,1.19727,4.37404,3.23047
		c1.08936-0.84961,2.08447-1.50684,3.08301-2.18555c0.87842-0.55859,1.99658-1.04492,3.16162-1.04492
		c3.17969,0,5.08203,2.25684,5.08203,6.19922v7.71387c0,2.58984,0.23242,2.7168,2.45117,2.9707v1.16113H264.03854z"/>
	<path class="st0" d="M289.60934,361.07767c-2.53418,3.26562-5.40137,3.9668-6.75098,3.9668
		c-4.95801,0-7.92725-3.98633-7.92725-8.60742c0-2.72949,1.02295-5.28809,2.66748-7.02441c1.69873-1.8623,3.90186-2.89258,6-2.89258
		c3.55322,0,6.20312,3.03711,6.1958,6.24609c-0.03271,0.77734-0.13818,1.19434-0.74805,1.34668
		c-0.7915,0.16699-5.99658,0.51172-10.59033,0.67188c-0.06934,5.14941,3.03955,7.33887,5.88232,7.33887
		c1.62256,0,3.14746-0.65723,4.61768-1.99316L289.60934,361.07767z M282.66891,348.05814c-1.79346,0-3.51172,1.74609-4.01318,4.9668
		c2.12842-0.00781,4.23535-0.01465,6.46924-0.12012c0.68994-0.00684,0.92969-0.18555,0.92969-0.79883
		C286.09421,350.01126,284.78317,348.05814,282.66891,348.05814z"/>
	<path class="st0" d="M303.6279,364.56497v-1.16113c2.20117-0.23926,2.41895-0.49805,2.41895-3.2207v-6.63184
		c0-2.80176-1.07031-4.49902-3.48291-4.49902c-1.5293,0-2.96436,0.85742-4.17383,1.91797v9.40137
		c0,2.69824,0.22559,2.79297,2.45215,3.03223v1.16113h-8.74023v-1.16113c2.53467-0.29395,2.77441-0.43262,2.77441-3.06055v-8.24023
		c0-2.55957-0.28711-2.67969-2.37109-3.03906v-1.08105c2.021-0.3125,4.12158-0.83203,5.89941-1.58301
		c-0.00732,0.85352-0.01465,2.15332-0.01465,3.10449c0.79883-0.55957,1.67041-1.1582,2.68701-1.81543
		c1.13232-0.71875,2.12012-1.16895,3.27832-1.16895c3.20166,0,5.20557,2.35547,5.20557,6.26465v7.58008
		c0,2.67285,0.23975,2.79199,2.48389,3.03906v1.16113H303.6279z"/>
	<path class="st0" d="M333.9277,363.55911c-0.86035,0.16016-3.97754,0.63965-6.48438,1.49219c0-0.82422,0-1.71387,0-2.54492
		c-0.71875,0.44629-1.75,1.0127-2.46875,1.45898c-1.48242,0.86035-2.47412,1.0791-2.94629,1.0791
		c-3.23047,0-7.5708-3.14453-7.5708-8.7998c0-5.53613,4.86426-9.72461,10.47168-9.72461c0.50879,0,1.71143,0.06543,2.51416,0.38086
		v-5.63965c0-2.47656-0.26514-2.57812-3.03564-2.83203v-1.08887c2.11133-0.2793,4.98584-0.83105,6.55664-1.35742
		c0,1.49219,0,3.18457,0,4.83594v19.04199c0,2.09082,0.27246,2.35645,1.75732,2.45703l1.20605,0.08789V363.55911z
		 M327.44333,350.14896c-0.83203-1.34668-2.42725-2.0293-3.97705-2.0293c-1.79492,0-5.05957,1.19922-5.05957,6.95703
		c0,4.90332,2.98047,7.34375,5.39941,7.38379c1.30811,0,2.69336-0.61133,3.63721-1.30078V350.14896z"/>
	<path class="st0" d="M348.59811,365.04446c-0.68555,0-1.56396-0.32715-1.98486-0.77344
		c-0.52637-0.51172-0.77295-1.07129-0.97266-1.73926c-1.58301,1.06348-3.53955,2.5127-4.69141,2.5127
		c-2.94287,0-4.97217-2.41406-4.97217-4.95508c0-1.98535,1.05664-3.20605,3.23828-3.97852
		c2.42188-0.8457,5.44531-1.87012,6.33105-2.60352v-0.9707c0-2.69824-1.31543-4.25-3.32715-4.25
		c-0.87549,0-1.43457,0.41797-1.82666,0.89746c-0.44629,0.57324-0.7041,1.4375-1.05664,2.60254
		c-0.21387,0.71777-0.62354,0.99707-1.2583,0.99707c-0.80908,0-1.86523-0.82715-1.86523-1.81445
		c0-0.58789,0.51221-1.07422,1.33252-1.64746c1.27295-0.90332,3.59619-2.32324,5.86523-2.80176
		c1.26953,0,2.5293,0.35938,3.49072,1.0918c1.45508,1.19824,2.06543,2.61328,2.06543,4.68262v7.56348
		c0,1.85059,0.67139,2.39551,1.37598,2.39551c0.46484,0,0.9624-0.18457,1.40186-0.41699l0.40625,1.16113L348.59811,365.04446z
		 M345.54636,354.94876c-0.84961,0.43164-2.55078,1.19141-3.44775,1.59766c-1.46729,0.67188-2.34961,1.42383-2.34961,2.87891
		c0,2.13867,1.59033,3.06836,2.7959,3.06836c0.95215,0,2.23145-0.53125,3.00146-1.29395
		C345.54636,359.32278,345.54636,356.82571,345.54636,354.94876z"/>
	<path class="st0" d="M363.20114,364.56497h-9.42871v-1.16113c2.44385-0.23926,2.67627-0.43945,2.67627-2.99902v-8.38477
		c0-2.52051-0.16016-2.65527-2.39697-2.95605v-1.04102c2.05029-0.3125,3.92627-0.79199,5.91064-1.61621
		c0,1.31836,0,3.06738,0,4.37793c1.46973-2.19824,3.10352-4.26465,5.03564-4.26465c1.47754,0,2.36621,0.93262,2.36621,2.00293
		c0,1.10449-0.77539,2.02637-1.47949,2.41113c-0.42822,0.24023-0.76221,0.1709-1.07422-0.10059
		c-0.61377-0.5918-1.1001-1.03516-1.81152-1.03516c-0.79541,0-2.18652,1.10938-3.03662,3.05176v7.52148
		c0,2.59277,0.21436,2.77832,3.23877,3.03223V364.56497z"/>
	<path class="st0" d="M379.23044,351.82962c-0.77637-2.40234-1.87207-3.94238-4.20752-3.94238
		c-1.34717,0-2.41064,0.96289-2.41064,2.50977c0,1.65918,1.12891,2.45117,3.33643,3.46777
		c3.39844,1.60156,5.20166,2.82812,5.20166,5.55664c0,3.73145-3.43359,5.62305-6.64551,5.62305
		c-2.07666,0-3.9707-0.66797-4.80957-1.13281c-0.19238-1.11523-0.55176-3.41211-0.7041-4.74414l1.18652-0.20703
		c0.74023,2.54883,2.18115,4.67578,4.94043,4.67578c1.51758,0,2.70166-1.0166,2.70166-2.60059
		c0-1.69629-0.9917-2.61426-3.17285-3.68164c-2.7666-1.34375-5.09277-2.64258-5.09277-5.59668
		c0-2.95801,2.49707-5.2373,6.33691-5.2373c1.7207,0,3.09961,0.39844,3.91992,0.5332
		c0.11963,0.97949,0.41357,3.50293,0.60645,4.48242L379.23044,351.82962z"/>
	<path class="st0" d="M398.76511,361.07767c-2.53418,3.26562-5.40137,3.9668-6.75098,3.9668
		c-4.95801,0-7.92725-3.98633-7.92725-8.60742c0-2.72949,1.02295-5.28809,2.66748-7.02441c1.69873-1.8623,3.90186-2.89258,6-2.89258
		c3.55322,0,6.20312,3.03711,6.1958,6.24609c-0.03271,0.77734-0.13818,1.19434-0.74805,1.34668
		c-0.7915,0.16699-5.99658,0.51172-10.59033,0.67188c-0.06934,5.14941,3.04004,7.33887,5.88232,7.33887
		c1.62256,0,3.14746-0.65723,4.61768-1.99316L398.76511,361.07767z M391.82468,348.05814c-1.79346,0-3.51172,1.74609-4.01318,4.9668
		c2.12842-0.00781,4.23535-0.01465,6.46924-0.12012c0.68994-0.00684,0.92969-0.18555,0.92969-0.79883
		C395.24997,350.01126,393.93893,348.05814,391.82468,348.05814z"/>
	<path class="st0" d="M402.23386,368.24466c1.89746-0.87402,3.30957-1.98828,3.30957-3.5127
		c0-1.39746-1.13672-1.83984-2.6709-2.21387c-0.24658-0.04004-0.63867-0.54102-0.63867-1.31738
		c0-1.04785,0.81592-2.10449,2.35107-2.10449c1.55957,0,3.53809,1.41895,3.53809,4.37695c0,3.2627-2.90332,5.27246-5.37012,5.98047
		L402.23386,368.24466z"/>
	<path class="st0" d="M443.06198,364.56497v-1.16113c2.21973-0.23926,2.49902-0.39941,2.49902-3.12988v-6.71191
		c0-2.92188-1.06641-4.50293-3.31934-4.50293c-1.3877,0-2.69922,0.73047-4.16602,1.92578
		c0.03906,0.47949,0.1123,0.97949,0.1123,1.70996v7.80469c0,2.46484,0.31641,2.66504,2.44727,2.9043v1.16113h-8.62402v-1.16113
		c2.34668-0.23926,2.66992-0.39258,2.66992-2.9707v-6.93945c0-2.93359-0.9541-4.44141-3.21777-4.44141
		c-1.48926,0-2.93945,0.94824-4.15527,1.91797v9.46289c0,2.56445,0.27246,2.73145,2.4043,2.9707v1.16113h-8.68604v-1.16113
		c2.55713-0.24707,2.7749-0.40625,2.7749-2.99902v-8.30176c0-2.49805-0.13867-2.69434-2.31006-3.07129v-1.04883
		c1.94189-0.27246,3.89014-0.79883,5.81689-1.58301c0,0.95801,0,2.24023,0,3.19141c0.8457-0.63184,1.66309-1.28223,2.86133-1.99805
		c1.04102-0.66016,1.93457-1.07324,3.19824-1.07324c1.97363,0,3.58203,1.19727,4.37402,3.23047
		c1.08887-0.84961,2.08398-1.50684,3.08203-2.18555c0.87891-0.55859,1.99707-1.04492,3.16211-1.04492
		c3.17969,0,5.08203,2.25684,5.08203,6.19922v7.71387c0,2.58984,0.23242,2.7168,2.45117,2.9707v1.16113H443.06198z"/>
	<path class="st0" d="M466.69577,365.04446c-0.68555,0-1.56348-0.32715-1.98438-0.77344
		c-0.52637-0.51172-0.77344-1.07129-0.97266-1.73926c-1.58301,1.06348-3.54004,2.5127-4.69141,2.5127
		c-2.94336,0-4.97266-2.41406-4.97266-4.95508c0-1.98535,1.05664-3.20605,3.23828-3.97852
		c2.42188-0.8457,5.44531-1.87012,6.33105-2.60352v-0.9707c0-2.69824-1.31543-4.25-3.32715-4.25
		c-0.875,0-1.43457,0.41797-1.82617,0.89746c-0.44629,0.57324-0.70508,1.4375-1.05664,2.60254
		c-0.21387,0.71777-0.62402,0.99707-1.25879,0.99707c-0.80957,0-1.86523-0.82715-1.86523-1.81445
		c0-0.58789,0.51172-1.07422,1.33203-1.64746c1.27344-0.90332,3.59668-2.32324,5.86523-2.80176
		c1.27051,0,2.5293,0.35938,3.49121,1.0918c1.45508,1.19824,2.06543,2.61328,2.06543,4.68262v7.56348
		c0,1.85059,0.67188,2.39551,1.37598,2.39551c0.46484,0,0.96191-0.18457,1.40137-0.41699l0.40723,1.16113L466.69577,365.04446z
		 M463.64401,354.94876c-0.84961,0.43164-2.55078,1.19141-3.44727,1.59766c-1.46777,0.67188-2.34961,1.42383-2.34961,2.87891
		c0,2.13867,1.58984,3.06836,2.7959,3.06836c0.95215,0,2.23145-0.53125,3.00098-1.29395
		C463.64401,359.32278,463.64401,356.82571,463.64401,354.94876z"/>
	<path class="st0" d="M491.35104,363.55911c-0.86035,0.16016-3.97754,0.63965-6.48438,1.49219c0-0.82422,0-1.71387,0-2.54492
		c-0.71875,0.44629-1.75,1.0127-2.46875,1.45898c-1.48242,0.86035-2.47363,1.0791-2.94629,1.0791
		c-3.23047,0-7.57129-3.14453-7.57129-8.7998c0-5.53613,4.86523-9.72461,10.47168-9.72461
		c0.50879,0,1.71191,0.06543,2.51465,0.38086v-5.63965c0-2.47656-0.26562-2.57812-3.03613-2.83203v-1.08887
		c2.1123-0.2793,4.98633-0.83105,6.55762-1.35742c0,1.49219,0,3.18457,0,4.83594v19.04199
		c0,2.09082,0.27246,2.35645,1.75684,2.45703l1.20605,0.08789V363.55911z M484.86667,350.14896
		c-0.83203-1.34668-2.42676-2.0293-3.97754-2.0293c-1.79395,0-5.05957,1.19922-5.05957,6.95703
		c0,4.90332,2.98145,7.34375,5.40039,7.38379c1.30762,0,2.69238-0.61133,3.63672-1.30078V350.14896z"/>
	<path class="st0" d="M512.58148,363.63919c-2.0029,0.28711-4.23141,0.80566-6.37595,1.40527c0-0.68262,0-2.0332,0-3.01074
		c-2.0625,1.71777-3.80566,3.01074-6.00195,3.01074c-2.79785,0-5.03418-1.73145-5.03418-5.93945v-7.84082
		c0-2.09863-0.30566-2.33105-1.31836-2.54492l-1.06738-0.20703v-1.08105c1.77441-0.08008,4.50293-0.45801,6.01953-0.71191
		c-0.11328,1.34961-0.12012,3.29492-0.12012,5.86621v5.50293c0,3.34863,1.74316,4.3252,3.46875,4.3252
		c1.41211,0,2.78223-0.56738,4.05371-1.78027V351.272c0-2.09961-0.42871-2.38574-1.74316-2.58594l-1.26367-0.17383v-1.08105
		c2.5127-0.11328,5.41504-0.52344,6.52832-0.71191v13.3125c0,2.01074,0.30469,2.31934,1.7793,2.40625l1.07516,0.04688V363.63919z"/>
	<path class="st0" d="M523.97797,364.56497h-9.42871v-1.16113c2.44434-0.23926,2.67676-0.43945,2.67676-2.99902v-8.38477
		c0-2.52051-0.16016-2.65527-2.39648-2.95605v-1.04102c2.0498-0.3125,3.92578-0.79199,5.91016-1.61621
		c0,1.31836,0,3.06738,0,4.37793c1.46973-2.19824,3.10352-4.26465,5.03613-4.26465c1.47656,0,2.36621,0.93262,2.36621,2.00293
		c0,1.10449-0.77539,2.02637-1.48047,2.41113c-0.42773,0.24023-0.76172,0.1709-1.07422-0.10059
		c-0.61328-0.5918-1.09961-1.03516-1.81152-1.03516c-0.79492,0-2.18652,1.10938-3.03613,3.05176v7.52148
		c0,2.59277,0.21387,2.77832,3.23828,3.03223V364.56497z"/>
	<path class="st0" d="M542.55316,365.04446c-0.68555,0-1.56348-0.32715-1.98438-0.77344
		c-0.52637-0.51172-0.77344-1.07129-0.97266-1.73926c-1.58301,1.06348-3.54004,2.5127-4.69141,2.5127
		c-2.94336,0-4.97266-2.41406-4.97266-4.95508c0-1.98535,1.05664-3.20605,3.23828-3.97852
		c2.42188-0.8457,5.44531-1.87012,6.33105-2.60352v-0.9707c0-2.69824-1.31543-4.25-3.32715-4.25
		c-0.875,0-1.43457,0.41797-1.82617,0.89746c-0.44629,0.57324-0.70508,1.4375-1.05664,2.60254
		c-0.21387,0.71777-0.62402,0.99707-1.25879,0.99707c-0.80957,0-1.86523-0.82715-1.86523-1.81445
		c0-0.58789,0.51172-1.07422,1.33203-1.64746c1.27344-0.90332,3.59668-2.32324,5.86523-2.80176
		c1.27051,0,2.5293,0.35938,3.49121,1.0918c1.45508,1.19824,2.06543,2.61328,2.06543,4.68262v7.56348
		c0,1.85059,0.67188,2.39551,1.37598,2.39551c0.46484,0,0.96191-0.18457,1.40137-0.41699l0.40723,1.16113L542.55316,365.04446z
		 M539.5014,354.94876c-0.84961,0.43164-2.55078,1.19141-3.44727,1.59766c-1.46777,0.67188-2.34961,1.42383-2.34961,2.87891
		c0,2.13867,1.58984,3.06836,2.7959,3.06836c0.95215,0,2.23145-0.53125,3.00098-1.29395
		C539.5014,359.32278,539.5014,356.82571,539.5014,354.94876z"/>
	<path class="st0" d="M557.1557,364.56497h-9.42871v-1.16113c2.44434-0.23926,2.67676-0.43945,2.67676-2.99902v-8.38477
		c0-2.52051-0.16016-2.65527-2.39648-2.95605v-1.04102c2.0498-0.3125,3.92578-0.79199,5.91016-1.61621
		c0,1.31836,0,3.06738,0,4.37793c1.46973-2.19824,3.10352-4.26465,5.03613-4.26465c1.47656,0,2.36621,0.93262,2.36621,2.00293
		c0,1.10449-0.77539,2.02637-1.48047,2.41113c-0.42773,0.24023-0.76172,0.1709-1.07422-0.10059
		c-0.61328-0.5918-1.09961-1.03516-1.81152-1.03516c-0.79492,0-2.18652,1.10938-3.03613,3.05176v7.52148
		c0,2.59277,0.21387,2.77832,3.23828,3.03223V364.56497z"/>
	<path class="st0" d="M561.17523,368.24466c1.89746-0.87402,3.30957-1.98828,3.30957-3.5127
		c0-1.39746-1.13672-1.83984-2.6709-2.21387c-0.24707-0.04004-0.63867-0.54102-0.63867-1.31738
		c0-1.04785,0.81641-2.10449,2.35059-2.10449c1.56055,0,3.53809,1.41895,3.53809,4.37695c0,3.2627-2.90234,5.27246-5.37012,5.98047
		L561.17523,368.24466z"/>
	<path class="st0" d="M595.27582,360.92044c-1.77148,2.37402-4.44727,4.12402-6.85059,4.12402
		c-5.15039,0-8.18848-4.12012-8.18848-8.42188c0-3.11914,1.38672-5.7832,4.04102-7.79102
		c2.20996-1.69434,4.62695-2.31152,6.22754-2.31152c1.74707,0,3.05762,0.53711,3.67773,1.05566
		c0.55859,0.43262,0.66016,0.74805,0.66016,1.21582c-0.00684,0.9873-1.02637,1.87598-1.50195,1.87598
		c-0.21387,0-0.39551-0.08691-0.78027-0.40625c-1.32422-1.17578-2.68164-1.74902-4.05469-1.74902
		c-2.44141,0-4.67871,2.10645-4.67871,6.28809c-0.03223,5.50781,3.77539,7.32324,5.9834,7.32324
		c1.66992,0,2.99902-0.43945,4.76465-2.10254L595.27582,360.92044z"/>
	<path class="st0" d="M617.02386,363.63919c-2.00391,0.28711-4.23145,0.80566-6.37598,1.40527c0-0.68262,0-2.0332,0-3.01074
		c-2.0625,1.71777-3.80566,3.01074-6.00195,3.01074c-2.79785,0-5.03418-1.73145-5.03418-5.93945v-7.84082
		c0-2.09863-0.30566-2.33105-1.31836-2.54492l-1.06738-0.20703v-1.08105c1.77441-0.08008,4.50293-0.45801,6.01953-0.71191
		c-0.11328,1.34961-0.12012,3.29492-0.12012,5.86621v5.50293c0,3.34863,1.74316,4.3252,3.46875,4.3252
		c1.41211,0,2.78223-0.56738,4.05371-1.78027V351.272c0-2.09961-0.42871-2.38574-1.74316-2.58594l-1.26367-0.17383v-1.08105
		c2.5127-0.11328,5.41602-0.52344,6.52832-0.71191v13.3125c0,2.01074,0.30469,2.31934,1.7793,2.40625l1.0752,0.04688V363.63919z"/>
	<path class="st0" d="M628.42035,364.56497h-9.42871v-1.16113c2.44434-0.23926,2.67676-0.43945,2.67676-2.99902v-8.38477
		c0-2.52051-0.16016-2.65527-2.39648-2.95605v-1.04102c2.0498-0.3125,3.92578-0.79199,5.91016-1.61621
		c0,1.31836,0,3.06738,0,4.37793c1.46973-2.19824,3.10352-4.26465,5.03516-4.26465c1.47754,0,2.36719,0.93262,2.36719,2.00293
		c0,1.10449-0.77539,2.02637-1.48047,2.41113c-0.42773,0.24023-0.76172,0.1709-1.07422-0.10059
		c-0.61328-0.5918-1.09961-1.03516-1.81055-1.03516c-0.7959,0-2.1875,1.10938-3.03711,3.05176v7.52148
		c0,2.59277,0.21387,2.77832,3.23828,3.03223V364.56497z"/>
	<path class="st0" d="M646.99554,365.04446c-0.68555,0-1.56348-0.32715-1.98438-0.77344
		c-0.52637-0.51172-0.77344-1.07129-0.97266-1.73926c-1.58301,1.06348-3.54004,2.5127-4.69141,2.5127
		c-2.94336,0-4.97266-2.41406-4.97266-4.95508c0-1.98535,1.05664-3.20605,3.23828-3.97852
		c2.42188-0.8457,5.44531-1.87012,6.33105-2.60352v-0.9707c0-2.69824-1.31543-4.25-3.32715-4.25
		c-0.875,0-1.43457,0.41797-1.82617,0.89746c-0.44629,0.57324-0.70508,1.4375-1.05664,2.60254
		c-0.21387,0.71777-0.62402,0.99707-1.25879,0.99707c-0.80957,0-1.86523-0.82715-1.86523-1.81445
		c0-0.58789,0.51172-1.07422,1.33203-1.64746c1.27344-0.90332,3.59668-2.32324,5.86523-2.80176
		c1.27051,0,2.5293,0.35938,3.49121,1.0918c1.45508,1.19824,2.06543,2.61328,2.06543,4.68262v7.56348
		c0,1.85059,0.67188,2.39551,1.37598,2.39551c0.46484,0,0.96191-0.18457,1.40137-0.41699l0.40723,1.16113L646.99554,365.04446z
		 M643.94379,354.94876c-0.84961,0.43164-2.55078,1.19141-3.44727,1.59766c-1.46777,0.67188-2.34961,1.42383-2.34961,2.87891
		c0,2.13867,1.58984,3.06836,2.7959,3.06836c0.95215,0,2.23145-0.53125,3.00098-1.29395
		C643.94379,359.32278,643.94379,356.82571,643.94379,354.94876z"/>
	<path class="st0" d="M661.59808,364.56497h-9.42871v-1.16113c2.44434-0.23926,2.67676-0.43945,2.67676-2.99902v-8.38477
		c0-2.52051-0.16016-2.65527-2.39648-2.95605v-1.04102c2.0498-0.3125,3.92578-0.79199,5.91016-1.61621
		c0,1.31836,0,3.06738,0,4.37793c1.46973-2.19824,3.10352-4.26465,5.03516-4.26465c1.47754,0,2.36719,0.93262,2.36719,2.00293
		c0,1.10449-0.77539,2.02637-1.48047,2.41113c-0.42773,0.24023-0.76172,0.1709-1.07422-0.10059
		c-0.61328-0.5918-1.09961-1.03516-1.81055-1.03516c-0.7959,0-2.1875,1.10938-3.03711,3.05176v7.52148
		c0,2.59277,0.21387,2.77832,3.23828,3.03223V364.56497z"/>
	<path class="st0" d="M665.61761,368.24466c1.89746-0.87402,3.30957-1.98828,3.30957-3.5127
		c0-1.39746-1.13672-1.83984-2.6709-2.21387c-0.24707-0.04004-0.63867-0.54102-0.63867-1.31738
		c0-1.04785,0.81641-2.10449,2.35059-2.10449c1.56055,0,3.53809,1.41895,3.53809,4.37695c0,3.2627-2.90234,5.27246-5.37012,5.98047
		L665.61761,368.24466z"/>
	<path class="st0" d="M697.42035,365.04446c-0.68555,0-1.56348-0.32715-1.98438-0.77344
		c-0.52637-0.51172-0.77344-1.07129-0.97266-1.73926c-1.58301,1.06348-3.54004,2.5127-4.69141,2.5127
		c-2.94336,0-4.97266-2.41406-4.97266-4.95508c0-1.98535,1.05664-3.20605,3.23828-3.97852
		c2.42188-0.8457,5.44531-1.87012,6.33105-2.60352v-0.9707c0-2.69824-1.31543-4.25-3.32715-4.25
		c-0.875,0-1.43457,0.41797-1.82617,0.89746c-0.44629,0.57324-0.70508,1.4375-1.05664,2.60254
		c-0.21387,0.71777-0.62402,0.99707-1.25879,0.99707c-0.80957,0-1.86523-0.82715-1.86523-1.81445
		c0-0.58789,0.51172-1.07422,1.33203-1.64746c1.27344-0.90332,3.59668-2.32324,5.86523-2.80176
		c1.27051,0,2.5293,0.35938,3.49121,1.0918c1.45508,1.19824,2.06543,2.61328,2.06543,4.68262v7.56348
		c0,1.85059,0.67188,2.39551,1.37598,2.39551c0.46484,0,0.96191-0.18457,1.40137-0.41699l0.40723,1.16113L697.42035,365.04446z
		 M694.36859,354.94876c-0.84961,0.43164-2.55078,1.19141-3.44727,1.59766c-1.46777,0.67188-2.34961,1.42383-2.34961,2.87891
		c0,2.13867,1.58984,3.06836,2.7959,3.06836c0.95215,0,2.23145-0.53125,3.00098-1.29395
		C694.36859,359.32278,694.36859,356.82571,694.36859,354.94876z"/>
	<path class="st0" d="M702.02386,364.56497v-1.16113c2.50586-0.26172,2.78223-0.46094,2.78223-3.0752v-18.95508
		c0-2.37109-0.20703-2.61035-2.67676-2.95117v-1.08203c2.26465-0.24609,4.79785-0.85645,6.19043-1.35742
		c0,1.8623,0,3.75781,0,5.62695v18.71875c0,2.63574,0.21777,2.82812,2.75586,3.0752v1.16113H702.02386z"/>
	<path class="st0" d="M713.12738,364.56497v-1.16113c2.45117-0.24707,2.72363-0.43945,2.72363-3.17676v-8.14648
		c0-2.51172-0.13477-2.67188-2.43652-3.04199v-1.02344c2.15527-0.34473,4.14746-0.86426,5.9502-1.56836
		c0,1.67773,0,3.34766,0,5.01758v8.7627c0,2.71582,0.25781,2.92969,2.80371,3.17676v1.16113H713.12738z M717.37347,342.79935
		c-1.18945,0-2.25293-1.04883-2.25293-2.24609c0-1.3418,1.06348-2.31055,2.29297-2.31055c1.20508,0,2.1875,0.96875,2.1875,2.31055
		C719.60101,341.75052,718.61859,342.79935,717.37347,342.79935z"/>
	<path class="st0" d="M735.61469,364.56497v-1.16113c2.20117-0.23926,2.41895-0.49805,2.41895-3.2207v-6.63184
		c0-2.80176-1.07031-4.49902-3.48242-4.49902c-1.53027,0-2.96484,0.85742-4.17383,1.91797v9.40137
		c0,2.69824,0.22461,2.79297,2.45117,3.03223v1.16113h-8.74023v-1.16113c2.53516-0.29395,2.77441-0.43262,2.77441-3.06055v-8.24023
		c0-2.55957-0.28613-2.67969-2.37109-3.03906v-1.08105c2.02148-0.3125,4.12207-0.83203,5.89941-1.58301
		c-0.00684,0.85352-0.01367,2.15332-0.01367,3.10449c0.79883-0.55957,1.66992-1.1582,2.68652-1.81543
		c1.13184-0.71875,2.12012-1.16895,3.27832-1.16895c3.20215,0,5.20508,2.35547,5.20508,6.26465v7.58008
		c0,2.67285,0.24023,2.79199,2.48438,3.03906v1.16113H735.61469z M727.47601,342.32181
		c1.19043-2.79492,2.72266-3.75977,4.01074-3.75977c1.96387,0,4.29004,1.66992,5.65527,1.66992
		c0.83105,0,1.48828-0.39648,2.41016-1.83008l0.94727,0.57324c-1.36816,2.9502-2.85645,3.78223-4.01855,3.78223
		c-1.85059,0-4.04004-1.72461-5.53516-1.72461c-0.88965,0-1.61523,0.38184-2.57031,1.90234L727.47601,342.32181z"/>
	<path class="st0" d="M759.185,365.04446c-0.68555,0-1.56348-0.32715-1.98438-0.77344
		c-0.52637-0.51172-0.77344-1.07129-0.97266-1.73926c-1.58301,1.06348-3.54004,2.5127-4.69141,2.5127
		c-2.94336,0-4.97266-2.41406-4.97266-4.95508c0-1.98535,1.05664-3.20605,3.23828-3.97852
		c2.42188-0.8457,5.44531-1.87012,6.33105-2.60352v-0.9707c0-2.69824-1.31543-4.25-3.32715-4.25
		c-0.875,0-1.43457,0.41797-1.82617,0.89746c-0.44629,0.57324-0.70508,1.4375-1.05664,2.60254
		c-0.21387,0.71777-0.62402,0.99707-1.25879,0.99707c-0.80957,0-1.86523-0.82715-1.86523-1.81445
		c0-0.58789,0.51172-1.07422,1.33203-1.64746c1.27344-0.90332,3.59668-2.32324,5.86523-2.80176
		c1.27051,0,2.5293,0.35938,3.49121,1.0918c1.45508,1.19824,2.06543,2.61328,2.06543,4.68262v7.56348
		c0,1.85059,0.67188,2.39551,1.37598,2.39551c0.46484,0,0.96191-0.18457,1.40137-0.41699l0.40723,1.16113L759.185,365.04446z
		 M756.13324,354.94876c-0.84961,0.43164-2.55078,1.19141-3.44727,1.59766c-1.46777,0.67188-2.34961,1.42383-2.34961,2.87891
		c0,2.13867,1.58984,3.06836,2.7959,3.06836c0.95215,0,2.23145-0.53125,3.00098-1.29395
		C756.13324,359.32278,756.13324,356.82571,756.13324,354.94876z"/>
	<path class="st0" d="M773.78754,364.56497h-9.42871v-1.16113c2.44434-0.23926,2.67676-0.43945,2.67676-2.99902v-8.38477
		c0-2.52051-0.16016-2.65527-2.39648-2.95605v-1.04102c2.0498-0.3125,3.92578-0.79199,5.91016-1.61621
		c0,1.31836,0,3.06738,0,4.37793c1.46973-2.19824,3.10352-4.26465,5.03516-4.26465c1.47754,0,2.36719,0.93262,2.36719,2.00293
		c0,1.10449-0.77539,2.02637-1.48047,2.41113c-0.42773,0.24023-0.76172,0.1709-1.07422-0.10059
		c-0.61328-0.5918-1.09961-1.03516-1.81055-1.03516c-0.7959,0-2.1875,1.10938-3.03711,3.05176v7.52148
		c0,2.59277,0.21387,2.77832,3.23828,3.03223V364.56497z"/>
	<path class="st0" d="M777.80707,368.24466c1.89746-0.87402,3.30957-1.98828,3.30957-3.5127
		c0-1.39746-1.13672-1.83984-2.6709-2.21387c-0.24707-0.04004-0.63867-0.54102-0.63867-1.31738
		c0-1.04785,0.81641-2.10449,2.35059-2.10449c1.56055,0,3.53809,1.41895,3.53809,4.37695c0,3.2627-2.90234,5.27246-5.37012,5.98047
		L777.80707,368.24466z"/>
	<path class="st0" d="M66.1772,399.74075c-0.77637-2.40234-1.87207-3.94238-4.20752-3.94238
		c-1.34717,0-2.41064,0.96289-2.41064,2.50977c0,1.65918,1.12891,2.45117,3.33643,3.46777
		c3.39843,1.60156,5.20166,2.82812,5.20166,5.55664c0,3.73145-3.43359,5.62305-6.6455,5.62305
		c-2.07666,0-3.9707-0.66797-4.80957-1.13281c-0.19238-1.11523-0.55176-3.41211-0.7041-4.74414l1.18652-0.20703
		c0.74023,2.54883,2.18115,4.67578,4.94043,4.67578c1.51758,0,2.70166-1.0166,2.70166-2.60059
		c0-1.69629-0.9917-2.61426-3.17285-3.68164c-2.7666-1.34375-5.09277-2.64258-5.09277-5.59668
		c0-2.95801,2.49707-5.2373,6.33691-5.2373c1.7207,0,3.09961,0.39844,3.91992,0.5332
		c0.11963,0.97949,0.41357,3.50293,0.60596,4.48242L66.1772,399.74075z"/>
	<path class="st0" d="M83.77388,412.9556c-0.68555,0-1.56396-0.32715-1.98486-0.77344
		c-0.52637-0.51172-0.77295-1.07129-0.97266-1.73926c-1.58301,1.06348-3.53955,2.5127-4.69141,2.5127
		c-2.94287,0-4.97217-2.41406-4.97217-4.95508c0-1.98535,1.05664-3.20605,3.23828-3.97852
		c2.42188-0.8457,5.44531-1.87012,6.33105-2.60352v-0.9707c0-2.69824-1.31543-4.25-3.32715-4.25
		c-0.87549,0-1.43457,0.41797-1.82666,0.89746c-0.44629,0.57324-0.7041,1.4375-1.05664,2.60254
		c-0.21387,0.71777-0.62354,0.99707-1.2583,0.99707c-0.80908,0-1.86523-0.82715-1.86523-1.81445
		c0-0.58789,0.51221-1.07422,1.33252-1.64746c1.27295-0.90332,3.59619-2.32324,5.86523-2.80176
		c1.26953,0,2.5293,0.35938,3.49072,1.0918c1.45508,1.19824,2.06543,2.61328,2.06543,4.68262v7.56348
		c0,1.85156,0.67139,2.39551,1.37598,2.39551c0.46484,0,0.9624-0.18457,1.40186-0.41699l0.40625,1.16113L83.77388,412.9556z
		 M80.72212,402.85989c-0.84961,0.43164-2.55078,1.19141-3.44775,1.59766c-1.46729,0.67188-2.34961,1.42285-2.34961,2.87891
		c0,2.13867,1.59033,3.06836,2.7959,3.06836c0.95215,0,2.23145-0.53125,3.00146-1.29395
		C80.72212,407.23392,80.72212,404.73685,80.72212,402.85989z"/>
	<path class="st0" d="M88.37788,412.4761v-1.16113c2.50537-0.26172,2.78174-0.46094,2.78174-3.0752V389.2847
		c0-2.37109-0.20703-2.61035-2.67627-2.95117v-1.08203c2.26416-0.24609,4.79736-0.85645,6.18994-1.35742
		c0,1.8623,0,3.75781,0,5.62695v18.71875c0,2.63574,0.21826,2.82812,2.75635,3.0752v1.16113H88.37788z"/>
	<path class="st0" d="M99.18355,395.76321c1.91992-0.28711,4.10449-0.98047,6.07031-1.73145c0,0.93652,0,2.2002,0,3.13672
		c0.11279-0.07227,3.19971-1.85938,3.35205-1.93164c0.96582-0.53418,1.81152-0.80566,2.36621-0.80566
		c4.39258,0,7.03955,3.73828,7.03955,7.66992c0,6.02637-4.76318,9.86719-9.97998,10.85449
		c-1.16211-0.0332-2.21143-0.34961-2.77783-0.6543v5.2832c0,2.8252,0.29834,3.06445,3.31543,3.3584v1.1543h-9.68701v-1.1543
		c2.56689-0.27148,2.85791-0.5,2.85791-3.08984v-18.10449c0-2.35254-0.10889-2.52637-2.55664-2.86426V395.76321z
		 M105.25386,409.46243c0.89014,0.88965,2.43311,1.54297,3.7002,1.54297c3.22998,0,5.34375-2.85742,5.34375-7.30078
		c0-4.4209-2.50146-6.75586-5.18555-6.75586c-1.32568,0-2.85205,0.8252-3.8584,1.56641V409.46243z"/>
	<path class="st0" d="M120.64156,412.4761v-1.16113c2.45117-0.24707,2.72363-0.43945,2.72363-3.17676v-8.14648
		c0-2.51172-0.13428-2.67188-2.43701-3.04199v-1.02344c2.15576-0.34473,4.14746-0.86426,5.95068-1.56836
		c0,1.67773,0,3.34766,0,5.01758v8.7627c0,2.71582,0.2583,2.92969,2.80322,3.17676v1.16113H120.64156z M124.88814,390.71048
		c-1.18994,0-2.25293-1.04883-2.25293-2.24609c0-1.3418,1.06299-2.31055,2.29297-2.31055c1.2041,0,2.1875,0.96875,2.1875,2.31055
		C127.11568,389.66165,126.13228,390.71048,124.88814,390.71048z"/>
	<path class="st0" d="M153.60542,412.4761v-1.16113c2.21924-0.23926,2.49902-0.39941,2.49902-3.12988v-6.71191
		c0-2.92188-1.06641-4.50293-3.31934-4.50293c-1.38818,0-2.69922,0.73047-4.1665,1.92578
		c0.04004,0.47949,0.11279,0.97949,0.11279,1.70996v7.80469c0,2.46484,0.31592,2.66504,2.44775,2.9043v1.16113h-8.62451v-1.16113
		c2.34619-0.23926,2.66992-0.39258,2.66992-2.9707v-6.93945c0-2.93359-0.95459-4.44141-3.21777-4.44141
		c-1.48975,0-2.93896,0.94824-4.15527,1.91797v9.46289c0,2.56445,0.27197,2.73145,2.40479,2.9707v1.16113h-8.68652v-1.16113
		c2.55664-0.24707,2.7749-0.40625,2.7749-2.99902v-8.30176c0-2.49805-0.13818-2.69434-2.31006-3.07129v-1.04883
		c1.94189-0.27246,3.89062-0.79883,5.81689-1.58301c0,0.95801,0,2.24023,0,3.19141c0.8457-0.63184,1.6626-1.28223,2.86133-1.99805
		c1.0415-0.66016,1.93457-1.07324,3.19775-1.07324c1.97412,0,3.58301,1.19727,4.37402,3.23047
		c1.08936-0.84961,2.08447-1.50684,3.08301-2.18555c0.87842-0.55859,1.99658-1.04492,3.16162-1.04492
		c3.17969,0,5.08203,2.25684,5.08203,6.19922v7.71387c0,2.58984,0.23242,2.7168,2.45117,2.9707v1.16113H153.60542z"/>
	<path class="st0" d="M179.17671,408.9888c-2.53418,3.26562-5.40137,3.9668-6.75098,3.9668
		c-4.95801,0-7.92725-3.98633-7.92725-8.60742c0-2.72949,1.02295-5.28809,2.66748-7.02441c1.69873-1.8623,3.90186-2.89258,6-2.89258
		c3.55322,0,6.20312,3.03711,6.1958,6.24609c-0.03271,0.77734-0.13818,1.19434-0.74805,1.34668
		c-0.7915,0.16699-5.99658,0.5127-10.59033,0.67188c-0.06934,5.14941,3.03955,7.33887,5.88232,7.33887
		c1.62256,0,3.14746-0.65723,4.61768-1.99316L179.17671,408.9888z M172.23628,395.96927c-1.79346,0-3.51172,1.74609-4.01318,4.9668
		c2.12842-0.00781,4.23535-0.01465,6.46924-0.12012c0.68994-0.00684,0.92969-0.18555,0.92969-0.79883
		C175.66158,397.92239,174.35054,395.96927,172.23628,395.96927z"/>
	<path class="st0" d="M193.19527,412.4761v-1.16113c2.20117-0.23926,2.41895-0.49805,2.41895-3.2207v-6.63184
		c0-2.80176-1.07031-4.49902-3.48291-4.49902c-1.5293,0-2.96436,0.85742-4.17383,1.91797v9.40137
		c0,2.69824,0.22559,2.79297,2.45215,3.03223v1.16113h-8.74023v-1.16113c2.53467-0.29395,2.77441-0.43262,2.77441-3.06055v-8.24023
		c0-2.55957-0.28711-2.67969-2.37109-3.03906v-1.08105c2.021-0.3125,4.12158-0.83203,5.89941-1.58301
		c-0.00732,0.85352-0.01465,2.15332-0.01465,3.10449c0.79883-0.55957,1.67041-1.1582,2.68701-1.81543
		c1.13232-0.71875,2.12012-1.16895,3.27832-1.16895c3.20166,0,5.20557,2.35547,5.20557,6.26465v7.58008
		c0,2.67285,0.23975,2.79199,2.48389,3.03906v1.16113H193.19527z"/>
	<path class="st0" d="M211.59175,412.45071c-0.67871,0.35156-1.31787,0.50488-1.6958,0.50488
		c-2.64893,0-4.09277-1.53613-4.09277-4.80957v-11.53418h-2.71924l-0.17432-0.47949l1.09277-1.22266h1.80078v-3.34668
		c0.8667-0.82715,2.16846-1.90918,3.04199-2.73633l0.58447,0.12305c-0.07275,1.56934-0.11963,3.84961-0.1123,5.95996h4.45166
		c0.35938,0.39941,0.23242,1.34277-0.25439,1.70215h-4.19727v10.14355c0,3.21289,1.27783,3.76855,2.26562,3.76855
		c0.9082,0,1.75439-0.31641,2.34229-0.5957l0.3667,1.11035L211.59175,412.45071z"/>
	<path class="st0" d="M228.86275,412.9556c-0.68555,0-1.56396-0.32715-1.98486-0.77344
		c-0.52637-0.51172-0.77295-1.07129-0.97266-1.73926c-1.58301,1.06348-3.53955,2.5127-4.69141,2.5127
		c-2.94287,0-4.97217-2.41406-4.97217-4.95508c0-1.98535,1.05664-3.20605,3.23828-3.97852
		c2.42188-0.8457,5.44531-1.87012,6.33105-2.60352v-0.9707c0-2.69824-1.31543-4.25-3.32715-4.25
		c-0.87549,0-1.43457,0.41797-1.82666,0.89746c-0.44629,0.57324-0.7041,1.4375-1.05664,2.60254
		c-0.21387,0.71777-0.62354,0.99707-1.2583,0.99707c-0.80908,0-1.86523-0.82715-1.86523-1.81445
		c0-0.58789,0.51221-1.07422,1.33252-1.64746c1.27295-0.90332,3.59619-2.32324,5.86523-2.80176
		c1.26953,0,2.5293,0.35938,3.49072,1.0918c1.45508,1.19824,2.06543,2.61328,2.06543,4.68262v7.56348
		c0,1.85156,0.67139,2.39551,1.37598,2.39551c0.46484,0,0.9624-0.18457,1.40186-0.41699l0.40625,1.16113L228.86275,412.9556z
		 M225.81099,402.85989c-0.84961,0.43164-2.55078,1.19141-3.44775,1.59766c-1.46729,0.67188-2.34961,1.42285-2.34961,2.87891
		c0,2.13867,1.59033,3.06836,2.7959,3.06836c0.95215,0,2.23145-0.53125,3.00146-1.29395
		C225.81099,407.23392,225.81099,404.73685,225.81099,402.85989z"/>
	<path class="st0" d="M243.46577,412.4761h-9.42871v-1.16113c2.44385-0.23926,2.67627-0.43945,2.67627-2.99902v-8.38477
		c0-2.52051-0.16016-2.65527-2.39697-2.95605v-1.04102c2.05029-0.3125,3.92627-0.79199,5.91064-1.61621
		c0,1.31836,0,3.06738,0,4.37793c1.46973-2.19824,3.10352-4.26465,5.03564-4.26465c1.47754,0,2.36621,0.93262,2.36621,2.00293
		c0,1.10449-0.77539,2.02637-1.47949,2.41113c-0.42822,0.24023-0.76221,0.1709-1.07422-0.10059
		c-0.61377-0.5918-1.1001-1.03516-1.81152-1.03516c-0.79541,0-2.18652,1.10938-3.03662,3.05176v7.52148
		c0,2.59277,0.21436,2.77832,3.23877,3.03223V412.4761z"/>
	<path class="st0" d="M247.48482,416.15579c1.89795-0.87402,3.31006-1.98828,3.31006-3.5127
		c0-1.39746-1.13672-1.83984-2.6709-2.21387c-0.24658-0.04004-0.63916-0.54102-0.63916-1.31738
		c0-1.04785,0.81641-2.10449,2.35156-2.10449c1.55957,0,3.53809,1.41895,3.53809,4.37695c0,3.2627-2.90332,5.27246-5.37012,5.98047
		L247.48482,416.15579z"/>
	<path class="st0" d="M269.0527,394.9097v-1.03516c0-2.8457,1.09131-5.7793,3.56396-7.87109
		c1.40479-1.23047,2.92969-1.90234,4.55176-2.10938c1.38623,0.0332,2.62402,0.50488,3.27734,1.24902
		c0.39551,0.46094,0.46094,0.90332,0.26123,1.46973c-0.14111,0.45703-0.60205,1.03711-1.04443,1.36426
		c-0.48242,0.30078-0.81641,0.21387-1.21582-0.08008c-0.82715-0.76953-1.95947-1.75195-3.2417-1.75195
		c-2.6167,0-2.64551,3.50098-2.63867,6.91699v1.84766h4.13232c0.2251,0.36719,0.03271,1.41504-0.42822,1.70215h-3.7041v11.51172
		c0,2.80273,0.41064,2.87207,3.32666,3.19141v1.16113h-9.55664v-1.16113c2.46533-0.25391,2.71631-0.4209,2.71631-2.99512v-11.70801
		h-2.79932l-0.16699-0.4541l0.90723-1.24805H269.0527z"/>
	<path class="st0" d="M292.88327,408.9888c-2.53418,3.26562-5.40137,3.9668-6.75098,3.9668
		c-4.95801,0-7.92725-3.98633-7.92725-8.60742c0-2.72949,1.02295-5.28809,2.66748-7.02441c1.69873-1.8623,3.90186-2.89258,6-2.89258
		c3.55322,0,6.20312,3.03711,6.1958,6.24609c-0.03271,0.77734-0.13818,1.19434-0.74805,1.34668
		c-0.7915,0.16699-5.99658,0.5127-10.59033,0.67188c-0.06934,5.14941,3.04004,7.33887,5.88232,7.33887
		c1.62256,0,3.14746-0.65723,4.61768-1.99316L292.88327,408.9888z M285.94284,395.96927c-1.79346,0-3.51172,1.74609-4.01318,4.9668
		c2.12842-0.00781,4.23535-0.01465,6.46924-0.12012c0.68994-0.00684,0.92969-0.18555,0.92969-0.79883
		C289.36813,397.92239,288.0571,395.96927,285.94284,395.96927z"/>
	<path class="st0" d="M304.87009,412.4761h-9.42871v-1.16113c2.44385-0.23926,2.67627-0.43945,2.67627-2.99902v-8.38477
		c0-2.52051-0.16016-2.65527-2.39697-2.95605v-1.04102c2.05029-0.3125,3.92627-0.79199,5.91064-1.61621
		c0,1.31836,0,3.06738,0,4.37793c1.46973-2.19824,3.10352-4.26465,5.03564-4.26465c1.47754,0,2.36621,0.93262,2.36621,2.00293
		c0,1.10449-0.77539,2.02637-1.47949,2.41113c-0.42822,0.24023-0.76221,0.1709-1.07422-0.10059
		c-0.61377-0.5918-1.1001-1.03516-1.81152-1.03516c-0.79541,0-2.18652,1.10938-3.03662,3.05176v7.52148
		c0,2.59277,0.21436,2.77832,3.23877,3.03223V412.4761z"/>
	<path class="st0" d="M319.3486,412.45071c-0.67871,0.35156-1.31787,0.50488-1.6958,0.50488
		c-2.64893,0-4.09277-1.53613-4.09277-4.80957v-11.53418h-2.71924l-0.17432-0.47949l1.09277-1.22266h1.80078v-3.34668
		c0.8667-0.82715,2.16846-1.90918,3.04199-2.73633l0.58447,0.12305c-0.07275,1.56934-0.11963,3.84961-0.1123,5.95996h4.45166
		c0.35938,0.39941,0.23242,1.34277-0.25439,1.70215h-4.19727v10.14355c0,3.21289,1.27783,3.76855,2.26562,3.76855
		c0.9082,0,1.75439-0.31641,2.34229-0.5957l0.3667,1.11035L319.3486,412.45071z"/>
	<path class="st0" d="M323.6611,412.4761v-1.16113c2.45117-0.24707,2.72363-0.43945,2.72363-3.17676v-8.14648
		c0-2.51172-0.13428-2.67188-2.43701-3.04199v-1.02344c2.15576-0.34473,4.14746-0.86426,5.95068-1.56836
		c0,1.67773,0,3.34766,0,5.01758v8.7627c0,2.71582,0.2583,2.92969,2.80322,3.17676v1.16113H323.6611z M327.90768,390.71048
		c-1.18994,0-2.25293-1.04883-2.25293-2.24609c0-1.3418,1.06299-2.31055,2.29297-2.31055c1.2041,0,2.1875,0.96875,2.1875,2.31055
		C330.13522,389.66165,329.15182,390.71048,327.90768,390.71048z"/>
	<path class="st0" d="M334.3569,412.4761v-1.16113c2.50537-0.26172,2.78174-0.46094,2.78174-3.0752V389.2847
		c0-2.37109-0.20703-2.61035-2.67627-2.95117v-1.08203c2.26416-0.24609,4.79736-0.85645,6.18994-1.35742
		c0,1.8623,0,3.75781,0,5.62695v18.71875c0,2.63574,0.21826,2.82812,2.75635,3.0752v1.16113H334.3569z"/>
	<path class="st0" d="M345.46042,412.4761v-1.16113c2.45117-0.24707,2.72363-0.43945,2.72363-3.17676v-8.14648
		c0-2.51172-0.13428-2.67188-2.43701-3.04199v-1.02344c2.15576-0.34473,4.14746-0.86426,5.95068-1.56836
		c0,1.67773,0,3.34766,0,5.01758v8.7627c0,2.71582,0.2583,2.92969,2.80322,3.17676v1.16113H345.46042z M349.707,390.71048
		c-1.18994,0-2.25293-1.04883-2.25293-2.24609c0-1.3418,1.06299-2.31055,2.29297-2.31055c1.2041,0,2.18701,0.96875,2.18701,2.31055
		C351.93405,389.66165,350.95114,390.71048,349.707,390.71048z"/>
	<path class="st0" d="M371.97507,407.26419c-0.56934,1.67969-1.33936,3.98438-1.73145,5.21191H356.6611l-0.29004-0.64648
		c3.44531-5.06738,6.70996-10.2627,9.94873-15.44336c-0.1709,0-3.47754,0-3.5498,0c-2.81396,0-3.39355,0.38965-4.97266,3.87402
		l-1.16113-0.38086c0.45361-1.56836,0.97998-4.01465,1.28076-5.82227h0.89307c0.24707,0.61328,0.78027,0.85254,2.27197,0.85254
		h9.53223l0.26807,0.5918c-3.14014,4.87793-6.51758,10.18652-9.78174,15.50488h3.96387c2.9917,0,3.98926-0.74805,5.8291-4.18848
		L371.97507,407.26419z"/>
	<path class="st0" d="M386.56638,412.9556c-0.68555,0-1.56396-0.32715-1.98486-0.77344
		c-0.52637-0.51172-0.77295-1.07129-0.97266-1.73926c-1.58301,1.06348-3.53955,2.5127-4.69141,2.5127
		c-2.94287,0-4.97217-2.41406-4.97217-4.95508c0-1.98535,1.05664-3.20605,3.23828-3.97852
		c2.42188-0.8457,5.44531-1.87012,6.33105-2.60352v-0.9707c0-2.69824-1.31543-4.25-3.32715-4.25
		c-0.87549,0-1.43457,0.41797-1.82666,0.89746c-0.44629,0.57324-0.7041,1.4375-1.05664,2.60254
		c-0.21387,0.71777-0.62354,0.99707-1.2583,0.99707c-0.80908,0-1.86475-0.82715-1.86475-1.81445
		c0-0.58789,0.51172-1.07422,1.33203-1.64746c1.27295-0.90332,3.59619-2.32324,5.86523-2.80176
		c1.26953,0,2.5293,0.35938,3.49072,1.0918c1.45508,1.19824,2.06543,2.61328,2.06543,4.68262v7.56348
		c0,1.85156,0.67139,2.39551,1.37598,2.39551c0.46484,0,0.9624-0.18457,1.40186-0.41699l0.40625,1.16113L386.56638,412.9556z
		 M383.51462,402.85989c-0.84961,0.43164-2.55078,1.19141-3.44775,1.59766c-1.46729,0.67188-2.34961,1.42285-2.34961,2.87891
		c0,2.13867,1.59033,3.06836,2.7959,3.06836c0.95215,0,2.23145-0.53125,3.00146-1.29395
		C383.51462,407.23392,383.51462,404.73685,383.51462,402.85989z"/>
	<path class="st0" d="M401.1694,412.4761h-9.42871v-1.16113c2.44385-0.23926,2.67627-0.43945,2.67627-2.99902v-8.38477
		c0-2.52051-0.16016-2.65527-2.39697-2.95605v-1.04102c2.05029-0.3125,3.92627-0.79199,5.91064-1.61621
		c0,1.31836,0,3.06738,0,4.37793c1.46973-2.19824,3.10352-4.26465,5.03564-4.26465c1.47754,0,2.36621,0.93262,2.36621,2.00293
		c0,1.10449-0.77539,2.02637-1.47949,2.41113c-0.42822,0.24023-0.76221,0.1709-1.07422-0.10059
		c-0.61377-0.5918-1.1001-1.03516-1.81152-1.03516c-0.79541,0-2.18652,1.10938-3.03662,3.05176v7.52148
		c0,2.59277,0.21436,2.77832,3.23877,3.03223V412.4761z"/>
	<path class="st0" d="M405.18796,416.15579c1.89795-0.87402,3.31006-1.98828,3.31006-3.5127
		c0-1.39746-1.13672-1.83984-2.6709-2.21387c-0.24658-0.04004-0.63916-0.54102-0.63916-1.31738
		c0-1.04785,0.81641-2.10449,2.35156-2.10449c1.55957,0,3.53809,1.41895,3.53809,4.37695c0,3.2627-2.90332,5.27246-5.37012,5.98047
		L405.18796,416.15579z"/>
	<path class="st0" d="M439.28952,408.83157c-1.77148,2.37402-4.44727,4.12402-6.85059,4.12402
		c-5.15039,0-8.18848-4.12012-8.18848-8.42188c0-3.11914,1.38672-5.7832,4.04102-7.79102
		c2.20996-1.69434,4.62695-2.31152,6.22754-2.31152c1.74707,0,3.05762,0.53711,3.67773,1.05566
		c0.55859,0.43262,0.66016,0.74805,0.66016,1.21582c-0.00684,0.9873-1.02637,1.87598-1.50195,1.87598
		c-0.21387,0-0.39551-0.08691-0.78027-0.40625c-1.32422-1.17578-2.68164-1.74902-4.05469-1.74902
		c-2.44141,0-4.67871,2.10645-4.67871,6.28809c-0.03223,5.50781,3.77539,7.32324,5.9834,7.32324
		c1.66992,0,2.99902-0.43945,4.76465-2.10254L439.28952,408.83157z"/>
	<path class="st0" d="M450.4194,394.43118c5.10645,0,8.79102,3.87207,8.79102,8.95898c0,6.46191-4.7627,9.56543-8.82031,9.56543
		c-5.60352,0-8.97266-4.4541-8.97266-8.96289C441.41745,397.55618,446.4819,394.43118,450.4194,394.43118z M449.93991,395.83157
		c-2.30664,0-4.40918,2.25488-4.40918,6.9375c0,5.0498,2.12891,8.74512,5.2666,8.74512c2.30273,0,4.30078-1.66016,4.30078-7.19531
		C455.09811,399.4888,453.26706,395.83157,449.93991,395.83157z"/>
	<path class="st0" d="M483.70554,412.4761v-1.16113c2.21973-0.23926,2.49902-0.39941,2.49902-3.12988v-6.71191
		c0-2.92188-1.06641-4.50293-3.31934-4.50293c-1.3877,0-2.69922,0.73047-4.16602,1.92578
		c0.03906,0.47949,0.1123,0.97949,0.1123,1.70996v7.80469c0,2.46484,0.31641,2.66504,2.44727,2.9043v1.16113h-8.62402v-1.16113
		c2.34668-0.23926,2.66992-0.39258,2.66992-2.9707v-6.93945c0-2.93359-0.9541-4.44141-3.21777-4.44141
		c-1.48926,0-2.93945,0.94824-4.15527,1.91797v9.46289c0,2.56445,0.27246,2.73145,2.4043,2.9707v1.16113h-8.68555v-1.16113
		c2.55664-0.24707,2.77441-0.40625,2.77441-2.99902v-8.30176c0-2.49805-0.13867-2.69434-2.30957-3.07129v-1.04883
		c1.94141-0.27246,3.88965-0.79883,5.81641-1.58301c0,0.95801,0,2.24023,0,3.19141c0.8457-0.63184,1.66309-1.28223,2.86133-1.99805
		c1.04102-0.66016,1.93457-1.07324,3.19824-1.07324c1.97363,0,3.58203,1.19727,4.37402,3.23047
		c1.08887-0.84961,2.08398-1.50684,3.08203-2.18555c0.87891-0.55859,1.99707-1.04492,3.16211-1.04492
		c3.17969,0,5.08203,2.25684,5.08203,6.19922v7.71387c0,2.58984,0.23242,2.7168,2.45117,2.9707v1.16113H483.70554z"/>
	<path class="st0" d="M494.04343,395.76321c1.91992-0.28711,4.10449-0.98047,6.07031-1.73145c0,0.93652,0,2.2002,0,3.13672
		c0.11328-0.07227,3.19922-1.85938,3.35254-1.93164c0.96484-0.53418,1.81055-0.80566,2.36621-0.80566
		c4.39258,0,7.03903,3.73828,7.03903,7.66992c0,6.02637-4.76266,9.86719-9.97946,10.85449
		c-1.16211-0.0332-2.21191-0.34961-2.77832-0.6543v5.2832c0,2.8252,0.29785,3.06445,3.31543,3.3584v1.1543h-9.68652v-1.1543
		c2.56641-0.27148,2.85742-0.5,2.85742-3.08984v-18.10449c0-2.35254-0.1084-2.52637-2.55664-2.86426V395.76321z
		 M500.11374,409.46243c0.88965,0.88965,2.43262,1.54297,3.7002,1.54297c3.22949,0,5.34375-2.85742,5.34375-7.30078
		c0-4.4209-2.50098-6.75586-5.18555-6.75586c-1.3252,0-2.85156,0.8252-3.8584,1.56641V409.46243z"/>
	<path class="st0" d="M525.11957,394.43118c5.10645,0,8.79102,3.87207,8.79102,8.95898c0,6.46191-4.7627,9.56543-8.82031,9.56543
		c-5.60352,0-8.97266-4.4541-8.97266-8.96289C516.11761,397.55618,521.18207,394.43118,525.11957,394.43118z M524.64008,395.83157
		c-2.30664,0-4.40918,2.25488-4.40918,6.9375c0,5.0498,2.12891,8.74512,5.2666,8.74512c2.30273,0,4.30078-1.66016,4.30078-7.19531
		C529.79828,399.4888,527.96722,395.83157,524.64008,395.83157z"/>
	<path class="st0" d="M547.93011,412.4761v-1.16113c2.20117-0.23926,2.41895-0.49805,2.41895-3.2207v-6.63184
		c0-2.80176-1.07031-4.49902-3.48242-4.49902c-1.53027,0-2.96484,0.85742-4.17383,1.91797v9.40137
		c0,2.69824,0.22461,2.79297,2.45117,3.03223v1.16113h-8.74023v-1.16113c2.53516-0.29395,2.77441-0.43262,2.77441-3.06055v-8.24023
		c0-2.55957-0.28613-2.67969-2.37109-3.03906v-1.08105c2.02148-0.3125,4.12207-0.83203,5.89941-1.58301
		c-0.00684,0.85352-0.01367,2.15332-0.01367,3.10449c0.79883-0.55957,1.66992-1.1582,2.68652-1.81543
		c1.13281-0.71875,2.12012-1.16895,3.27832-1.16895c3.20215,0,5.20508,2.35547,5.20508,6.26465v7.58008
		c0,2.67285,0.24023,2.79199,2.48438,3.03906v1.16113H547.93011z"/>
	<path class="st0" d="M573.43695,408.9888c-2.53418,3.26562-5.40137,3.9668-6.75098,3.9668
		c-4.95801,0-7.92773-3.98633-7.92773-8.60742c0-2.72949,1.02344-5.28809,2.66797-7.02441c1.69824-1.8623,3.90234-2.89258,6-2.89258
		c3.55273,0,6.20312,3.03711,6.19629,6.24609c-0.0332,0.77734-0.13867,1.19434-0.74902,1.34668
		c-0.79102,0.16699-5.99609,0.5127-10.58984,0.67188c-0.06934,5.14941,3.04004,7.33887,5.88184,7.33887
		c1.62305,0,3.14746-0.65723,4.61816-1.99316L573.43695,408.9888z M566.49652,395.96927c-1.79395,0-3.51172,1.74609-4.0127,4.9668
		c2.12793-0.00781,4.23438-0.01465,6.46875-0.12012c0.68945-0.00684,0.92969-0.18555,0.92969-0.79883
		C569.9223,397.92239,568.61078,395.96927,566.49652,395.96927z"/>
	<path class="st0" d="M585.42328,412.4761h-9.42871v-1.16113c2.44434-0.23926,2.67676-0.43945,2.67676-2.99902v-8.38477
		c0-2.52051-0.16016-2.65527-2.39648-2.95605v-1.04102c2.0498-0.3125,3.92578-0.79199,5.91016-1.61621
		c0,1.31836,0,3.06738,0,4.37793c1.46973-2.19824,3.10352-4.26465,5.03613-4.26465c1.47656,0,2.36621,0.93262,2.36621,2.00293
		c0,1.10449-0.77539,2.02637-1.48047,2.41113c-0.42773,0.24023-0.76172,0.1709-1.07422-0.10059
		c-0.61328-0.5918-1.09961-1.03516-1.81152-1.03516c-0.79492,0-2.18652,1.10938-3.03613,3.05176v7.52148
		c0,2.59277,0.21387,2.77832,3.23828,3.03223V412.4761z"/>
	<path class="st0" d="M594.10297,410.39993c0-1.47754,0.95898-2.51562,2.35645-2.51562c1.4375,0,2.35547,1.03809,2.35547,2.51562
		c0,1.4375-0.91797,2.51562-2.35547,2.51562C595.06195,412.91556,594.06293,411.83743,594.10297,410.39993z M607.40082,410.39993
		c0-1.47754,0.99805-2.51562,2.39551-2.51562s2.31641,1.03809,2.35645,2.51562c0,1.4375-0.95898,2.51562-2.39648,2.51562
		C608.35883,412.91556,607.36078,411.83743,607.40082,410.39993z M620.69769,410.39993c0-1.47754,0.99902-2.51562,2.39648-2.51562
		s2.35547,1.03809,2.35547,2.51562c0,1.4375-0.91797,2.51562-2.39551,2.51562
		C621.65668,412.91556,620.69769,411.83743,620.69769,410.39993z"/>
</g>
</svg>
